<svg width="133" height="133" viewBox="0 0 133 133" fill="none" xmlns="http://www.w3.org/2000/svg">
<path d="M19.8202 90.136C19.8202 90.3379 19.7805 90.5377 19.7033 90.7242C19.6261 90.9107 19.5129 91.0801 19.3702 91.2229C19.2275 91.3656 19.0581 91.4788 18.8716 91.556C18.6851 91.6333 18.4853 91.6731 18.2834 91.6731H17.9499C17.5457 91.6678 17.1599 91.5036 16.876 91.2159C16.592 90.9283 16.4328 90.5403 16.4328 90.1362C16.4328 89.732 16.592 89.344 16.876 89.0564C17.1599 88.7687 17.5457 88.6045 17.9499 88.5993H18.2842C18.6917 88.5995 19.0823 88.7615 19.3704 89.0496C19.6584 89.3378 19.8202 89.7286 19.8202 90.136ZM123.587 35.2L112.501 51.4974V95.1586C112.501 95.6216 112.317 96.0655 111.989 96.3929C111.662 96.7203 111.218 96.9044 110.755 96.905H70.7654V102.348H83.9096C84.6286 102.335 85.3428 102.466 86.0106 102.733C86.6784 103 87.2864 103.397 87.7992 103.901C88.3119 104.405 88.7192 105.006 88.9972 105.67C89.2752 106.333 89.4184 107.045 89.4184 107.764C89.4184 108.483 89.2752 109.195 88.9972 109.858C88.7192 110.521 88.3119 111.122 87.7992 111.626C87.2864 112.131 86.6784 112.528 86.0106 112.794C85.3428 113.061 84.6286 113.192 83.9096 113.18H37.3497C36.6307 113.192 35.9165 113.061 35.2487 112.794C34.5809 112.528 33.9729 112.131 33.4601 111.626C32.9474 111.122 32.5401 110.521 32.2621 109.858C31.9841 109.195 31.8409 108.483 31.8409 107.764C31.8409 107.045 31.9841 106.333 32.2621 105.67C32.5401 105.006 32.9474 104.405 33.4601 103.901C33.9729 103.397 34.5809 103 35.2487 102.733C35.9165 102.466 36.6307 102.335 37.3497 102.348H50.4939V96.905H10.5042C10.0412 96.9045 9.59723 96.7204 9.26978 96.393C8.94233 96.0656 8.75812 95.6217 8.75757 95.1586V21.5662C8.75819 21.1032 8.94242 20.6593 9.26987 20.332C9.59731 20.0047 10.0412 19.8205 10.5042 19.8201H110.755C111.218 19.8206 111.662 20.0048 111.989 20.3323C112.317 20.6597 112.501 21.1037 112.501 21.5667V28.7846L113.024 28.0157C113.591 27.1855 114.464 26.6139 115.451 26.426C116.439 26.2381 117.461 26.4493 118.293 27.0132L122.583 29.9317C123.414 30.4979 123.987 31.3707 124.175 32.3583C124.363 33.346 124.151 34.368 123.587 35.2ZM83.9096 105.42H37.3497C36.7325 105.427 36.1428 105.677 35.7087 106.115C35.2746 106.554 35.031 107.146 35.031 107.764C35.031 108.381 35.2746 108.973 35.7087 109.412C36.1428 109.851 36.7325 110.1 37.3497 110.107H83.9096C84.5268 110.1 85.1165 109.851 85.5506 109.412C85.9847 108.973 86.2282 108.381 86.2282 107.764C86.2282 107.146 85.9847 106.554 85.5506 106.115C85.1165 105.677 84.5268 105.427 83.9096 105.42ZM67.6916 96.905H53.5674V102.348H67.6916V96.905ZM109.428 93.8312V85.9044H11.8314V93.8309L109.428 93.8312ZM109.428 56.0161L103.955 64.0618C103.798 64.3026 103.576 64.4941 103.314 64.6143L94.3839 68.9264C94.1409 69.0436 93.8714 69.0948 93.6024 69.0749C93.3334 69.0549 93.0744 68.9646 92.8513 68.8128C92.6283 68.6611 92.4491 68.4534 92.3318 68.2105C92.2145 67.9676 92.1631 67.6981 92.1829 67.4291L92.5491 62.4712C92.5507 62.4492 92.553 62.4271 92.5554 62.405L93.1217 57.583C93.1513 57.3275 93.2448 57.0836 93.3936 56.8738L109.428 33.3019V22.8931H11.8314V82.8309H109.428V56.0161ZM95.612 62.7313L95.4445 65.0016L99.6041 62.9929L95.8796 60.4588L95.612 62.7313ZM121.155 32.9336C121.138 32.8409 121.102 32.7526 121.051 32.6736C121 32.5947 120.933 32.5266 120.856 32.4733L116.564 29.554C116.406 29.4486 116.213 29.4094 116.026 29.4449C115.839 29.4804 115.674 29.5878 115.566 29.7439L112.241 34.6322L112.237 34.6384L96.7833 57.3562L102.263 61.0836L109.689 50.1659L109.691 50.1638L121.046 33.471C121.098 33.393 121.135 33.3054 121.154 33.2131C121.172 33.1209 121.173 33.0259 121.155 32.9336ZM86.5179 40.5514V52.9729C86.5179 54.0657 85.8903 55.031 84.5504 55.9171V70.9866C84.549 72.2423 84.0495 73.4461 83.1617 74.334C82.2738 75.2219 81.07 75.7214 79.8144 75.7229H41.4447C40.189 75.7214 38.9852 75.2219 38.0973 74.334C37.2095 73.4461 36.7101 72.2423 36.7086 70.9866V55.8696C35.6176 55.164 34.7411 54.2276 34.7411 52.9729V40.5514C34.7411 38.9128 36.148 37.5797 37.8776 37.5797H46.2903V36.6508C46.2922 35.0306 46.9366 33.4772 48.0823 32.3315C49.228 31.1859 50.7813 30.5414 52.4016 30.5396H68.0823C69.7026 30.5414 71.2559 31.1859 72.4016 32.3315C73.5473 33.4772 74.1917 35.0306 74.1936 36.6508V37.5797H83.3828C85.111 37.5797 86.5179 38.9128 86.5179 40.5514ZM49.3628 37.5797H71.1185V36.6508C71.1175 35.8455 70.7972 35.0735 70.2277 34.5042C69.6583 33.9348 68.8863 33.6145 68.081 33.6136H52.4003C51.595 33.6145 50.8229 33.9348 50.2535 34.5043C49.684 35.0737 49.3637 35.8458 49.3628 36.6511V37.5797ZM37.8147 52.841C38.0503 53.1306 39.605 54.5687 48.1947 56.3709C53.5199 57.4879 58.9212 58.2051 60.7808 58.4142C63.0587 58.1607 68.366 57.4453 73.2841 56.4153C81.8782 54.6165 83.2612 53.1381 83.4441 52.8778V40.6621C83.4238 40.6561 83.4027 40.6532 83.3815 40.6535H72.7604C72.7251 40.6559 72.69 40.6587 72.6542 40.6587C72.6184 40.6587 72.5833 40.6559 72.5482 40.6535H47.932C47.8967 40.6559 47.8616 40.6587 47.8258 40.6587C47.79 40.6587 47.7549 40.6559 47.7198 40.6535H37.8776C37.8563 40.6533 37.8351 40.6561 37.8147 40.6621V52.841ZM81.4769 57.3897C79.272 58.1596 77.0181 58.7808 74.7302 59.2494C69.3702 60.4183 63.3699 61.2254 60.946 61.4883C60.836 61.5004 60.7249 61.5004 60.6148 61.4883C58.7217 61.2831 52.5278 60.4698 46.6769 59.1891C44.3412 58.7049 42.0383 58.0738 39.7822 57.2996V70.9866C39.7826 71.4274 39.958 71.85 40.2696 72.1617C40.5813 72.4733 41.0039 72.6486 41.4447 72.6491H79.8144C80.2551 72.6486 80.6777 72.4733 80.9894 72.1617C81.3011 71.85 81.4764 71.4274 81.4769 70.9866V57.3897ZM60.4618 56.1639H60.7962C61.2037 56.1639 61.5946 56.002 61.8828 55.7138C62.171 55.4256 62.3329 55.0347 62.3329 54.6271C62.3329 54.2195 62.171 53.8286 61.8828 53.5404C61.5946 53.2522 61.2037 53.0903 60.7962 53.0903H60.4618C60.0543 53.0903 59.6634 53.2522 59.3752 53.5404C59.087 53.8286 58.9251 54.2195 58.9251 54.6271C58.9251 55.0347 59.087 55.4256 59.3752 55.7138C59.6634 56.002 60.0543 56.1639 60.4618 56.1639Z" fill="#1F466B"/>
</svg>
