<svg width="102" height="103" viewBox="0 0 102 103" fill="none" xmlns="http://www.w3.org/2000/svg">
<path d="M12.7065 64.105C17.933 64.105 22.185 68.398 22.185 73.6747C22.185 78.9516 17.933 83.2447 12.7065 83.2447C7.48027 83.2447 3.2283 78.9516 3.2283 73.6747C3.2283 68.398 7.48027 64.105 12.7065 64.105ZM12.1468 77.2723V78.5225H13.3926V77.3413C13.9956 77.2828 14.606 77.0931 15.0782 76.7017L14.6301 75.4451C14.1017 75.7992 13.5656 76.0655 12.9132 76.0655C12.2941 76.0655 11.8771 75.7401 11.8771 75.256C11.8771 74.9317 12.0046 74.5788 12.946 74.1953C13.9709 73.7913 14.9181 73.2495 14.9181 72.0387C14.9181 71.0573 14.2235 70.2943 13.2545 70.0438V68.8797H12.0087V69.9669C11.4893 70.0258 11.0013 70.1985 10.5662 70.4887L11.0323 71.7253C11.5172 71.4468 11.9772 71.2293 12.5531 71.2293C13.2117 71.2293 13.4462 71.5791 13.4462 71.9062C13.4462 72.2593 13.2739 72.4884 12.2531 72.9125C11.3854 73.2683 10.402 73.848 10.402 75.1789C10.4015 76.1933 11.0395 77.0107 12.1468 77.2723Z" fill="#F0C374"/>
<path d="M51.8876 23.4412C57.1139 23.4412 61.3658 19.1481 61.3658 13.8712C61.3658 8.59455 57.1139 4.30151 51.8876 4.30151C46.6613 4.30151 42.4093 8.59455 42.4093 13.8712C42.4093 19.1481 46.6611 23.4412 51.8876 23.4412ZM51.8876 6.36172C55.989 6.36172 59.3258 9.73044 59.3258 13.8712C59.3258 18.0123 55.9892 21.381 51.8876 21.381C47.786 21.381 44.4493 18.0123 44.4493 13.8712C44.4493 9.73044 47.786 6.36172 51.8876 6.36172Z" fill="#F0C374"/>
<path d="M51.4335 13.1088C52.4545 12.6844 52.6267 12.4554 52.6267 12.1025C52.6267 11.7751 52.3921 11.4254 51.7336 11.4254C51.1579 11.4254 50.6975 11.6429 50.2128 11.9214L49.7466 10.6848C50.1818 10.3945 50.6699 10.2219 51.1891 10.1632V9.07593H52.4349V10.24C53.4039 10.4905 54.0986 11.2533 54.0986 12.2349C54.0986 13.4458 53.1516 13.9876 52.1265 14.3916C51.1852 14.7751 51.0575 15.128 51.0575 15.4522C51.0575 15.9363 51.4747 16.2616 52.0936 16.2616C52.7458 16.2616 53.2821 15.9955 53.8105 15.6411L54.2587 16.8977C53.7866 17.2891 53.1761 17.4789 52.573 17.5374V18.7186H51.3272V17.4684C50.2199 17.207 49.582 16.3893 49.582 15.375C49.5824 14.044 50.5659 13.4646 51.4335 13.1088Z" fill="#F0C374"/>
<path d="M49.817 98.2379H56.4342C56.9976 98.2379 57.4542 97.7767 57.4542 97.2077C57.4542 96.6387 56.9976 96.1775 56.4342 96.1775H49.817C49.2536 96.1775 48.797 96.6387 48.797 97.2077C48.797 97.7769 49.2536 98.2379 49.817 98.2379Z" fill="#F0C374"/>
<path d="M51.9435 80.7956C52.2273 80.1829 52.9507 79.918 53.5594 80.2035C54.1679 80.4892 54.4313 81.2172 54.1475 81.8299C53.8638 82.4425 53.1404 82.7074 52.5317 82.4219C51.9231 82.1362 51.6598 81.4082 51.9435 80.7956Z" fill="#F0C374"/>
<path d="M55.947 87.4279L62.8748 75.0704C63.1525 74.5751 62.9801 73.9466 62.4899 73.6665C61.9993 73.3855 61.3773 73.5604 61.0998 74.0552L54.6357 85.5854L48.9959 82.9385L55.5816 73.0433C55.896 72.5712 55.7718 71.9311 55.3042 71.6139C54.8366 71.2968 54.203 71.4219 53.8888 71.8942L46.637 82.79C46.2921 83.3079 46.4944 84.0363 47.0536 84.2987L54.6298 87.8547C55.2777 88.1343 55.7605 87.7606 55.947 87.4279Z" fill="#F0C374"/>
<path d="M83.8815 54.2549C84.4656 54.2549 84.7316 55.1603 84.7316 56.0014C84.7377 56.5289 84.6318 57.7332 83.8815 57.7332C83.1269 57.7332 83.0455 56.5021 83.0455 55.9727C83.0455 55.4563 83.1269 54.2549 83.8815 54.2549Z" fill="#F0C374"/>
<path d="M14.3135 91.5324H17.7135L17.7129 85.815C17.7129 85.2461 18.1695 84.7846 18.7327 84.7846C18.7329 84.7846 18.7329 84.7846 18.7329 84.7846C19.2962 84.7846 19.7529 85.2459 19.7529 85.8146L19.7535 91.5324H86.7023L86.7008 70.4738C86.7008 69.905 87.1574 69.4436 87.7208 69.4436C88.2841 69.4436 88.7408 69.9048 88.7408 70.4738L88.7423 91.5324H92.1405C92.7039 91.5324 93.1605 91.9936 93.1605 92.5626C93.1605 98.2043 88.6158 102.794 83.0294 102.794H23.4245C17.8382 102.794 13.2935 98.2041 13.2935 92.5626C13.2935 91.9936 13.75 91.5324 14.3135 91.5324ZM23.4245 100.734H83.0294C87.1453 100.734 90.5534 97.6137 91.0566 93.5926H15.3975C15.9006 97.6137 19.3086 100.734 23.4245 100.734Z" fill="#F0C374"/>
<path d="M21.5512 46.0885H37.5899C39.5091 42.7114 41.6956 39.6508 43.9534 37.2161C45.8304 35.1921 49.3219 31.9557 51.6202 33.0359C52.3611 33.3839 52.7785 34.0987 53.0043 34.8625C54.1186 38.6039 55.1891 42.3618 56.3505 46.0885H79.784C81.8038 44.0769 84.5776 42.8325 87.6351 42.8325C93.797 42.8325 98.8101 47.8832 98.8101 54.0916C98.8101 60.3 93.797 65.3508 87.6351 65.3508C86.0195 65.3508 84.4842 65.0008 83.0961 64.3764L83.0582 86.4089C83.0572 86.9773 82.6008 87.4373 82.0382 87.4373H82.0364C81.4729 87.4362 81.0172 86.9744 81.0182 86.4054L81.058 63.1925C81.0525 63.1884 81.0494 63.1832 81.0459 63.1779C78.2681 61.1275 76.4598 57.8192 76.4598 54.0916C76.4598 54.0706 76.4598 54.0496 76.46 54.0284H62.0678C64.83 56.4443 68.0163 57.8532 71.2841 59.3871C74.7907 61.033 76.3707 65.3613 74.7262 68.9104C73.0685 72.4897 68.8278 74.0446 65.2727 72.3756L61.1543 70.4425C56.9058 68.4486 49.867 67.5331 45.4408 69.4528L34.8538 74.0448C34.0747 74.3822 33.182 74.5068 32.416 74.067C31.7675 73.6946 31.3626 73.021 31.1137 72.3298C30.0202 69.2957 30.6908 62.1594 33.8281 54.0284H25.3819V86.407C25.3819 86.976 24.9253 87.4373 24.3619 87.4373C23.7984 87.4373 23.3419 86.9762 23.3419 86.407V52.9984C23.3419 52.4294 23.7984 51.9682 24.3619 51.9682H34.6692C35.2255 50.673 35.8314 49.4031 36.4717 48.1487H21.551C20.5587 48.1487 19.7515 48.9612 19.7515 49.9595L19.7523 55.3785C19.7523 55.9475 19.2957 56.4089 18.7325 56.4089C18.1693 56.4089 17.7123 55.9477 17.7123 55.3789L17.7115 49.9597C17.7115 47.8251 19.4341 46.0885 21.5512 46.0885ZM93.931 52.1847C93.931 50.2516 92.8616 48.9025 91.3302 48.9025C89.7794 48.9025 88.8161 50.1096 88.8161 52.0526C88.8161 54.338 90.115 55.3612 91.402 55.3612C92.6482 55.3612 93.9134 54.379 93.931 52.1847ZM89.7551 59.2808H91.3863L85.5286 48.9025H83.8975L89.7551 59.2808ZM83.9105 59.2235C85.1569 59.2235 86.422 58.2458 86.4383 56.0614C86.4383 53.7839 85.1325 52.7648 83.8385 52.7648C82.2965 52.7648 81.3387 53.9719 81.3387 55.9155C81.3387 58.2007 82.6304 59.2235 83.9105 59.2235ZM76.6618 51.9682C76.9241 50.5896 77.436 49.3001 78.1493 48.1487H57.2214C57.9225 49.4679 58.8746 50.7645 59.9658 51.9682H76.6618ZM66.5832 60.5687L65.4911 60.0561C64.982 59.8178 64.3765 60.0395 64.1392 60.5532C63.9022 61.067 64.1229 61.6772 64.6323 61.9163L65.7243 62.4289C66.2661 62.6831 66.9255 62.3984 67.1176 61.8279C67.2825 61.3383 67.0468 60.7864 66.5832 60.5687ZM66.1325 70.5071C68.6699 71.6976 71.696 70.5898 72.8784 68.0372C74.0498 65.5081 72.922 62.4276 70.4243 61.2553L69.1321 60.6488C68.3922 64.0115 66.9285 67.1708 64.8451 69.9027L66.1325 70.5071ZM65.0062 65.3627C66.0695 65.3627 66.3977 63.8581 65.4363 63.4065L64.3443 62.894C63.8351 62.6548 63.2294 62.8775 62.9923 63.3911C62.7553 63.9048 62.976 64.515 63.4854 64.7542L64.5774 65.2667C64.7161 65.3318 64.8622 65.3627 65.0062 65.3627ZM61.861 67.5362L62.9532 68.0492C63.4952 68.3031 64.1543 68.0189 64.3465 67.448C64.5115 66.9584 64.2759 66.4065 63.812 66.1888L62.7198 65.676C62.2108 65.4377 61.6054 65.6591 61.3679 66.1731C61.1306 66.6867 61.3514 67.297 61.861 67.5362ZM44.6358 67.5599C48.6356 65.825 54.1596 66.1008 58.5764 67.3251C60.8399 64.4437 62.4034 61.069 63.1411 57.4715C59.3709 54.852 55.6118 50.7705 54.3611 46.5714L52.734 41.1081C51.8134 45.5715 49.7505 51.1808 47.4647 56.115C45.6301 60.0751 42.5369 65.8369 39.4232 69.821L44.6358 67.5599ZM44.5512 55.876L45.1799 56.1712C45.4734 55.5546 45.7607 54.9352 46.0414 54.3125L45.4102 54.016C44.9012 53.7764 44.2957 53.9989 44.0585 54.5129C43.821 55.0267 44.0416 55.637 44.5512 55.876ZM33.0305 71.6253C33.2273 72.1714 33.4168 72.2734 33.4376 72.2833C33.6692 72.3935 35.1294 72.0396 38.0064 68.3108C40.0091 65.7152 42.1338 62.2352 44.1283 58.3074L42.3324 57.4647C40.6374 56.6689 39.904 54.6408 40.6943 52.9345C41.4848 51.2284 43.4997 50.4901 45.1948 51.2857L46.9912 52.1288C50.5249 43.7236 51.7287 37.3125 50.9963 35.2803C50.9182 35.0638 50.8297 34.8714 50.5771 34.8714C49.9282 34.8714 48.1552 35.6987 45.4422 38.6245C42.392 41.9137 39.4663 46.4148 37.2037 51.2989C33.209 59.9218 31.9272 68.5637 33.0305 71.6253Z" fill="#F0C374"/>
<path d="M91.3732 50.3926C92.0332 50.3926 92.209 51.4904 92.209 52.1388C92.2211 52.6613 92.1311 53.8707 91.3732 53.8707C90.6197 53.8707 90.5383 52.6396 90.5383 52.1102C90.5383 51.4687 90.6468 50.3926 91.3732 50.3926Z" fill="#F0C374"/>
<path d="M18.7315 60.9349C18.001 60.9349 17.4088 60.3378 17.4088 59.6012C17.4088 58.8647 18.001 58.2676 18.7315 58.2676C19.462 58.2676 20.0542 58.8647 20.0542 59.6012C20.0542 60.3378 19.462 60.9349 18.7315 60.9349Z" fill="#F0C374"/>
<path d="M15.2396 19.3104L22.1309 15.6374C22.5057 15.4376 22.5057 14.8958 22.1309 14.6962L15.2396 11.0232C14.8885 10.8362 14.4662 11.093 14.4662 11.4939V18.8399C14.4662 19.2405 14.8885 19.4974 15.2396 19.3104Z" fill="#F0C374"/>
<path d="M1.32274 17.1825C0.759295 17.1825 0.302743 16.7213 0.302743 16.1523V5.82757C0.302743 5.2586 0.759295 4.79736 1.32274 4.79736H34.4986C35.0619 4.79736 35.5184 5.25839 35.5186 5.82695L35.5323 32.7771C35.5327 33.338 35.0678 33.8077 34.5123 33.8077H1.32274C0.759295 33.8077 0.302743 33.3465 0.302743 32.7775V25.6924C0.302743 25.1234 0.759295 24.6622 1.32274 24.6622C1.36252 24.6622 1.40006 24.6696 1.43861 24.6739C1.51246 24.5975 1.61548 24.5497 1.72972 24.5497H33.4882L33.4793 6.85736H2.34274V16.1521C2.34274 16.7213 1.88619 17.1825 1.32274 17.1825ZM6.94988 27.6168H6.93335V27.6005C6.93335 27.0338 6.47782 26.5747 5.9158 26.5747C5.35378 26.5747 4.89825 27.0338 4.89825 27.6005V27.6168H4.88193C4.31991 27.6168 3.86438 28.076 3.86438 28.6427C3.86438 29.2094 4.31991 29.6686 4.88193 29.6686H4.89825V29.685C4.89825 30.2518 5.35378 30.7109 5.9158 30.7109C6.47782 30.7109 6.93335 30.2515 6.93335 29.685V29.6686H6.94988C7.5119 29.6686 7.96743 29.2094 7.96743 28.6427C7.96743 28.076 7.5119 27.6168 6.94988 27.6168ZM25.2444 27.6168H22.0114C21.6895 27.1512 21.1552 26.846 20.5497 26.846C19.9443 26.846 19.41 27.1512 19.0881 27.6168H10.6311C10.069 27.6168 9.6135 28.076 9.6135 28.6427C9.6135 29.2094 10.069 29.6686 10.6311 29.6686H19.0881C19.41 30.1341 19.9443 30.4394 20.5497 30.4394C21.1552 30.4394 21.6895 30.1341 22.0114 29.6686H25.2442C25.8062 29.6686 26.2617 29.2094 26.2617 28.6427C26.2617 28.076 25.8064 27.6168 25.2444 27.6168ZM30.906 27.6168H28.8409C28.2789 27.6168 27.8234 28.076 27.8234 28.6427C27.8234 29.2094 28.2789 29.6686 28.8409 29.6686H30.906C31.468 29.6686 31.9236 29.2094 31.9236 28.6427C31.9236 28.076 31.468 27.6168 30.906 27.6168Z" fill="#F0C374"/>
<path d="M1.32275 21.6929C0.592219 21.6929 7.86781e-06 21.0958 7.86781e-06 20.3593C7.86781e-06 19.6227 0.592219 19.0256 1.32275 19.0256C2.05327 19.0256 2.64548 19.6227 2.64548 20.3593C2.64548 21.0958 2.05327 21.6929 1.32275 21.6929Z" fill="#F0C374"/>
<path d="M73.2215 37.905H86.4283C86.9917 37.905 87.4483 37.4437 87.4483 36.8748C87.4483 36.3058 86.9917 35.8446 86.4283 35.8446H73.2215C72.3686 35.8446 71.675 35.1464 71.675 34.2882C71.675 33.4212 72.3761 32.7156 73.2376 32.7156H76.2309C76.7507 32.7156 77.1922 32.3055 77.2495 31.7861C77.316 31.1834 76.8374 30.6389 76.236 30.6389H71.775C70.922 30.6389 70.2284 29.9408 70.2284 29.0826C70.2284 28.2155 70.9296 27.51 71.7911 27.51H75.3378C75.8856 27.51 76.345 27.0527 76.3641 26.5018C76.3841 25.9283 75.9158 25.4331 75.3468 25.4331H70.3286C69.4757 25.4331 68.7819 24.735 68.7819 23.8768C68.7819 23.0099 69.483 22.3044 70.3447 22.3044H75.0247C75.5881 22.3044 76.0447 21.8431 76.0447 21.2742C76.0447 20.7052 75.5881 20.2271 75.0247 20.2271H68.882C68.0291 20.2271 67.3355 19.5291 67.3355 18.671C67.3331 17.8128 68.0407 17.0981 68.8902 17.0981L82.1857 17.0712C83.3899 17.0666 84.2473 15.7956 83.8061 14.6614C83.3399 13.4676 82.7487 11.7304 82.5662 10.8889C82.0074 8.31348 82.7946 5.41464 84.68 2.98611C85.6959 6.99528 86.9373 10.2919 88.3775 12.8012C88.66 13.2931 89.2833 13.4608 89.7716 13.1759C90.259 12.8906 90.425 12.2602 90.1425 11.7679C88.6252 9.1247 87.332 5.49931 86.2989 0.992853C86.0021 -0.301651 84.3503 0.239305 83.7379 0.921783C81.0033 3.96873 79.8203 7.85986 80.5735 11.3308C80.7661 12.2188 81.2856 13.7752 81.7526 15.0124L68.888 15.0386C66.9271 15.0386 65.2892 16.6936 65.2953 18.6747C65.2953 20.0979 66.1178 21.3331 67.3094 21.9212C66.95 22.4861 66.7417 23.1574 66.7417 23.8768C66.7417 25.3025 67.5642 26.5381 68.756 27.1268C68.3965 27.6917 68.1882 28.363 68.1882 29.0824C68.1882 30.5083 69.0108 31.7439 70.2023 32.3327C69.8431 32.8975 69.6348 33.5687 69.6348 34.288C69.635 36.2827 71.2437 37.905 73.2215 37.905Z" fill="#F0C374"/>
<path d="M93.1329 14.8359H100.98C101.543 14.8359 102 15.2972 102 15.8661V36.3329C102 36.9018 101.543 37.3631 100.98 37.3631H93.1329C92.5695 37.3631 92.1129 36.9018 92.1129 36.3329V15.8659C92.1129 15.297 92.5695 14.8359 93.1329 14.8359ZM98.503 31.0451C98.503 30.24 97.8553 29.5874 97.0567 29.5874C96.2578 29.5874 95.6101 30.24 95.6101 31.0451C95.6101 31.8501 96.2578 32.5027 97.0567 32.5027C97.8553 32.5027 98.503 31.8501 98.503 31.0451Z" fill="#F0C374"/>
</svg>
