<svg width="43" height="43" viewBox="0 0 43 43" fill="none" xmlns="http://www.w3.org/2000/svg">
<path d="M21.4997 34.3761C22.2084 34.3761 22.9012 34.166 23.4905 33.7722C24.0797 33.3785 24.539 32.8189 24.8102 32.1641C25.0815 31.5093 25.1524 30.7888 25.0142 30.0937C24.8759 29.3986 24.5346 28.7601 24.0335 28.259C23.5323 27.7579 22.8938 27.4166 22.1987 27.2783C21.5037 27.1401 20.7832 27.211 20.1284 27.4822C19.4736 27.7534 18.914 28.2127 18.5202 28.802C18.1265 29.3913 17.9163 30.0841 17.9163 30.7928C17.9163 31.7432 18.2939 32.6546 18.9659 33.3266C19.6379 33.9986 20.5493 34.3761 21.4997 34.3761ZM21.4997 29.0011C21.854 29.0011 22.2004 29.1062 22.4951 29.3031C22.7897 29.5 23.0194 29.7798 23.155 30.1072C23.2906 30.4345 23.326 30.7948 23.2569 31.1423C23.1878 31.4899 23.0171 31.8091 22.7666 32.0597C22.516 32.3103 22.1968 32.4809 21.8492 32.55C21.5017 32.6192 21.1414 32.5837 20.814 32.4481C20.4866 32.3125 20.2068 32.0828 20.01 31.7882C19.8131 31.4936 19.708 31.1472 19.708 30.7928C19.708 30.3176 19.8968 29.8619 20.2328 29.5259C20.5688 29.1899 21.0245 29.0011 21.4997 29.0011ZM22.5627 12.1834H14.333V14.0945H22.1686C22.1559 13.436 22.2906 12.7831 22.5627 12.1834ZM14.333 7.40558V9.31669H24.1872L25.298 7.40558H14.333Z" fill="black"/>
<path d="M31.0557 38.2222H11.9446V4.7778H26.8154L28.189 2.38892H11.3473C10.8722 2.38892 10.4164 2.57768 10.0804 2.91368C9.74443 3.24969 9.55566 3.7054 9.55566 4.18058V40.6111H33.4446V18.3945H31.0557V38.2222Z" fill="black"/>
<path d="M41.5431 13.1986L34.7109 1.36165C34.5761 1.13119 34.3834 0.940029 34.1518 0.807181C33.9203 0.674332 33.658 0.604431 33.391 0.604431C33.124 0.604431 32.8617 0.674332 32.6302 0.807181C32.3986 0.940029 32.2059 1.13119 32.0711 1.36165L25.2389 13.1986C25.0919 13.4303 25.0105 13.6976 25.0034 13.972C24.9963 14.2463 25.0638 14.5175 25.1986 14.7565C25.3335 14.9955 25.5306 15.1935 25.7691 15.3293C26.0076 15.4651 26.2784 15.5337 26.5528 15.5278H40.2292C40.5036 15.5337 40.7744 15.4651 41.0129 15.3293C41.2514 15.1935 41.4485 14.9955 41.5834 14.7565C41.7182 14.5175 41.7857 14.2463 41.7786 13.972C41.7715 13.6976 41.6901 13.4303 41.5431 13.1986Z" fill="black"/>
</svg>
