<svg width="67" height="64" viewBox="0 0 67 64" fill="none" xmlns="http://www.w3.org/2000/svg">
<g clip-path="url(#clip0_1_839)">
<path d="M8.34647 39.8323C11.7795 39.8323 14.5725 42.4998 14.5725 45.7785C14.5725 49.0574 11.7795 51.7249 8.34647 51.7249C4.91352 51.7249 2.12056 49.0574 2.12056 45.7785C2.12056 42.4998 4.91352 39.8323 8.34647 39.8323ZM7.97877 48.0139V48.7907H8.79711V48.0568C9.19321 48.0204 9.59414 47.9025 9.90435 47.6593L9.60995 46.8785C9.26289 47.0986 8.91074 47.2641 8.48221 47.2641C8.07552 47.2641 7.80162 47.0618 7.80162 46.761C7.80162 46.5596 7.88537 46.3403 8.50378 46.102C9.177 45.851 9.79916 45.5143 9.79916 44.7619C9.79916 44.1521 9.34289 43.678 8.70639 43.5224V42.7991H7.88805V43.4746C7.54689 43.5113 7.22636 43.6185 6.94054 43.7989L7.24673 44.5673C7.56525 44.3942 7.86742 44.259 8.2457 44.259C8.67825 44.259 8.83235 44.4764 8.83235 44.6796C8.83235 44.899 8.71912 45.0414 8.04858 45.3049C7.47868 45.526 6.83267 45.8862 6.83267 46.7132C6.8324 47.3434 7.25142 47.8513 7.97877 48.0139Z" fill="#518E41"/>
<path d="M34.0831 14.5653C37.516 14.5653 40.309 11.8978 40.309 8.61897C40.309 5.34025 37.516 2.67273 34.0831 2.67273C30.6501 2.67273 27.8571 5.34025 27.8571 8.61897C27.8571 11.8978 30.65 14.5653 34.0831 14.5653ZM34.0831 3.95286C36.7771 3.95286 38.969 6.04604 38.969 8.61897C38.969 11.192 36.7773 13.2852 34.0831 13.2852C31.3888 13.2852 29.1971 11.192 29.1971 8.61897C29.1971 6.04604 31.3888 3.95286 34.0831 3.95286Z" fill="#518E41"/>
<path d="M33.7847 8.14526C34.4554 7.88158 34.5685 7.73924 34.5685 7.51998C34.5685 7.31659 34.4144 7.09924 33.9819 7.09924C33.6037 7.09924 33.3013 7.23441 32.9829 7.40747L32.6767 6.63908C32.9625 6.45873 33.2832 6.35147 33.6242 6.31499V5.6394H34.4425V6.36273C35.079 6.51838 35.5353 6.99236 35.5353 7.60228C35.5353 8.35467 34.9133 8.69131 34.2399 8.94232C33.6217 9.18065 33.5378 9.39992 33.5378 9.60139C33.5378 9.90219 33.8118 10.1043 34.2184 10.1043C34.6468 10.1043 34.999 9.93892 35.3461 9.71876L35.6405 10.4996C35.3304 10.7428 34.9294 10.8607 34.5333 10.897V11.631H33.7149V10.8541C32.9876 10.6917 32.5686 10.1837 32.5686 9.55339C32.5688 8.72638 33.2148 8.36632 33.7847 8.14526Z" fill="#518E41"/>
<path d="M32.7229 61.041H37.0695C37.4396 61.041 37.7395 60.7544 37.7395 60.4009C37.7395 60.0473 37.4396 59.7607 37.0695 59.7607H32.7229C32.3528 59.7607 32.0529 60.0473 32.0529 60.4009C32.0529 60.7545 32.3528 61.041 32.7229 61.041Z" fill="#518E41"/>
<path d="M34.1198 50.2032C34.3062 49.8225 34.7813 49.6579 35.1812 49.8353C35.5809 50.0128 35.7539 50.4652 35.5675 50.8459C35.3811 51.2265 34.906 51.3911 34.5061 51.2137C34.1064 51.0362 33.9334 50.5838 34.1198 50.2032Z" fill="#518E41"/>
<path d="M36.7495 54.3241L41.3001 46.6456C41.4825 46.3379 41.3693 45.9473 41.0473 45.7733C40.725 45.5987 40.3164 45.7073 40.1342 46.0148L35.8881 53.1792L32.1836 51.5345L36.5095 45.3861C36.716 45.0927 36.6344 44.695 36.3273 44.4979C36.0201 44.3009 35.6039 44.3786 35.3976 44.6721L30.6341 51.4423C30.4075 51.7641 30.5405 52.2167 30.9078 52.3797L35.8843 54.5893C36.3098 54.763 36.627 54.5308 36.7495 54.3241Z" fill="#518E41"/>
<path d="M55.0987 33.7119C55.4823 33.7119 55.6571 34.2745 55.6571 34.7971C55.6611 35.1249 55.5915 35.8732 55.0987 35.8732C54.603 35.8732 54.5496 35.1083 54.5496 34.7793C54.5496 34.4584 54.603 33.7119 55.0987 33.7119Z" fill="#518E41"/>
<path d="M9.40205 56.8745H11.6354L11.635 53.322C11.635 52.9684 11.9349 52.6817 12.3049 52.6817C12.305 52.6817 12.305 52.6817 12.305 52.6817C12.675 52.6817 12.975 52.9683 12.975 53.3217L12.9754 56.8745H56.9516L56.9506 43.7895C56.9506 43.4361 57.2505 43.1494 57.6206 43.1494C57.9906 43.1494 58.2906 43.436 58.2906 43.7895L58.2916 56.8745H60.5237C60.8938 56.8745 61.1937 57.1611 61.1937 57.5146C61.1937 61.0201 58.2085 63.872 54.539 63.872H15.3868C11.7173 63.872 8.73205 61.02 8.73205 57.5146C8.73205 57.1611 9.03194 56.8745 9.40205 56.8745ZM15.3868 62.5918H54.539C57.2426 62.5918 59.4812 60.6532 59.8118 58.1546H10.1141C10.4446 60.6532 12.6832 62.5918 15.3868 62.5918Z" fill="#518E41"/>
<path d="M14.1562 28.6376H24.6914C25.9521 26.5391 27.3883 24.6374 28.8714 23.1246C30.1043 21.867 32.3977 19.856 33.9074 20.5272C34.3941 20.7434 34.6682 21.1876 34.8166 21.6622C35.5485 23.9869 36.2517 26.3219 37.0146 28.6376H52.4072C53.7339 27.3877 55.5559 26.6144 57.5643 26.6144C61.6117 26.6144 64.9047 29.7527 64.9047 33.6104C64.9047 37.468 61.6117 40.6063 57.5643 40.6063C56.503 40.6063 55.4945 40.3889 54.5828 40.0009L54.5579 53.691C54.5572 54.0442 54.2574 54.33 53.8879 54.33H53.8866C53.5165 54.3293 53.2172 54.0424 53.2179 53.6888L53.244 39.2653C53.2404 39.2627 53.2384 39.2595 53.2361 39.2562C51.4114 37.9822 50.2236 35.9265 50.2236 33.6104C50.2236 33.5973 50.2236 33.5843 50.2238 33.5711H40.7701C42.5844 35.0723 44.6774 35.9477 46.8239 36.9007C49.1272 37.9235 50.1651 40.6129 49.0849 42.8182C47.996 45.0422 45.2104 46.0083 42.8752 44.9713L40.17 43.7701C37.3793 42.5312 32.7558 41.9624 29.8484 43.1552L22.8942 46.0085C22.3824 46.2181 21.7961 46.2956 21.2929 46.0223C20.8669 45.7909 20.6009 45.3723 20.4374 44.9429C19.7192 43.0575 20.1596 38.6234 22.2204 33.5711H16.6724V53.6899C16.6724 54.0434 16.3725 54.33 16.0024 54.33C15.6323 54.33 15.3324 54.0435 15.3324 53.6899V32.9311C15.3324 32.5775 15.6323 32.2909 16.0024 32.2909H22.7729C23.1383 31.4862 23.5363 30.6971 23.9569 29.9177H14.156C13.5043 29.9177 12.974 30.4225 12.974 31.0428L12.9746 34.41C12.9746 34.7635 12.6747 35.0502 12.3047 35.0502C11.9347 35.0502 11.6346 34.7637 11.6346 34.4102L11.634 31.0429C11.634 29.7166 12.7655 28.6376 14.1562 28.6376ZM61.6998 32.4255C61.6998 31.2243 60.9974 30.3861 59.9914 30.3861C58.9728 30.3861 58.34 31.1361 58.34 32.3434C58.34 33.7635 59.1932 34.3992 60.0386 34.3992C60.8572 34.3992 61.6883 33.7889 61.6998 32.4255ZM58.9568 36.8347H60.0283L56.1806 30.3861H55.1091L58.9568 36.8347ZM55.1177 36.7991C55.9364 36.7991 56.7674 36.1916 56.7781 34.8343C56.7781 33.4191 55.9204 32.7859 55.0704 32.7859C54.0575 32.7859 53.4284 33.536 53.4284 34.7437C53.4284 36.1636 54.2769 36.7991 55.1177 36.7991ZM50.3563 32.2909C50.5286 31.4344 50.8648 30.6331 51.3334 29.9177H37.5866C38.0472 30.7374 38.6726 31.543 39.3893 32.2909H50.3563ZM43.736 37.635L43.0187 37.3165C42.6842 37.1684 42.2865 37.3061 42.1307 37.6253C41.975 37.9446 42.12 38.3237 42.4546 38.4723L43.1719 38.7908C43.5278 38.9487 43.9609 38.7718 44.0871 38.4174C44.1954 38.1132 44.0406 37.7702 43.736 37.635ZM43.44 43.8103C45.1067 44.55 47.0945 43.8616 47.8711 42.2756C48.6405 40.7041 47.8998 38.79 46.2591 38.0616L45.4103 37.6847C44.9243 39.7742 43.9629 41.7372 42.5943 43.4348L43.44 43.8103ZM42.7002 40.6138C43.3986 40.6138 43.6142 39.6789 42.9827 39.3983L42.2654 39.0798C41.9309 38.9312 41.5331 39.0696 41.3773 39.3887C41.2216 39.7079 41.3666 40.087 41.7012 40.2357L42.4185 40.5541C42.5096 40.5946 42.6056 40.6138 42.7002 40.6138ZM40.6342 41.9643L41.3516 42.283C41.7077 42.4408 42.1406 42.2642 42.2668 41.9095C42.3752 41.6053 42.2205 41.2623 41.9158 41.127L41.1983 40.8085C40.864 40.6604 40.4663 40.798 40.3103 41.1173C40.1545 41.4364 40.2994 41.8157 40.6342 41.9643ZM29.3196 41.979C31.947 40.901 35.5754 41.0724 38.4766 41.8331C39.9635 40.0428 40.9905 37.9459 41.475 35.7105C38.9986 34.0828 36.5294 31.5468 35.7078 28.9376L34.639 25.5429C34.0343 28.3163 32.6793 31.8017 31.1778 34.8676C29.9727 37.3283 27.9409 40.9084 25.8957 43.3839L29.3196 41.979ZM29.264 34.7191L29.677 34.9025C29.8698 34.5194 30.0585 34.1345 30.2429 33.7476L29.8283 33.5634C29.494 33.4145 29.0962 33.5528 28.9404 33.8721C28.7844 34.1914 28.9293 34.5706 29.264 34.7191ZM21.6965 44.5051C21.8258 44.8444 21.9503 44.9078 21.964 44.9139C22.1161 44.9824 23.0752 44.7625 24.965 42.4456C26.2805 40.8328 27.6761 38.6705 28.9862 36.2299L27.8066 35.7062C26.6932 35.2118 26.2115 33.9516 26.7306 32.8914C27.2499 31.8313 28.5734 31.3725 29.6868 31.8669L30.8668 32.3908C33.1879 27.1681 33.9787 23.1845 33.4976 21.9218C33.4463 21.7873 33.3881 21.6677 33.2222 21.6677C32.796 21.6677 31.6314 22.1818 29.8493 23.9997C27.8458 26.0435 25.9239 28.8403 24.4377 31.8751C21.8137 37.233 20.9718 42.6028 21.6965 44.5051Z" fill="#518E41"/>
<path d="M60.0197 31.312C60.4532 31.312 60.5687 31.9941 60.5687 32.3971C60.5766 32.7217 60.5175 33.4732 60.0197 33.4732C59.5247 33.4732 59.4712 32.7082 59.4712 32.3793C59.4712 31.9807 59.5425 31.312 60.0197 31.312Z" fill="#518E41"/>
<path d="M12.3041 37.8625C11.8242 37.8625 11.4352 37.4915 11.4352 37.0339C11.4352 36.5762 11.8242 36.2052 12.3041 36.2052C12.7839 36.2052 13.1729 36.5762 13.1729 37.0339C13.1729 37.4915 12.7839 37.8625 12.3041 37.8625Z" fill="#518E41"/>
<path d="M10.0103 11.9987L14.537 9.71643C14.7832 9.59227 14.7832 9.25563 14.537 9.1316L10.0103 6.84936C9.77974 6.73313 9.50235 6.89275 9.50235 7.14184V11.7063C9.50235 11.9553 9.77974 12.1149 10.0103 11.9987Z" fill="#518E41"/>
<path d="M0.868845 10.6765C0.498737 10.6765 0.198845 10.3899 0.198845 10.0363V3.62096C0.198845 3.26743 0.498737 2.98083 0.868845 2.98083H22.6609C23.0308 2.98083 23.3307 3.2673 23.3309 3.62058L23.3398 20.3663C23.3401 20.7149 23.0347 21.0067 22.6698 21.0067H0.868845C0.498737 21.0067 0.198845 20.7201 0.198845 20.3666V15.9641C0.198845 15.6106 0.498737 15.324 0.868845 15.324C0.894974 15.324 0.91963 15.3286 0.944956 15.3313C0.993464 15.2838 1.06113 15.2541 1.13617 15.2541H21.9972L21.9913 4.26083H1.53885V10.0362C1.53885 10.3899 1.23895 10.6765 0.868845 10.6765ZM4.5651 17.1599H4.55424V17.1498C4.55424 16.7977 4.25502 16.5124 3.88585 16.5124C3.51668 16.5124 3.21746 16.7977 3.21746 17.1498V17.1599H3.20674C2.83757 17.1599 2.53835 17.4452 2.53835 17.7973C2.53835 18.1495 2.83757 18.4348 3.20674 18.4348H3.21746V18.445C3.21746 18.7972 3.51668 19.0825 3.88585 19.0825C4.25502 19.0825 4.55424 18.797 4.55424 18.445V18.4348H4.5651C4.93427 18.4348 5.23349 18.1495 5.23349 17.7973C5.23349 17.4452 4.93427 17.1599 4.5651 17.1599ZM16.5821 17.1599H14.4585C14.247 16.8706 13.8961 16.6809 13.4983 16.6809C13.1006 16.6809 12.7497 16.8706 12.5382 17.1599H6.98313C6.61396 17.1599 6.31474 17.4452 6.31474 17.7973C6.31474 18.1495 6.61396 18.4348 6.98313 18.4348H12.5382C12.7497 18.7241 13.1006 18.9138 13.4983 18.9138C13.8961 18.9138 14.247 18.7241 14.4585 18.4348H16.582C16.9511 18.4348 17.2503 18.1495 17.2503 17.7973C17.2503 17.4452 16.9513 17.1599 16.5821 17.1599ZM20.301 17.1599H18.9445C18.5753 17.1599 18.2761 17.4452 18.2761 17.7973C18.2761 18.1495 18.5753 18.4348 18.9445 18.4348H20.301C20.6702 18.4348 20.9694 18.1495 20.9694 17.7973C20.9694 17.4452 20.6702 17.1599 20.301 17.1599Z" fill="#518E41"/>
<path d="M0.868818 13.479C0.388962 13.479 -3.94583e-05 13.108 -3.94583e-05 12.6503C-3.94583e-05 12.1927 0.388962 11.8217 0.868818 11.8217C1.34867 11.8217 1.73767 12.1927 1.73767 12.6503C1.73767 13.108 1.34867 13.479 0.868818 13.479Z" fill="#518E41"/>
<path d="M48.0965 23.5526H56.7715C57.1417 23.5526 57.4415 23.2661 57.4415 22.9125C57.4415 22.559 57.1417 22.2724 56.7715 22.2724H48.0965C47.5363 22.2724 47.0807 21.8386 47.0807 21.3054C47.0807 20.7666 47.5412 20.3282 48.1071 20.3282H50.0733C50.4147 20.3282 50.7047 20.0734 50.7424 19.7507C50.786 19.3761 50.4717 19.0378 50.0766 19.0378H47.1463C46.5861 19.0378 46.1305 18.604 46.1305 18.0708C46.1305 17.532 46.591 17.0936 47.1569 17.0936H49.4866C49.8464 17.0936 50.1482 16.8095 50.1608 16.4672C50.1739 16.1109 49.8663 15.8031 49.4925 15.8031H46.1963C45.636 15.8031 45.1803 15.3694 45.1803 14.8361C45.1803 14.2975 45.6408 13.8591 46.2069 13.8591H49.2809C49.6511 13.8591 49.9509 13.5725 49.9509 13.219C49.9509 12.8654 49.6511 12.5683 49.2809 12.5683H45.2461C44.6858 12.5683 44.2302 12.1347 44.2302 11.6014C44.2286 11.0682 44.6935 10.6241 45.2514 10.6241L53.9848 10.6074C54.7758 10.6046 55.339 9.81479 55.0491 9.11002C54.7429 8.36826 54.3546 7.28884 54.2347 6.76596C53.8676 5.1657 54.3847 3.36449 55.6232 1.85549C56.2905 4.34663 57.1059 6.39501 58.0519 7.95418C58.2375 8.25985 58.6469 8.36404 58.9677 8.18701C59.2878 8.00973 59.3969 7.61805 59.2113 7.31213C58.2146 5.66977 57.3652 3.41709 56.6866 0.616966C56.4916 -0.187386 55.4066 0.148742 55.0044 0.572806C53.2081 2.46605 52.431 4.88385 52.9257 7.04052C53.0522 7.59233 53.3935 8.55937 53.7003 9.32813L45.25 9.34439C43.962 9.34439 42.8861 10.3727 42.8901 11.6037C42.8901 12.4881 43.4304 13.2556 44.2131 13.621C43.977 13.972 43.8401 14.3891 43.8401 14.8361C43.8401 15.722 44.3804 16.4897 45.1633 16.8556C44.9272 17.2065 44.7903 17.6237 44.7903 18.0707C44.7903 18.9567 45.3306 19.7244 46.1133 20.0902C45.8773 20.4412 45.7405 20.8582 45.7405 21.3052C45.7407 22.5446 46.7974 23.5526 48.0965 23.5526Z" fill="#518E41"/>
<path d="M61.1756 9.21851H66.33C66.7001 9.21851 67 9.5051 67 9.85863V22.5758C67 22.9294 66.7001 23.2159 66.33 23.2159H61.1756C60.8054 23.2159 60.5056 22.9294 60.5056 22.5758V9.85851C60.5056 9.50497 60.8054 9.21851 61.1756 9.21851ZM64.703 19.2902C64.703 18.79 64.2775 18.3845 63.7529 18.3845C63.2282 18.3845 62.8027 18.79 62.8027 19.2902C62.8027 19.7904 63.2282 20.1959 63.7529 20.1959C64.2775 20.1959 64.703 19.7904 64.703 19.2902Z" fill="#518E41"/>
</g>
<defs>
<clipPath id="clip0_1_839">
<rect width="67" height="64" fill="white" transform="matrix(-1 0 0 1 67 0)"/>
</clipPath>
</defs>
</svg>
