<svg width="67" height="64" viewBox="0 0 67 64" fill="none" xmlns="http://www.w3.org/2000/svg">
<g clip-path="url(#clip0_200_4828)">
<path d="M8.34622 39.8323C11.7793 39.8323 14.5723 42.4999 14.5723 45.7786C14.5723 49.0574 11.7793 51.7249 8.34622 51.7249C4.91328 51.7249 2.12032 49.0574 2.12032 45.7786C2.12032 42.4999 4.91328 39.8323 8.34622 39.8323ZM7.97853 48.014V48.7908H8.79686V48.0568C9.19297 48.0205 9.5939 47.9026 9.90411 47.6594L9.60971 46.8786C9.26265 47.0986 8.9105 47.2641 8.48196 47.2641C8.07527 47.2641 7.80138 47.0619 7.80138 46.7611C7.80138 46.5596 7.88513 46.3404 8.50354 46.102C9.17676 45.851 9.79892 45.5144 9.79892 44.762C9.79892 44.1522 9.34265 43.6781 8.70615 43.5224V42.7991H7.88781V43.4747C7.54665 43.5113 7.22612 43.6186 6.9403 43.7989L7.24648 44.5673C7.565 44.3943 7.86717 44.2591 8.24546 44.2591C8.67801 44.2591 8.83211 44.4764 8.83211 44.6797C8.83211 44.8991 8.71888 45.0414 8.04834 45.305C7.47844 45.526 6.83242 45.8862 6.83242 46.7132C6.83216 47.3435 7.25118 47.8514 7.97853 48.014Z" fill="#1F466B"/>
<path d="M34.0827 14.5654C37.5156 14.5654 40.3086 11.8979 40.3086 8.61903C40.3086 5.34031 37.5156 2.67279 34.0827 2.67279C30.6497 2.67279 27.8568 5.34031 27.8568 8.61903C27.8568 11.8979 30.6496 14.5654 34.0827 14.5654ZM34.0827 3.95292C36.7768 3.95292 38.9686 6.0461 38.9686 8.61903C38.9686 11.1921 36.7769 13.2853 34.0827 13.2853C31.3885 13.2853 29.1968 11.1921 29.1968 8.61903C29.1968 6.0461 31.3885 3.95292 34.0827 3.95292Z" fill="#1F466B"/>
<path d="M33.7849 8.14532C34.4555 7.88164 34.5686 7.73931 34.5686 7.52004C34.5686 7.31665 34.4145 7.09931 33.982 7.09931C33.6038 7.09931 33.3014 7.23447 32.983 7.40753L32.6768 6.63915C32.9626 6.45879 33.2833 6.35153 33.6243 6.31505V5.63947H34.4427V6.36279C35.0792 6.51844 35.5354 6.99243 35.5354 7.60235C35.5354 8.35473 34.9134 8.69137 34.2401 8.94238C33.6218 9.18071 33.5379 9.39998 33.5379 9.60145C33.5379 9.90225 33.8119 10.1044 34.2185 10.1044C34.6469 10.1044 34.9992 9.93899 35.3462 9.71883L35.6406 10.4996C35.3305 10.7428 34.9295 10.8607 34.5334 10.8971V11.631H33.715V10.8542C32.9877 10.6918 32.5687 10.1837 32.5687 9.55345C32.5689 8.72644 33.215 8.36638 33.7849 8.14532Z" fill="#1F466B"/>
<path d="M32.7227 61.0411H37.0693C37.4394 61.0411 37.7393 60.7545 37.7393 60.4009C37.7393 60.0474 37.4394 59.7608 37.0693 59.7608H32.7227C32.3526 59.7608 32.0527 60.0474 32.0527 60.4009C32.0527 60.7546 32.3526 61.0411 32.7227 61.0411Z" fill="#1F466B"/>
<path d="M34.1198 50.2031C34.3062 49.8224 34.7814 49.6578 35.1813 49.8352C35.581 50.0128 35.754 50.4651 35.5676 50.8458C35.3812 51.2265 34.906 51.3911 34.5062 51.2137C34.1064 51.0361 33.9334 50.5838 34.1198 50.2031Z" fill="#1F466B"/>
<path d="M36.749 54.3241L41.2996 46.6456C41.482 46.3379 41.3687 45.9474 41.0467 45.7733C40.7245 45.5987 40.3159 45.7074 40.1337 46.0149L35.8876 53.1793L32.183 51.5346L36.509 45.3861C36.7155 45.0928 36.6338 44.6951 36.3267 44.4979C36.0196 44.3009 35.6034 44.3786 35.397 44.6721L30.6336 51.4423C30.407 51.7641 30.5399 52.2167 30.9072 52.3798L35.8837 54.5893C36.3093 54.763 36.6265 54.5308 36.749 54.3241Z" fill="#1F466B"/>
<path d="M55.0987 33.7119C55.4823 33.7119 55.6571 34.2744 55.6571 34.797C55.6611 35.1248 55.5915 35.8731 55.0987 35.8731C54.603 35.8731 54.5496 35.1082 54.5496 34.7792C54.5496 34.4584 54.603 33.7119 55.0987 33.7119Z" fill="#1F466B"/>
<path d="M9.40169 56.8745H11.6351L11.6347 53.322C11.6347 52.9684 11.9346 52.6817 12.3045 52.6817C12.3047 52.6817 12.3047 52.6817 12.3047 52.6817C12.6746 52.6817 12.9747 52.9683 12.9747 53.3217L12.9751 56.8745H56.9512L56.9502 43.7895C56.9502 43.4361 57.2501 43.1494 57.6202 43.1494C57.9902 43.1494 58.2902 43.436 58.2902 43.7895L58.2912 56.8745H60.5234C60.8935 56.8745 61.1934 57.1611 61.1934 57.5146C61.1934 61.0201 58.2081 63.872 54.5387 63.872H15.3864C11.7169 63.872 8.73169 61.02 8.73169 57.5146C8.73169 57.1611 9.03158 56.8745 9.40169 56.8745ZM15.3864 62.5918H54.5387C57.2422 62.5918 59.4808 60.6532 59.8114 58.1546H10.1138C10.4442 60.6532 12.6828 62.5918 15.3864 62.5918Z" fill="#1F466B"/>
<path d="M14.1558 28.6376H24.691C25.9517 26.5391 27.3879 24.6374 28.871 23.1246C30.104 21.867 32.3974 19.856 33.907 20.5272C34.3937 20.7434 34.6679 21.1876 34.8162 21.6622C35.5481 23.9869 36.2513 26.3219 37.0142 28.6376H52.4068C53.7335 27.3877 55.5555 26.6144 57.5639 26.6144C61.6114 26.6144 64.9043 29.7527 64.9043 33.6104C64.9043 37.468 61.6114 40.6063 57.5639 40.6063C56.5026 40.6063 55.4941 40.3889 54.5824 40.0009L54.5575 53.691C54.5568 54.0442 54.2571 54.33 53.8875 54.33H53.8863C53.5162 54.3293 53.2168 54.0424 53.2175 53.6888L53.2436 39.2653C53.24 39.2627 53.238 39.2595 53.2357 39.2562C51.411 37.9822 50.2233 35.9265 50.2233 33.6104C50.2233 33.5973 50.2233 33.5843 50.2234 33.5711H40.7697C42.584 35.0723 44.677 35.9477 46.8235 36.9007C49.1269 37.9235 50.1647 40.6129 49.0845 42.8182C47.9956 45.0422 45.21 46.0083 42.8748 44.9713L40.1696 43.7701C37.379 42.5312 32.7554 41.9624 29.848 43.1552L22.8938 46.0085C22.3821 46.2181 21.7957 46.2956 21.2925 46.0223C20.8665 45.7909 20.6005 45.3723 20.4371 44.9429C19.7188 43.0575 20.1593 38.6234 22.2201 33.5711H16.6721V53.6899C16.6721 54.0434 16.3722 54.33 16.0021 54.33C15.632 54.33 15.3321 54.0435 15.3321 53.6899V32.9311C15.3321 32.5775 15.632 32.2909 16.0021 32.2909H22.7725C23.138 31.4862 23.5359 30.6971 23.9566 29.9177H14.1557C13.5039 29.9177 12.9737 30.4225 12.9737 31.0428L12.9742 34.41C12.9742 34.7635 12.6743 35.0502 12.3043 35.0502C11.9344 35.0502 11.6342 34.7637 11.6342 34.4102L11.6337 31.0429C11.6337 29.7166 12.7652 28.6376 14.1558 28.6376ZM61.6994 32.4255C61.6994 31.2243 60.997 30.3861 59.9911 30.3861C58.9724 30.3861 58.3396 31.1361 58.3396 32.3434C58.3396 33.7635 59.1928 34.3992 60.0382 34.3992C60.8568 34.3992 61.6879 33.7889 61.6994 32.4255ZM58.9564 36.8347H60.0279L56.1802 30.3861H55.1088L58.9564 36.8347ZM55.1173 36.7991C55.9361 36.7991 56.767 36.1916 56.7777 34.8343C56.7777 33.4191 55.92 32.7859 55.07 32.7859C54.0571 32.7859 53.428 33.536 53.428 34.7437C53.428 36.1636 54.2765 36.7991 55.1173 36.7991ZM50.3559 32.2909C50.5282 31.4344 50.8644 30.6331 51.333 29.9177H37.5863C38.0468 30.7374 38.6722 31.543 39.389 32.2909H50.3559ZM43.7356 37.635L43.0183 37.3165C42.6839 37.1684 42.2862 37.3061 42.1303 37.6253C41.9746 37.9446 42.1196 38.3237 42.4542 38.4723L43.1715 38.7908C43.5274 38.9487 43.9605 38.7718 44.0867 38.4174C44.195 38.1132 44.0402 37.7702 43.7356 37.635ZM43.4396 43.8103C45.1063 44.55 47.0941 43.8616 47.8708 42.2756C48.6402 40.7041 47.8994 38.79 46.2587 38.0616L45.41 37.6847C44.924 39.7742 43.9625 41.7372 42.594 43.4348L43.4396 43.8103ZM42.6998 40.6138C43.3982 40.6138 43.6138 39.6789 42.9823 39.3983L42.265 39.0798C41.9305 38.9312 41.5327 39.0696 41.377 39.3887C41.2213 39.7079 41.3663 40.087 41.7009 40.2357L42.4182 40.5541C42.5093 40.5946 42.6052 40.6138 42.6998 40.6138ZM40.6338 41.9643L41.3512 42.283C41.7073 42.4408 42.1402 42.2642 42.2665 41.9095C42.3749 41.6053 42.2201 41.2623 41.9154 41.127L41.198 40.8085C40.8636 40.6604 40.4659 40.798 40.3099 41.1173C40.1541 41.4364 40.2991 41.8157 40.6338 41.9643ZM29.3193 41.979C31.9466 40.901 35.575 41.0724 38.4763 41.8331C39.9631 40.0428 40.9901 37.9459 41.4747 35.7105C38.9982 34.0828 36.529 31.5468 35.7074 28.9376L34.6387 25.5429C34.0339 28.3163 32.6789 31.8017 31.1774 34.8676C29.9724 37.3283 27.9405 40.9084 25.8953 43.3839L29.3193 41.979ZM29.2636 34.7191L29.6766 34.9025C29.8695 34.5194 30.0581 34.1345 30.2425 33.7476L29.8279 33.5634C29.4936 33.4145 29.0959 33.5528 28.94 33.8721C28.7841 34.1914 28.9289 34.5706 29.2636 34.7191ZM21.6961 44.5051C21.8254 44.8444 21.9499 44.9078 21.9636 44.9139C22.1157 44.9824 23.0749 44.7625 24.9647 42.4456C26.2801 40.8328 27.6757 38.6705 28.9859 36.2299L27.8063 35.7062C26.6929 35.2118 26.2111 33.9516 26.7302 32.8914C27.2495 31.8313 28.573 31.3725 29.6864 31.8669L30.8664 32.3908C33.1876 27.1681 33.9783 23.1845 33.4972 21.9218C33.4459 21.7873 33.3878 21.6677 33.2219 21.6677C32.7956 21.6677 31.631 22.1818 29.849 23.9997C27.8454 26.0435 25.9236 28.8403 24.4374 31.8751C21.8134 37.233 20.9715 42.6028 21.6961 44.5051Z" fill="#1F466B"/>
<path d="M60.0197 31.312C60.4532 31.312 60.5687 31.9941 60.5687 32.3971C60.5766 32.7217 60.5175 33.4732 60.0197 33.4732C59.5247 33.4732 59.4712 32.7082 59.4712 32.3793C59.4712 31.9807 59.5425 31.312 60.0197 31.312Z" fill="#1F466B"/>
<path d="M12.304 37.8625C11.8241 37.8625 11.4351 37.4915 11.4351 37.0339C11.4351 36.5762 11.8241 36.2052 12.304 36.2052C12.7839 36.2052 13.1729 36.5762 13.1729 37.0339C13.1729 37.4915 12.7839 37.8625 12.304 37.8625Z" fill="#1F466B"/>
<path d="M10.0104 11.9987L14.5371 9.71649C14.7832 9.59233 14.7832 9.25569 14.5371 9.13166L10.0104 6.84942C9.7798 6.73319 9.50241 6.89281 9.50241 7.1419V11.7064C9.50241 11.9553 9.7798 12.115 10.0104 11.9987Z" fill="#1F466B"/>
<path d="M0.868845 10.6765C0.498737 10.6765 0.198845 10.3899 0.198845 10.0364V3.62102C0.198845 3.26749 0.498737 2.9809 0.868845 2.9809H22.6609C23.0308 2.9809 23.3307 3.26736 23.3309 3.62064L23.3398 20.3664C23.3401 20.7149 23.0347 21.0068 22.6698 21.0068H0.868845C0.498737 21.0068 0.198845 20.7202 0.198845 20.3666V15.9642C0.198845 15.6107 0.498737 15.3241 0.868845 15.3241C0.894974 15.3241 0.91963 15.3287 0.944956 15.3314C0.993464 15.2839 1.06113 15.2542 1.13617 15.2542H21.9972L21.9913 4.2609H1.53885V10.0363C1.53885 10.3899 1.23895 10.6765 0.868845 10.6765ZM4.5651 17.16H4.55424V17.1499C4.55424 16.7977 4.25502 16.5124 3.88585 16.5124C3.51668 16.5124 3.21746 16.7977 3.21746 17.1499V17.16H3.20674C2.83757 17.16 2.53835 17.4453 2.53835 17.7974C2.53835 18.1495 2.83757 18.4348 3.20674 18.4348H3.21746V18.4451C3.21746 18.7972 3.51668 19.0825 3.88585 19.0825C4.25502 19.0825 4.55424 18.7971 4.55424 18.4451V18.4348H4.5651C4.93427 18.4348 5.23349 18.1495 5.23349 17.7974C5.23349 17.4453 4.93427 17.16 4.5651 17.16ZM16.5821 17.16H14.4585C14.247 16.8707 13.8961 16.681 13.4983 16.681C13.1006 16.681 12.7497 16.8707 12.5382 17.16H6.98313C6.61396 17.16 6.31474 17.4453 6.31474 17.7974C6.31474 18.1495 6.61396 18.4348 6.98313 18.4348H12.5382C12.7497 18.7241 13.1006 18.9138 13.4983 18.9138C13.8961 18.9138 14.247 18.7241 14.4585 18.4348H16.582C16.9511 18.4348 17.2503 18.1495 17.2503 17.7974C17.2503 17.4453 16.9513 17.16 16.5821 17.16ZM20.301 17.16H18.9445C18.5753 17.16 18.2761 17.4453 18.2761 17.7974C18.2761 18.1495 18.5753 18.4348 18.9445 18.4348H20.301C20.6702 18.4348 20.9694 18.1495 20.9694 17.7974C20.9694 17.4453 20.6702 17.16 20.301 17.16Z" fill="#1F466B"/>
<path d="M0.868452 13.4791C0.388596 13.4791 -0.000405669 13.1081 -0.000405669 12.6504C-0.000405669 12.1927 0.388596 11.8217 0.868452 11.8217C1.34831 11.8217 1.7373 12.1927 1.7373 12.6504C1.7373 13.1081 1.34831 13.4791 0.868452 13.4791Z" fill="#1F466B"/>
<path d="M48.0965 23.5526H56.7715C57.1417 23.5526 57.4415 23.2661 57.4415 22.9125C57.4415 22.559 57.1417 22.2724 56.7715 22.2724H48.0965C47.5363 22.2724 47.0807 21.8386 47.0807 21.3054C47.0807 20.7666 47.5412 20.3282 48.1071 20.3282H50.0733C50.4147 20.3282 50.7047 20.0734 50.7424 19.7507C50.786 19.3761 50.4717 19.0378 50.0766 19.0378H47.1463C46.5861 19.0378 46.1305 18.604 46.1305 18.0708C46.1305 17.532 46.591 17.0936 47.1569 17.0936H49.4866C49.8464 17.0936 50.1482 16.8095 50.1608 16.4672C50.1739 16.1109 49.8663 15.8031 49.4925 15.8031H46.1963C45.636 15.8031 45.1803 15.3694 45.1803 14.8361C45.1803 14.2975 45.6408 13.8591 46.2069 13.8591H49.2809C49.6511 13.8591 49.9509 13.5725 49.9509 13.219C49.9509 12.8654 49.6511 12.5683 49.2809 12.5683H45.2461C44.6858 12.5683 44.2302 12.1347 44.2302 11.6014C44.2286 11.0682 44.6935 10.6241 45.2514 10.6241L53.9848 10.6074C54.7758 10.6046 55.339 9.81479 55.0491 9.11002C54.7429 8.36826 54.3546 7.28884 54.2347 6.76596C53.8676 5.1657 54.3847 3.36449 55.6232 1.85549C56.2905 4.34663 57.1059 6.39501 58.0519 7.95418C58.2375 8.25985 58.6469 8.36404 58.9677 8.18701C59.2878 8.00973 59.3969 7.61805 59.2113 7.31213C58.2146 5.66977 57.3652 3.41709 56.6866 0.616966C56.4916 -0.187386 55.4066 0.148742 55.0044 0.572806C53.2081 2.46605 52.431 4.88385 52.9257 7.04052C53.0522 7.59233 53.3935 8.55937 53.7003 9.32813L45.25 9.34439C43.962 9.34439 42.8861 10.3727 42.8901 11.6037C42.8901 12.4881 43.4304 13.2556 44.2131 13.621C43.977 13.972 43.8401 14.3891 43.8401 14.8361C43.8401 15.722 44.3804 16.4897 45.1633 16.8556C44.9272 17.2065 44.7903 17.6237 44.7903 18.0707C44.7903 18.9567 45.3306 19.7244 46.1133 20.0902C45.8773 20.4412 45.7405 20.8582 45.7405 21.3052C45.7407 22.5446 46.7974 23.5526 48.0965 23.5526Z" fill="#1F466B"/>
<path d="M61.1756 9.21857H66.33C66.7001 9.21857 67 9.50516 67 9.8587V22.5759C67 22.9294 66.7001 23.216 66.33 23.216H61.1756C60.8054 23.216 60.5056 22.9294 60.5056 22.5759V9.85857C60.5056 9.50503 60.8054 9.21857 61.1756 9.21857ZM64.703 19.2902C64.703 18.79 64.2775 18.3845 63.7529 18.3845C63.2282 18.3845 62.8027 18.79 62.8027 19.2902C62.8027 19.7905 63.2282 20.196 63.7529 20.196C64.2775 20.196 64.703 19.7905 64.703 19.2902Z" fill="#1F466B"/>
</g>
<defs>
<clipPath id="clip0_200_4828">
<rect width="67" height="64" fill="white" transform="matrix(-1 0 0 1 67 0)"/>
</clipPath>
</defs>
</svg>
