<svg width="214" height="127" viewBox="0 0 214 127" fill="none" xmlns="http://www.w3.org/2000/svg">
<g clip-path="url(#clip0_201_4960)">
<path d="M96.8971 41.1216V40.5309C104.298 31.1706 90.4948 20.947 84.0472 31.1706C83.7293 31.5341 83.3661 31.4887 83.4115 31.0343C84.4104 27.8082 86.1812 24.6275 88.6786 22.3556C97.2604 14.6765 107.386 16.0397 107.613 1.36312L107.885 0.0454102C108.567 2.09013 109.338 4.13486 109.793 6.22502C111.79 15.0855 111.291 23.4916 106.523 31.3524C104.208 35.0783 100.711 38.8497 96.8971 41.1216Z" fill="#518E41"/>
<path d="M96.8971 41.1215C94.8993 43.5751 86.9986 45.8016 83.8655 45.529C83.139 45.4836 82.2763 45.4836 82.1855 44.7565C81.686 40.8943 82.3217 34.7147 83.4569 31.0342L83.6839 31.1705C90.2678 20.2199 105.297 30.8524 96.8971 41.1215Z" fill="#71BB45"/>
<path d="M78.4167 44.8474C78.4621 41.6213 78.553 38.4406 78.5984 35.2145C78.6892 30.5798 78.7346 25.6724 76.5551 21.583C75.0113 18.6295 72.4231 16.3576 69.6079 14.5855C66.6565 12.768 63.3418 11.4048 59.8455 11.3594C59.6185 11.3594 59.3461 11.3594 59.1645 11.5411C58.9374 11.7229 58.9374 12.0864 58.9374 12.359C58.8466 22.5372 58.7558 32.7608 58.665 42.939C58.665 43.5297 58.665 44.1658 58.892 44.7111C59.4823 46.1197 61.344 46.0742 62.5245 45.5744C62.2067 43.9841 62.2521 42.3028 62.6153 40.6671C63.478 40.8943 64.25 40.0309 64.4316 39.1676C64.6132 38.3043 64.3862 37.3955 64.477 36.5322C64.6586 35.2145 65.4759 34.124 66.3387 33.0789C69.1084 29.6256 71.8782 26.1723 74.648 22.7189C74.7388 25.1726 74.8296 27.6717 74.8296 30.1254C74.8296 31.2613 74.7842 32.4427 74.3302 33.4878C73.5583 35.1236 71.7874 36.1232 70.9701 37.7136C70.6523 38.3497 70.6068 39.213 71.1971 39.5765C71.8328 39.9855 72.6955 39.3948 73.422 39.5311C74.5572 39.7129 74.875 41.2123 74.875 42.3937C74.875 43.257 74.875 44.0749 74.875 44.9383C74.875 45.1655 74.875 45.3926 75.0567 45.529C75.1929 45.6198 75.3291 45.6653 75.5107 45.6653C76.2826 45.7562 77.0545 45.7562 77.8264 45.7107C78.0081 45.7107 78.1897 45.6653 78.3259 45.5744C78.5075 45.4381 78.5529 45.12 78.5529 44.8928C78.4167 44.8474 78.4167 44.8474 78.4167 44.8474ZM59.9818 45.529C59.9818 45.529 59.9364 45.529 59.9364 45.4835C60.0726 45.529 60.2088 45.529 60.345 45.529C60.1634 45.5744 60.0272 45.5744 59.9818 45.529Z" fill="#24466B"/>
<path d="M106.932 48.7098V48.6644C89.0872 48.7552 71.2425 48.8916 53.3979 48.528C44.3166 48.3463 34.9629 48.1191 26.3357 50.9817C15.3474 54.7077 6.2661 63.6136 2.27034 74.5187C-1.72541 85.4239 -0.454037 98.1012 5.5396 108.052C14.53 123.001 32.8288 130.226 49.5837 125.637C53.3525 124.592 56.9396 123.047 60.2088 120.957C68.0187 115.958 73.9215 108.052 76.5551 99.1917C79.0524 90.6948 78.553 81.6071 78.0535 72.7467C71.5604 72.7921 65.1127 72.8375 58.6196 72.883C57.9839 79.5624 59.7547 86.469 58.0747 92.9667C55.8498 101.6 47.0864 108.098 38.1867 107.689C29.2871 107.28 21.1594 99.9642 19.7972 91.1492C18.435 82.3341 23.9746 72.9284 32.3293 69.7932C36.7791 68.1574 41.683 68.1574 46.4507 68.2483C58.6196 68.3846 70.7431 68.5209 82.912 68.7026C86.9985 68.7481 91.2667 68.7935 95.0809 67.2941C102.21 64.3406 106.478 56.4343 106.932 48.7098ZM77.5994 72.883C77.327 72.8375 77.0091 72.8375 76.7367 72.7921C77.0546 72.7921 77.3724 72.8375 77.5994 72.883ZM29.9228 70.3839C29.9682 70.3384 30.0136 70.293 30.059 70.2475L30.1044 70.293C30.0136 70.3839 29.9682 70.3839 29.9228 70.3839ZM90.3586 68.0665C90.2678 68.0665 90.2224 68.0665 90.1316 68.0665H90.0862C90.177 68.0665 90.2678 68.0665 90.404 68.0665C90.404 68.0665 90.404 68.0665 90.3586 68.0665ZM90.2224 67.8848H90.9035C90.631 67.8848 90.404 67.8848 90.2224 67.8848Z" fill="#24466B"/>
<path d="M189.844 88.0596C190.071 88.0596 190.979 88.7866 191.433 88.7866H194.702V81.88H192.568V86.7419C192.568 87.1963 190.253 87.1508 190.253 86.3784V82.5616H187.982V86.5601C187.982 86.9236 185.939 87.4235 185.667 86.1966C185.53 85.5605 185.894 82.8342 185.439 82.607C185.167 82.4252 183.805 82.6979 183.351 82.5616V86.5601C183.351 86.9691 180.399 87.6052 179.809 86.1057C179.809 86.1057 179.809 86.1057 179.809 86.0603C179.809 85.924 179.764 85.7422 179.764 85.6059V85.5605V85.515C179.764 84.3791 180.036 82.6979 179.809 82.0163C179.673 81.6528 178.084 81.9254 177.675 81.8345V86.3329C177.675 87.1963 175.359 87.1963 175.359 85.9694V82.5161H173.225V86.3329C173.225 87.0599 171.545 87.0599 171.136 86.7419C171.091 86.6964 170.728 86.0149 170.728 85.9694V82.5161H168.594V86.3329C168.594 87.2417 165.052 87.0599 165.052 86.6964V81.1984C165.052 81.1984 164.825 80.9258 164.78 80.9258H161.601C161.465 80.9258 160.239 81.3802 160.012 81.471C157.515 82.9251 157.969 87.2417 161.238 87.4689C161.737 87.5143 162.691 87.2871 162.827 87.3326C163.009 87.378 163.417 88.2868 164.189 88.5594C165.007 88.832 167.322 88.832 168.276 88.7412C168.957 88.6957 170.183 88.0141 170.319 88.0141C170.501 88.0141 171.772 88.6957 172.635 88.7412C173.634 88.7866 174.951 88.0142 175.087 88.0596C175.813 88.1505 176.313 88.9684 177.947 88.7412C178.583 88.6503 179.128 88.105 179.4 88.0596C179.673 88.0142 179.855 88.4231 180.127 88.514C180.899 88.832 182.216 88.7866 183.078 88.6957C183.669 88.6503 185.076 88.0142 185.212 88.0596C185.485 88.105 185.757 88.4231 186.166 88.5594C187.12 88.832 187.982 88.8775 188.936 88.5594C189.254 88.4685 189.571 88.0596 189.844 88.0596ZM162.827 85.4242C162.101 86.5601 159.83 85.197 160.829 83.5158C161.193 82.9251 162.237 82.7433 162.827 82.9251V85.4242Z" fill="white"/>
<path d="M207.189 83.7881C206.826 84.5605 206.599 86.0146 206.281 86.5144C205.918 87.0596 204.192 87.2414 203.874 86.8324C203.557 86.4235 203.602 84.4242 203.33 83.6518C202.194 80.3348 197.245 81.1527 196.882 84.606C196.746 85.8782 196.836 87.196 197.881 88.0593C198.607 88.6954 198.789 88.4682 199.561 88.6045C199.561 88.6045 199.515 88.7408 199.833 88.7863C200.287 88.8317 200.741 88.7863 201.15 88.7863C201.831 89.4224 200.333 90.2858 199.652 90.3766C197.699 90.6038 197.472 89.6951 197.608 92.5122C199.561 92.5577 202.285 92.4668 203.193 90.3766C203.33 90.0586 203.557 88.8317 203.738 88.7863C204.601 88.7408 205.509 88.8772 206.326 88.7863C206.78 88.7408 207.598 88.2865 207.734 88.3319C207.961 88.3319 208.597 88.7863 208.96 88.8772C211.049 89.4679 213.046 89.1498 213.818 86.8779C215.317 82.1977 209.414 79.2442 207.189 83.7881ZM201.014 87.0142C199.152 87.3777 198.471 85.7874 199.152 84.2425C199.425 83.5609 200.605 83.4246 201.059 83.879C201.513 84.2879 201.786 86.8324 201.014 87.0142ZM210.05 87.1959C209.732 87.1959 208.687 86.787 208.551 86.6053C208.279 86.1509 208.915 84.5605 209.323 84.1516C211.593 81.7888 213.228 87.3777 210.05 87.1959Z" fill="white"/>
<path d="M209.051 97.3743C208.915 96.8745 206.962 97.0108 206.962 97.3289V107.007H204.056C203.602 106.689 203.874 106.053 203.738 105.553C203.239 103.145 201.604 101.691 199.061 101.691C198.744 101.691 196.746 102.009 196.7 102.1C196.564 102.236 196.746 103.69 196.7 104.008C199.334 103.418 201.831 103.827 201.65 107.007H195.202C195.111 107.007 194.385 106.098 194.248 105.962L191.933 101.736C191.615 101.509 190.162 102.645 189.844 102.872L190.57 103.827C190.843 104.508 192.16 106.189 192.16 106.598C192.16 106.78 191.978 107.053 191.887 107.053H188.164C187.846 107.053 187.801 108.552 187.891 108.825C187.982 109.097 188.118 109.007 188.345 109.007C189.344 109.143 190.843 109.007 191.796 108.825C192.25 108.734 193.204 108.325 193.295 108.325C193.34 108.325 193.794 108.688 194.248 108.825C194.385 108.87 194.612 109.097 194.839 109.007H209.005C209.187 108.961 209.096 108.643 209.096 108.461C209.369 104.917 208.869 100.964 209.051 97.3743ZM208.279 108.825H206.917C207.416 108.825 207.916 108.779 208.415 108.779L208.279 108.825Z" fill="white"/>
<path d="M107.386 108.961L111.291 109.006C111.473 109.006 111.382 108.779 111.382 108.643C111.563 107.189 111.473 104.326 111.382 102.781C111.427 102.645 111.427 102.554 111.382 102.463C111.382 102.327 111.382 102.191 111.382 102.054H109.248V107.007H92.2203V101.146H88.7694C88.6786 101.146 87.8159 101.418 87.6797 101.464C84.6374 102.645 85.0461 107.598 88.6332 107.734C89.0873 107.734 89.6775 107.461 89.9954 107.552C90.6311 107.734 90.2224 108.643 92.0841 108.779C95.3079 109.006 99.2583 109.052 103.118 109.006C104.525 109.006 105.978 108.961 107.386 108.961ZM88.724 105.962C88.5424 105.871 87.9067 105.462 87.8613 105.326C87.3618 103.781 88.6332 102.418 89.95 103.327C89.8138 104.599 90.6765 106.235 88.724 105.962Z" fill="white"/>
<path d="M144.029 97.2831V108.961H146.345V97.374C146.345 96.8742 144.029 97.1468 144.029 97.2831Z" fill="white"/>
<path d="M127.728 88.7863H133.222V87.0142C130.135 87.7866 128.818 84.5605 132.496 84.8786V83.1065C131.088 82.7884 129.499 82.7884 128.727 84.197C128.182 85.2421 128.636 86.0145 128.409 86.6961C128.273 87.0596 127.773 86.8779 127.728 87.105C127.592 87.514 127.819 88.3319 127.728 88.7863Z" fill="white"/>
<path d="M198.244 80.1074H202.149C202.104 79.8802 202.194 78.926 202.149 78.8806C202.013 78.7443 199.969 79.1987 200.287 77.9718C200.469 77.1085 201.649 77.7901 201.786 77.6083C201.876 76.4269 201.876 76.1543 200.651 76.1543C199.833 76.1543 199.152 76.6996 198.97 77.5174C198.925 77.8355 199.016 78.2899 198.925 78.5625C198.789 78.926 198.289 78.7443 198.244 78.9715C198.153 79.2441 198.335 79.7439 198.244 80.1074Z" fill="white"/>
<path d="M211.185 97.3741V108.961H213.319V97.3741C213.319 96.9651 211.185 96.9651 211.185 97.3741Z" fill="white"/>
<path d="M121.19 77.0635H119.055V88.7411H121.19V77.0635Z" fill="white"/>
<path d="M126.275 110.415C124.867 110.688 125.503 112.869 126.729 112.642C127.955 112.46 127.864 110.097 126.275 110.415Z" fill="white"/>
<path d="M87.9521 97.1469C86.6807 97.2832 86.4991 99.5097 88.0883 99.4188C89.6321 99.3279 89.0872 97.0106 87.9521 97.1469Z" fill="white"/>
<path d="M107.84 110.415C106.387 110.642 106.75 112.733 107.976 112.687C109.384 112.642 109.248 110.188 107.84 110.415Z" fill="white"/>
<path d="M95.2625 90.2402C93.8095 90.4674 94.1728 92.5576 95.3987 92.5121C96.8063 92.4212 96.5793 90.013 95.2625 90.2402Z" fill="white"/>
<path d="M178.946 99.3278C178.992 100.282 180.263 100.6 180.853 99.8731C182.079 98.3736 178.765 97.0559 178.946 99.3278Z" fill="white"/>
<path d="M133.949 100.237C135.175 99.8733 134.721 97.7377 133.177 98.2375C131.996 98.5556 132.496 100.691 133.949 100.237Z" fill="white"/>
<path d="M108.975 80.017C110.247 79.6081 109.611 77.6088 108.203 78.0177C107.023 78.3358 107.386 80.5168 108.975 80.017Z" fill="white"/>
<path d="M154.018 99.2828C155.698 100.01 156.289 96.8746 154.109 97.3289C153.11 97.5107 153.156 98.9193 154.018 99.2828Z" fill="white"/>
<path d="M135.992 98.1922C134.993 98.4194 135.084 99.7825 135.901 100.146C137.627 100.873 138.172 97.7378 135.992 98.1922Z" fill="white"/>
<path d="M90.4494 97.3288C89.178 97.6015 89.7229 99.5553 90.9035 99.3735C92.3565 99.1464 92.2203 96.9199 90.4494 97.3288Z" fill="white"/>
<path d="M160.466 79.1536C162.282 79.6988 162.418 76.7908 160.648 77.1089C159.649 77.2906 159.512 78.881 160.466 79.1536Z" fill="white"/>
<path d="M87.5434 79.9712C89.4051 80.8345 89.7229 77.6539 87.8159 78.0174C86.8623 78.1537 86.6807 79.5623 87.5434 79.9712Z" fill="white"/>
<path d="M150.658 79.8807C151.975 80.9258 153.156 78.6539 151.839 78.0632C150.658 77.5179 149.659 79.0628 150.658 79.8807Z" fill="white"/>
<path d="M178.356 95.8746C177.039 96.1472 177.402 98.1919 178.81 97.9193C180.172 97.7376 179.854 95.602 178.356 95.8746Z" fill="white"/>
<path d="M111.79 78.063C110.474 77.4723 109.929 79.1989 110.61 79.8805C111.654 80.971 113.198 78.6991 111.79 78.063Z" fill="white"/>
<path d="M116.921 77.0632C116.24 77.1541 115.332 76.836 114.787 77.245C114.651 78.3809 115.014 86.6507 114.606 86.9233C114.242 87.1505 111.881 87.0596 111.473 86.6507C110.791 85.9691 111.563 82.6521 111.155 82.016C110.928 81.6525 109.429 81.9251 108.93 81.8342V86.5144C108.93 86.9688 106.251 87.4686 105.797 86.06C105.661 85.6511 105.797 84.8332 105.661 84.2425C104.889 80.8346 100.62 80.5165 99.0766 83.5609C98.3047 85.0149 98.5772 87.4686 96.1706 86.8779C95.6257 86.7416 95.4441 86.4689 95.1263 86.06V81.7888C94.9901 81.7888 94.8992 81.7888 94.763 81.7888C94.309 81.7434 93.8095 81.7888 93.3554 81.7888C93.2192 81.7888 93.1284 81.7888 92.9922 81.7888V86.3781C92.856 86.4235 92.7651 86.787 92.3565 86.8779C91.4484 87.0596 89.0872 87.0596 89.0872 85.7419V81.7434H86.9531V89.0589C86.9531 89.2861 86.5899 90.0586 86.3629 90.2403C85.9088 90.513 85.5001 90.3312 85.1369 90.4221C84.592 90.6038 84.9098 92.0124 84.8644 92.5122C87.498 92.7394 89.3143 91.3763 89.1326 88.6045H90.0408C91.0851 88.8772 92.9014 88.9226 93.9457 88.6045C94.2636 88.5137 94.5814 88.1502 94.763 88.1047C94.9446 88.0593 95.7166 88.7409 96.3068 88.7863C97.5328 88.9226 99.3945 88.241 99.6215 88.2865C100.393 88.3774 101.075 89.1952 102.482 89.1498C103.799 89.1044 105.116 87.8775 105.297 87.923C105.524 87.9684 105.888 88.6954 106.659 88.7863C107.204 88.8772 108.612 88.8772 109.157 88.7863C109.565 88.7409 110.746 88.1047 110.837 88.1047C110.928 88.1047 111.609 88.7409 112.154 88.7863H116.921V77.0632ZM103.572 86.1509C103.254 87.6503 100.53 87.2414 100.393 86.3781C100.257 85.5602 101.075 83.879 101.937 83.6518C103.481 83.3337 103.844 85.0149 103.572 86.1509ZM116.74 77.2904C116.74 77.245 116.74 77.245 116.74 77.2904V77.2904Z" fill="white"/>
<path d="M141.532 97.2834C141.214 96.9653 139.579 97.0562 139.579 97.3742V107.053H136.673C136.628 107.053 136.219 106.507 136.219 106.416V102.054C135.674 102.145 134.312 101.873 133.994 102.236C133.767 102.509 134.04 105.871 133.903 106.598C133.858 106.735 133.767 107.053 133.631 107.053H130.952C130.498 106.644 130.77 105.917 130.589 105.281C130.089 103.054 128.228 101.736 126.003 101.736C125.685 101.736 123.732 102.009 123.641 102.1C123.505 102.236 123.687 103.69 123.641 104.054C125.276 103.826 127.365 103.372 128.273 105.19C128.409 105.508 128.954 107.098 128.5 107.098H121.507C121.598 106.871 121.326 106.553 121.326 106.462V97.3288C120.599 97.1016 120.236 97.0562 119.555 97.3288C119.464 97.3742 119.237 97.2379 119.192 97.4197V107.053C119.6 108.416 119.873 108.552 121.144 108.825C123.324 109.234 131.769 109.325 134.085 109.006C134.811 108.916 135.402 108.325 136.037 108.279C136.128 108.643 136.946 109.006 137.173 109.006H141.713C141.532 107.507 142.031 97.7832 141.532 97.2834ZM141.486 108.507C141.486 108.189 141.532 107.825 141.532 107.462V108.143C141.577 108.279 141.532 108.416 141.486 108.507Z" fill="white"/>
<path d="M152.338 81.8799C152.202 81.8799 152.111 81.8799 151.975 81.8799C151.385 81.8345 150.794 81.8799 150.204 81.8799V86.7418C150.204 87.1508 148.025 87.1508 147.571 86.7418C147.071 86.2874 147.253 84.788 146.98 83.9701C146.345 81.9254 144.12 81.0166 142.167 81.9254C139.897 82.9705 140.169 86.1966 139.125 86.8327C138.671 87.1508 137.127 87.1053 137.127 86.5601V77.0635H134.811V86.7418C134.811 87.8323 135.947 88.6502 136.946 88.7865C137.536 88.8774 139.261 88.8774 139.761 88.7865C140.124 88.7411 140.623 88.2867 140.896 88.2867C141.123 88.2867 141.849 88.7866 142.258 88.8774C143.439 89.1955 144.347 89.3318 145.436 88.6957C145.891 88.4685 146.345 87.8323 146.753 87.8778C146.889 87.9232 146.935 88.2867 147.117 88.423C147.344 88.6048 147.571 88.5139 147.752 88.6048C149.205 89.0137 150.84 88.6502 152.338 88.7865V81.8799ZM141.759 86.1966C141.713 84.9697 143.166 82.7433 144.528 83.8338C144.801 84.061 145.119 85.1061 145.119 85.4696C145.073 87.9232 141.804 87.2416 141.759 86.1966Z" fill="white"/>
<path d="M114.969 102.236C114.696 102.509 115.378 108.825 114.696 110.006C114.242 110.778 112.926 110.46 112.835 110.551C112.744 110.642 112.789 112.46 113.016 112.596C113.788 113.141 116.24 112.096 116.558 110.915C116.785 110.778 117.103 109.915 117.103 109.779V102.054C116.422 102.145 115.514 101.873 114.969 102.236Z" fill="white"/>
<path d="M182.079 110.551C181.035 111.187 181.943 113.278 183.215 112.323C184.577 111.324 183.124 109.915 182.079 110.551Z" fill="white"/>
<path d="M185.258 110.415C183.396 110.778 185.076 113.823 186.257 112.142C186.892 111.278 186.302 110.233 185.258 110.415Z" fill="white"/>
<path d="M163.781 79.1987C165.234 79.0624 164.961 76.8359 163.508 77.1086C162.146 77.3358 162.418 79.335 163.781 79.1987Z" fill="white"/>
<path d="M92.5381 92.4667C94.0365 92.4667 93.8549 89.9676 92.4019 90.1948C91.1759 90.422 91.3121 92.4667 92.5381 92.4667Z" fill="white"/>
<path d="M158.105 97.8284C157.605 96.7379 155.517 97.3286 156.425 98.8735C157.106 100.009 158.695 99.1007 158.105 97.8284Z" fill="white"/>
<path d="M109.747 111.824C110.156 113.232 112.244 112.596 111.609 111.097C111.018 109.688 109.338 110.551 109.747 111.824Z" fill="white"/>
<path d="M186.075 108.779C186.121 108.779 186.166 108.779 186.166 108.779C186.348 106.553 186.348 104.326 186.075 102.145C185.439 102.145 184.804 102.145 184.123 102.145C184.077 103.736 183.986 105.326 183.941 106.916C182.942 106.962 181.943 107.007 180.944 107.053C180.672 107.053 180.399 107.053 180.172 106.916C179.945 106.735 179.9 106.371 179.854 106.053C179.764 104.735 179.718 103.463 179.627 102.145C178.992 102.145 178.401 102.145 177.766 102.145C177.72 103.418 177.63 104.644 177.584 105.917C177.584 106.189 177.539 106.507 177.357 106.644C177.176 106.78 176.903 106.825 176.676 106.825C170.682 106.871 164.689 106.916 158.741 106.962C158.65 105.417 158.559 103.872 158.468 102.282C158.468 101.964 158.423 101.645 158.196 101.418C158.014 101.237 157.787 101.191 157.56 101.146C156.062 100.782 154.336 101.1 153.246 102.191C151.657 103.736 151.748 107.28 154.382 107.552C155.108 107.643 155.835 107.552 156.516 107.825C157.106 108.052 157.56 108.552 158.15 108.825C158.831 109.143 159.649 109.143 160.375 109.143C169.002 109.052 177.539 108.916 186.075 108.779ZM156.425 105.599C154.972 106.644 153.519 105.099 154.382 103.645C154.745 103.054 155.789 102.918 156.425 103.1V105.599Z" fill="white"/>
<path d="M176.358 99.9187C177.175 100.873 178.719 99.7824 178.038 98.6919C178.038 98.6919 177.72 98.3738 177.675 98.3284C176.585 97.5559 175.586 99.0099 176.358 99.9187Z" fill="white"/>
</g>
<defs>
<clipPath id="clip0_201_4960">
<rect width="214" height="127" fill="white"/>
</clipPath>
</defs>
</svg>
