<svg width="51" height="51" viewBox="0 0 51 51" fill="none" xmlns="http://www.w3.org/2000/svg">
<path d="M9.809 42.5C8.83008 42.5 8.01338 42.1727 7.35888 41.5182C6.70438 40.8638 6.37642 40.0463 6.375 39.066V11.934C6.375 10.9551 6.70296 10.1384 7.35888 9.48387C8.01479 8.82937 8.83079 8.50142 9.80687 8.5H19.533C20.5105 8.5 21.3272 8.82796 21.9831 9.48387C22.639 10.1398 22.967 10.9565 22.967 11.934V39.0681C22.967 40.0456 22.639 40.8623 21.9831 41.5182C21.3272 42.1742 20.5105 42.5014 19.533 42.5H9.809ZM31.467 42.5C30.4895 42.5 29.6728 42.1727 29.0169 41.5182C28.361 40.8638 28.033 40.047 28.033 39.0681V11.9319C28.033 10.9544 28.361 10.1384 29.0169 9.48387C29.6728 8.82937 30.4895 8.50142 31.467 8.5H41.1931C42.1706 8.5 42.9866 8.82796 43.6411 9.48387C44.2956 10.1398 44.6236 10.9565 44.625 11.934V39.0681C44.625 40.0456 44.297 40.8623 43.6411 41.5182C42.9852 42.1742 42.1692 42.5014 41.1931 42.5H31.467ZM9.809 40.375H19.533C19.9155 40.375 20.2293 40.2525 20.4744 40.0074C20.7195 39.7623 20.842 39.4492 20.842 39.0681V11.9319C20.842 11.5508 20.7188 11.2377 20.4722 10.9926C20.2286 10.7475 19.9155 10.625 19.533 10.625H9.809C9.4265 10.625 9.11271 10.7475 8.86762 10.9926C8.62254 11.2377 8.5 11.5515 8.5 11.934V39.0681C8.5 39.4492 8.62254 39.7623 8.86762 40.0074C9.11271 40.2525 9.4265 40.375 9.809 40.375ZM31.467 40.375H41.1931C41.5742 40.375 41.8873 40.2525 42.1324 40.0074C42.3775 39.7623 42.5 39.4492 42.5 39.0681V11.9319C42.5 11.5508 42.3775 11.2377 42.1324 10.9926C41.8873 10.7475 41.5742 10.625 41.1931 10.625H31.467C31.0845 10.625 30.7707 10.7475 30.5256 10.9926C30.2805 11.2377 30.158 11.5515 30.158 11.934V39.0681C30.158 39.4492 30.2805 39.7623 30.5256 40.0074C30.7707 40.2525 31.0845 40.375 31.467 40.375ZM11.4431 30.5681H17.8181V28.4431H11.4431V30.5681ZM33.1819 30.5681H39.5569V28.4431H33.1819V30.5681ZM11.4431 24.6011H17.8181V22.4761H11.4431V24.6011ZM33.1819 24.6011H39.5569V22.4761H33.1819V24.6011ZM11.4453 18.5938H17.8202V16.4688H11.4453V18.5938ZM33.184 18.5938H39.559V16.4688H33.184V18.5938ZM9.809 40.375H8.5H20.842H9.809ZM31.4691 40.375H30.1601H42.5H31.4691Z" fill="black"/>
</svg>
