<svg width="501" height="500" viewBox="0 0 501 500" fill="none" xmlns="http://www.w3.org/2000/svg">
<mask id="mask0_1_52" style="mask-type:luminance" maskUnits="userSpaceOnUse" x="0" y="0" width="501" height="500">
<path d="M500.3 0H0.300003V500H500.3V0Z" fill="white"/>
</mask>
<g mask="url(#mask0_1_52)">
<path d="M405.3 409.8C402.3 411.4 399.1 412.8 395.9 413.9C379.3 419.6 354.5 419.1 340.7 406.8C318.3 386.8 344.1 363.6 361.7 352.3C372.8 345.2 383.7 337.1 396.3 333.4C409 329.7 424.3 331.4 432.9 341.4C442.4 352.6 440.2 370 433 382.8C426.8 394.2 416.9 403.7 405.3 409.8Z" fill="#DBE0FC"/>
<path d="M52.8 347.1C47.4 329.6 46.2 311.1 50.8 293.1C60 257.1 86.4 235.1 117.1 217C150.8 197.2 190.9 190.7 222.2 165.5C251.9 141.6 270.6 105.7 301.5 83.3C333 60.5 380 50.8 414 73.7C435.8 88.4 449.7 113.5 452.3 139.6C454.8 164.2 444.5 193.6 426.9 211.4C412.1 226.3 389.9 234 369.9 238.7C330.1 248.1 274.8 245.8 259.1 290.7C254 305.3 255.2 321.3 254.1 336.7C252.4 362.4 244.1 388.2 227.5 408C210.9 427.8 185.5 440.8 159.7 439.2C143.2 438.2 127.5 431.6 113.4 423C85.4 405.9 62.4 378 52.8 347.1Z" fill="#DBE0FC"/>
</g>
<mask id="mask1_1_52" style="mask-type:luminance" maskUnits="userSpaceOnUse" x="0" y="0" width="501" height="500">
<path d="M500.3 0H0.300003V500H500.3V0Z" fill="white"/>
</mask>
<g mask="url(#mask1_1_52)">
<path fill-rule="evenodd" clip-rule="evenodd" d="M392.9 164C392.2 163.7 391.7 163.1 391.4 162.4C390.4 160 390.7 157.3 391.2 154.7C391.2 154.5 391.3 154.2 391.5 154.1C392.7 152.7 394.1 151.9 395.1 150.3C395.8 149.3 396.3 148.1 396.6 147C396.9 146.1 396.7 144 397.2 143.3C398.7 141.1 400 145.6 400.1 146.6C400.2 147.6 399.9 148.6 399.7 149.6C399.6 150.3 399.4 151.1 399.3 151.8C399.5 151.9 399.7 151.9 399.9 151.9C402.1 151.9 404.4 151.9 406.6 151.9C407.5 151.9 408 152.2 408.1 152.8C408.3 153.6 407.9 154.4 407.1 154.7C406.9 154.8 406.6 154.7 406.6 155C406.6 155.3 406.9 155.2 407 155.3C407.8 155.9 407.7 157 406.7 157.7C406.5 157.9 406 157.8 406 158.1C406 158.4 406.4 158.4 406.6 158.5C407.3 159.1 406.9 160.4 406 160.8C405.9 160.9 405.7 160.9 405.6 161C405.5 161.1 405.4 161.2 405.6 161.3C406.6 162 406.6 163 405.6 163.7C405.5 163.8 405.4 163.8 405.3 163.9C404.9 164.2 404.5 164.2 404.1 164.2C400.6 164.2 397.1 164.2 393.5 164.2C393.5 164.2 393.2 164.2 392.9 164Z" fill="#1F466B"/>
<path fill-rule="evenodd" clip-rule="evenodd" d="M385.3 159.2C385.3 157.5 385.3 155.8 385.3 154.1C385.3 153.8 385.3 153.6 385.6 153.6C387 153.6 388.4 153.6 389.8 153.6C390.1 153.6 390.1 153.7 390.1 154.1C390.1 157.5 390.1 160.9 390.1 164.3C390.1 164.7 390 164.9 389.7 164.8C388.4 164.8 387 164.8 385.7 164.8C385.4 164.8 385.3 164.6 385.3 164.2C385.3 162.6 385.3 160.9 385.3 159.2Z" fill="#1F466B"/>
<path fill-rule="evenodd" clip-rule="evenodd" d="M136.6 146C136.1 145.7 135.6 145.2 135.4 144.7C134.6 142.8 134.8 140.6 135.3 138.5C135.3 138.3 135.4 138.1 135.5 138C136.4 136.9 137.6 136.2 138.4 134.9C138.9 134.1 139.3 133.2 139.6 132.2C139.8 131.4 139.7 129.8 140.1 129.2C141.3 127.4 142.4 131.1 142.5 131.9C142.6 132.7 142.3 133.5 142.2 134.3C142.1 134.9 142 135.5 141.9 136.1C142 136.2 142.2 136.1 142.4 136.2C144.2 136.2 146 136.2 147.8 136.2C148.6 136.2 148.9 136.4 149 136.9C149.1 137.5 148.8 138.2 148.2 138.5C148.1 138.6 147.8 138.5 147.8 138.7C147.8 138.9 148 138.9 148.2 139C148.9 139.4 148.7 140.4 148 140.9C147.8 141 147.5 141 147.5 141.2C147.5 141.4 147.8 141.4 148 141.6C148.5 142.1 148.3 143.1 147.5 143.5C147.4 143.6 147.3 143.6 147.2 143.6C147.1 143.7 147 143.7 147.2 143.9C148 144.5 148 145.2 147.2 145.8C147.1 145.9 147 145.9 147 146C146.7 146.2 146.4 146.2 146 146.2C143.2 146.2 140.3 146.2 137.5 146.2C137.1 146.1 136.8 146.1 136.6 146Z" fill="#1F466B"/>
<path fill-rule="evenodd" clip-rule="evenodd" d="M130.4 142C130.4 140.6 130.4 139.3 130.4 137.9C130.4 137.6 130.4 137.5 130.6 137.5C131.7 137.5 132.8 137.5 134 137.5C134.2 137.5 134.3 137.6 134.3 137.9C134.3 140.6 134.3 143.4 134.3 146.1C134.3 146.4 134.2 146.5 134 146.5C132.9 146.5 131.8 146.5 130.7 146.5C130.4 146.5 130.4 146.4 130.4 146C130.4 144.8 130.4 143.4 130.4 142Z" fill="#1F466B"/>
<path fill-rule="evenodd" clip-rule="evenodd" d="M268.2 342.3C267.5 342 267 341.4 266.7 340.7C265.7 338.4 266 335.7 266.5 333.2C266.5 333 266.6 332.7 266.7 332.6C267.8 331.3 269.3 330.4 270.3 328.9C271 327.9 271.4 326.8 271.8 325.6C272.1 324.7 271.9 322.7 272.4 321.9C273.9 319.8 275.2 324.2 275.3 325.2C275.4 326.2 275.1 327.2 274.9 328.1C274.8 328.8 274.6 329.5 274.5 330.2C274.7 330.3 274.9 330.3 275.1 330.3C277.3 330.3 279.5 330.3 281.7 330.3C282.6 330.3 283.1 330.6 283.2 331.2C283.4 332 283 332.7 282.2 333.1C282 333.2 281.7 333.1 281.7 333.4C281.7 333.7 282 333.6 282.1 333.7C282.9 334.2 282.8 335.4 281.8 336C281.6 336.2 281.1 336.1 281.1 336.4C281.1 336.7 281.5 336.7 281.7 336.8C282.3 337.4 282 338.6 281.1 339.1C281 339.2 280.8 339.2 280.7 339.3C280.6 339.4 280.5 339.5 280.7 339.6C281.7 340.3 281.6 341.2 280.7 341.9C280.6 342 280.5 342 280.4 342.1C280.1 342.4 279.6 342.4 279.2 342.4C275.7 342.4 272.3 342.4 268.8 342.4C268.8 342.5 268.5 342.5 268.2 342.3Z" fill="#1F466B"/>
<path fill-rule="evenodd" clip-rule="evenodd" d="M260.7 337.6C260.7 335.9 260.7 334.3 260.7 332.6C260.7 332.3 260.7 332.1 261 332.1C262.4 332.1 263.7 332.1 265.1 332.1C265.4 332.1 265.4 332.2 265.4 332.6C265.4 335.9 265.4 339.3 265.4 342.6C265.4 343 265.3 343.1 265 343.1C263.7 343.1 262.4 343.1 261 343.1C260.7 343.1 260.6 342.9 260.6 342.5C260.7 340.9 260.7 339.3 260.7 337.6Z" fill="#1F466B"/>
<path fill-rule="evenodd" clip-rule="evenodd" d="M244.9 318.8C244.3 318.5 243.8 318 243.5 317.3C242.6 315.1 242.9 312.6 243.3 310.3C243.3 310.1 243.4 309.9 243.5 309.7C244.6 308.5 245.9 307.7 246.8 306.3C247.4 305.4 247.9 304.3 248.2 303.3C248.5 302.4 248.3 300.6 248.8 299.9C250.2 297.9 251.4 302 251.5 302.9C251.6 303.8 251.3 304.7 251.2 305.6C251.1 306.3 251 306.9 250.8 307.6C251 307.7 251.2 307.7 251.3 307.7C253.3 307.7 255.4 307.7 257.4 307.7C258.3 307.7 258.7 307.9 258.8 308.5C258.9 309.2 258.6 309.9 257.9 310.3C257.7 310.4 257.5 310.3 257.5 310.5C257.5 310.7 257.8 310.7 257.9 310.8C258.6 311.3 258.5 312.4 257.7 313C257.5 313.1 257.1 313.1 257.1 313.4C257.1 313.6 257.5 313.6 257.6 313.8C258.2 314.4 257.9 315.5 257 315.9C256.9 316 256.7 316 256.6 316C256.5 316.1 256.4 316.1 256.6 316.3C257.5 316.9 257.5 317.8 256.6 318.5C256.5 318.6 256.4 318.6 256.3 318.7C256 318.9 255.6 318.9 255.2 318.9C252 318.9 248.8 318.9 245.6 318.9C245.4 319 245.1 318.9 244.9 318.8Z" fill="#1F466B"/>
<path fill-rule="evenodd" clip-rule="evenodd" d="M237.9 314.4C237.9 312.9 237.9 311.3 237.9 309.8C237.9 309.5 237.9 309.3 238.2 309.3C239.5 309.3 240.7 309.3 242 309.3C242.2 309.3 242.3 309.4 242.3 309.7C242.3 312.8 242.3 315.9 242.3 319C242.3 319.4 242.2 319.5 242 319.5C240.8 319.5 239.6 319.5 238.3 319.5C238 319.5 238 319.3 238 319C237.9 317.5 237.9 316 237.9 314.4Z" fill="#1F466B"/>
<path d="M297.3 85.2L300.8 90.1" stroke="black" stroke-width="0.5" stroke-miterlimit="10" stroke-linecap="round"/>
<path d="M303.9 94.3999L344.3 151.2" stroke="black" stroke-width="0.5" stroke-miterlimit="10" stroke-linecap="round" stroke-dasharray="12.77 12.77"/>
<path d="M345.9 153.3L349.4 158.2L345.2 162.6" stroke="black" stroke-width="0.5" stroke-miterlimit="10" stroke-linecap="round"/>
<path d="M341.8 166.2L273.4 238" stroke="black" stroke-width="0.5" stroke-miterlimit="10" stroke-linecap="round" stroke-dasharray="11.97 11.97"/>
<path d="M271.7 239.8L267.5 244.2" stroke="black" stroke-width="0.5" stroke-miterlimit="10" stroke-linecap="round"/>
<path d="M349.4 158.2L343.4 157.9" stroke="black" stroke-width="0.5" stroke-miterlimit="10" stroke-linecap="round"/>
<path d="M338.5 157.7L245.2 153.5L135.9 106.6" stroke="black" stroke-width="0.5" stroke-miterlimit="10" stroke-linecap="round" stroke-dasharray="11.66 11.66"/>
<path d="M133.7 105.7L128.2 103.3" stroke="black" stroke-width="0.5" stroke-miterlimit="10" stroke-linecap="round"/>
<path d="M43.8 210.5L49.5 208.9" stroke="black" stroke-width="0.5" stroke-miterlimit="10" stroke-linecap="round"/>
<path d="M54.5 207.5L239.6 154.9" stroke="black" stroke-width="0.5" stroke-miterlimit="10" stroke-linecap="round" stroke-dasharray="12.51 12.51"/>
<path d="M242.1 154.1L247.8 152.5L249 158.4" stroke="black" stroke-width="0.5" stroke-miterlimit="10" stroke-linecap="round"/>
<path d="M249.8 162.9L263.9 237.1" stroke="black" stroke-width="0.5" stroke-miterlimit="10" stroke-linecap="round" stroke-dasharray="10.98 10.98"/>
<path d="M264.3 239.3L265.4 245.2" stroke="black" stroke-width="0.5" stroke-miterlimit="10" stroke-linecap="round"/>
<path d="M205.6 326.8L208.4 332.1" stroke="black" stroke-width="0.5" stroke-miterlimit="10" stroke-linecap="round"/>
<path d="M210.9 336.8L252.1 414.7" stroke="black" stroke-width="0.5" stroke-miterlimit="10" stroke-linecap="round" stroke-dasharray="12.81 12.81"/>
<path d="M253.3 417.1L256.1 422.4" stroke="black" stroke-width="0.5" stroke-miterlimit="10" stroke-linecap="round"/>
<path d="M301.2 79L306.6 81.5" stroke="black" stroke-width="0.5" stroke-miterlimit="10" stroke-linecap="round"/>
<path d="M311.2 83.6001L434.1 139.9" stroke="black" stroke-width="0.5" stroke-miterlimit="10" stroke-linecap="round" stroke-dasharray="12.15 12.15"/>
<path d="M436.4 140.9L441.8 143.4L441.9 149.4" stroke="black" stroke-width="0.5" stroke-miterlimit="10" stroke-linecap="round"/>
<path d="M441.9 154.4L442.5 252.3" stroke="black" stroke-width="0.5" stroke-miterlimit="10" stroke-linecap="round" stroke-dasharray="11.81 11.81"/>
<path d="M442.6 254.8V260.8L436.6 260.6" stroke="black" stroke-width="0.5" stroke-miterlimit="10" stroke-linecap="round"/>
<path d="M431.8 260.4L271.6 255" stroke="black" stroke-width="0.5" stroke-miterlimit="10" stroke-linecap="round" stroke-dasharray="11.49 11.49"/>
<path d="M269.2 254.9L263.2 254.7L258.9 259" stroke="black" stroke-width="0.5" stroke-miterlimit="10" stroke-linecap="round"/>
<path d="M255.6 262.4L205.5 312.6L136.8 335.8" stroke="black" stroke-width="0.5" stroke-miterlimit="10" stroke-linecap="round" stroke-dasharray="11.44 11.44"/>
<path d="M134.6 336.5L128.9 338.5" stroke="black" stroke-width="0.5" stroke-miterlimit="10" stroke-linecap="round"/>
<path d="M127.5 346.8L132.8 349.6" stroke="black" stroke-width="0.5" stroke-miterlimit="10" stroke-linecap="round"/>
<path d="M136.9 351.9L248 412.2" stroke="black" stroke-width="0.5" stroke-miterlimit="10" stroke-linecap="round" stroke-dasharray="11.36 11.36"/>
<path d="M250.1 413.3L255.3 416.2L260 412.4" stroke="black" stroke-width="0.5" stroke-miterlimit="10" stroke-linecap="round"/>
<path d="M263.9 409.2L432.9 270.1" stroke="black" stroke-width="0.5" stroke-miterlimit="10" stroke-linecap="round" stroke-dasharray="12.02 12.02"/>
<path d="M434.9 268.5L439.5 264.7" stroke="black" stroke-width="0.5" stroke-miterlimit="10" stroke-linecap="round"/>
<path d="M259.2 256.9L253.4 255.6" stroke="black" stroke-width="0.5" stroke-miterlimit="10" stroke-linecap="round"/>
<path d="M248.4 254.6L47.7 212" stroke="black" stroke-width="0.5" stroke-miterlimit="10" stroke-linecap="round" stroke-dasharray="12.22 12.22"/>
<path d="M45.2 211.5L39.3 210.3L43.1 205.6" stroke="black" stroke-width="0.5" stroke-miterlimit="10" stroke-linecap="round"/>
<path d="M46.3 201.6L120.2 109.7" stroke="black" stroke-width="0.5" stroke-miterlimit="10" stroke-linecap="round" stroke-dasharray="12.16 12.16"/>
<path d="M121.8 107.7L125.6 103L131.6 102.4" stroke="black" stroke-width="0.5" stroke-miterlimit="10" stroke-linecap="round"/>
<path d="M136.6 101.9L288.8 86.0999" stroke="black" stroke-width="0.5" stroke-miterlimit="10" stroke-linecap="round" stroke-dasharray="12.2 12.2"/>
<path d="M291.3 85.8L297.3 85.2L291.9 87.8" stroke="black" stroke-width="0.5" stroke-miterlimit="10" stroke-linecap="round"/>
<path d="M287.5 89.8999L49.5 205.6" stroke="black" stroke-width="0.5" stroke-miterlimit="10" stroke-linecap="round" stroke-dasharray="11.78 11.78"/>
<path d="M47.2 206.7L41.9 209.3" stroke="black" stroke-width="0.5" stroke-miterlimit="10" stroke-linecap="round"/>
<path d="M126.8 342.7C130.5 342.7 133.5 339.7 133.5 336C133.5 332.3 130.5 329.3 126.8 329.3C123.1 329.3 120.1 332.3 120.1 336C120.1 339.7 123.1 342.7 126.8 342.7Z" fill="#9CABFC"/>
<path d="M139.9 352C137.9 346.7 132.8 343 126.8 343C120.8 343 115.7 346.7 113.7 352H139.9Z" fill="#9CABFC"/>
<path d="M442.7 255.7C447.505 255.7 451.4 251.805 451.4 247C451.4 242.195 447.505 238.3 442.7 238.3C437.895 238.3 434 242.195 434 247C434 251.805 437.895 255.7 442.7 255.7Z" fill="#9CABFC"/>
<path d="M459.7 267.8C457.1 261 450.4 256.1 442.7 256.1C434.9 256.1 428.3 261 425.7 267.8H459.7Z" fill="#9CABFC"/>
<path d="M264 250.1C268.805 250.1 272.7 246.205 272.7 241.4C272.7 236.595 268.805 232.7 264 232.7C259.195 232.7 255.3 236.595 255.3 241.4C255.3 246.205 259.195 250.1 264 250.1Z" fill="#9CABFC"/>
<path d="M281 262.2C278.4 255.4 271.7 250.5 264 250.5C256.3 250.5 249.6 255.4 247 262.2H281Z" fill="#9CABFC"/>
<path d="M450.608 133.4C454.01 129.262 453.415 123.149 449.277 119.746C445.139 116.344 439.026 116.939 435.623 121.077C432.22 125.215 432.816 131.328 436.954 134.731C441.092 138.134 447.205 137.538 450.608 133.4Z" fill="#9CABFC"/>
<path d="M462 150.4C459.1 142.8 451.7 137.4 443 137.4C434.3 137.4 427 142.8 424 150.4H462Z" fill="#9CABFC"/>
<path d="M253.036 144.484C256.824 140.696 256.824 134.555 253.036 130.767C249.248 126.979 243.106 126.979 239.318 130.767C235.53 134.555 235.53 140.696 239.318 144.484C243.106 148.272 249.248 148.272 253.036 144.484Z" fill="#9CABFC"/>
<path d="M265.2 160.8C262.3 153.2 254.9 147.8 246.2 147.8C237.5 147.8 230.2 153.2 227.2 160.8H265.2Z" fill="#9CABFC"/>
<path d="M128.4 97.1C133.536 97.1 137.7 92.9363 137.7 87.8C137.7 82.6638 133.536 78.5 128.4 78.5C123.264 78.5 119.1 82.6638 119.1 87.8C119.1 92.9363 123.264 97.1 128.4 97.1Z" fill="#9CABFC"/>
<path d="M146.6 110C143.8 102.7 136.7 97.5 128.4 97.5C120.1 97.5 113 102.7 110.2 110H146.6Z" fill="#9CABFC"/>
<path d="M42.9 217C47.8706 217 51.9 213.105 51.9 208.3C51.9 203.495 47.8706 199.6 42.9 199.6C37.9294 199.6 33.9 203.495 33.9 208.3C33.9 213.105 37.9294 217 42.9 217Z" fill="#9CABFC"/>
<path d="M60.6 229.1C57.9 222.2 51 217.4 42.9 217.4C34.8 217.4 28 222.3 25.2 229.1H60.6Z" fill="#9CABFC"/>
<path d="M213.159 313.182C213.901 308.602 210.789 304.289 206.209 303.547C201.629 302.806 197.316 305.918 196.574 310.498C195.833 315.077 198.945 319.391 203.524 320.132C208.104 320.874 212.418 317.762 213.159 313.182Z" fill="#9CABFC"/>
<path d="M221.3 331.9C218.8 325.3 212.3 320.6 204.8 320.6C197.3 320.6 190.9 325.3 188.3 331.9H221.3Z" fill="#9CABFC"/>
<path d="M305.902 74.1105C309.612 70.4006 309.612 64.3856 305.902 60.6756C302.192 56.9657 296.177 56.9657 292.467 60.6756C288.757 64.3856 288.757 70.4006 292.467 74.1105C296.177 77.8205 302.192 77.8205 305.902 74.1105Z" fill="#9CABFC"/>
<path d="M317.8 90.1C314.9 82.6 307.7 77.3 299.2 77.3C290.7 77.3 283.5 82.6 280.6 90.1H317.8Z" fill="#9CABFC"/>
<path d="M261.032 426.135C264.82 422.347 264.82 416.206 261.032 412.417C257.244 408.629 251.103 408.629 247.315 412.417C243.526 416.206 243.526 422.347 247.314 426.135C251.103 429.923 257.244 429.923 261.032 426.135Z" fill="#9CABFC"/>
<path d="M273.2 442.6C270.3 434.9 262.8 429.5 254.1 429.5C245.4 429.5 238 434.9 235 442.6H273.2Z" fill="#9CABFC"/>
<path d="M348.4 159.8C353.205 159.8 357.1 155.905 357.1 151.1C357.1 146.295 353.205 142.4 348.4 142.4C343.595 142.4 339.7 146.295 339.7 151.1C339.7 155.905 343.595 159.8 348.4 159.8Z" fill="#9CABFC"/>
<path d="M365.4 171.9C362.8 165.1 356.1 160.2 348.4 160.2C340.7 160.2 334 165.1 331.4 171.9H365.4Z" fill="#9CABFC"/>
<path d="M398.364 200.747C404.3 194.811 404.3 185.187 398.364 179.251C392.429 173.315 382.805 173.315 376.869 179.251C370.933 185.187 370.933 194.811 376.869 200.747C382.805 206.683 392.429 206.683 398.364 200.747Z" stroke="black" stroke-width="0.5" stroke-miterlimit="10" stroke-linecap="round"/>
<path d="M390.1 184.4C388.7 184.8 387.6 186.9 387.6 186.9C387.6 186.9 386.5 184.9 385.1 184.5C380.9 183.3 379 187.1 380.6 190.6C382.1 194 387.6 198 387.6 198C387.6 198 393 193.9 394.6 190.5C396.2 186.9 394.3 183.2 390.1 184.4Z" fill="#D47172" stroke="black" stroke-width="0.5" stroke-miterlimit="10"/>
<path d="M288 144.6C295.566 144.6 301.7 138.466 301.7 130.9C301.7 123.334 295.566 117.2 288 117.2C280.434 117.2 274.3 123.334 274.3 130.9C274.3 138.466 280.434 144.6 288 144.6Z" stroke="black" stroke-width="0.5" stroke-miterlimit="10" stroke-linecap="round"/>
<path d="M290.5 125.3C289.1 125.7 288 127.8 288 127.8C288 127.8 286.9 125.8 285.5 125.4C281.3 124.2 279.5 128 281.1 131.4C282.6 134.7 288.1 138.8 288.1 138.8C288.1 138.8 293.5 134.7 295 131.3C296.6 127.8 294.7 124 290.5 125.3Z" fill="#D47172" stroke="black" stroke-width="0.5" stroke-miterlimit="10"/>
<path d="M104.6 396.7C112.166 396.7 118.3 390.566 118.3 383C118.3 375.434 112.166 369.3 104.6 369.3C97.0337 369.3 90.9 375.434 90.9 383C90.9 390.566 97.0337 396.7 104.6 396.7Z" stroke="black" stroke-width="0.5" stroke-miterlimit="10" stroke-linecap="round"/>
<path d="M107.5 376.3C105.8 376.8 104.6 379.2 104.6 379.2C104.6 379.2 103.4 376.8 101.7 376.4C96.8 375 94.6 379.4 96.5 383.5C98.3 387.4 104.7 392.1 104.7 392.1C104.7 392.1 111 387.3 112.8 383.3C114.6 379.2 112.4 374.9 107.5 376.3Z" fill="#D47172" stroke="black" stroke-width="0.5" stroke-miterlimit="10"/>
<path d="M324.853 200.622C327.738 185.936 318.172 171.692 303.487 168.806C288.801 165.921 274.557 175.486 271.672 190.172C268.786 204.857 278.352 219.102 293.037 221.987C307.723 224.873 321.967 215.307 324.853 200.622Z" fill="#5F76E8" stroke="black" stroke-width="0.5" stroke-miterlimit="10"/>
<path d="M297.6 187.9C297.5 189.6 297.6 191.4 297.6 193.2H304.3C304 195.4 303.8 197.5 303.4 199.5C303.4 199.7 302.9 200 302.6 200C301 200 299.4 200 297.6 200V222.4C295.1 222.4 292.7 222 290.5 221.3V200H284.6V193.2H290.4C290.4 192.7 290.5 192.3 290.5 191.9C290.5 190.1 290.5 188.3 290.6 186.6C291 182.7 293.3 180 297.2 179.5C299.6 179.2 302.1 179.4 304.6 179.4V185.5C303.7 185.5 302.8 185.5 301.9 185.5C301.1 185.5 300.3 185.5 299.5 185.7C298.4 186 297.6 186.7 297.6 187.9Z" fill="white"/>
<path d="M321.9 203.4C320.5 206.9 318.3 210 315.6 212.6L321.9 203.4Z" fill="#5F76E8"/>
<path d="M321.9 203.4C320.5 206.9 318.3 210 315.6 212.6" stroke="black" stroke-width="0.5" stroke-miterlimit="10"/>
<path d="M314.1 214.1C313 214.9 311.9 215.8 310.8 216.6L314.1 214.1Z" fill="#5F76E8"/>
<path d="M314.1 214.1C313 214.9 311.9 215.8 310.8 216.6" stroke="black" stroke-width="0.5" stroke-miterlimit="10"/>
<path d="M315.9 209.9C315.5 210.5 315 211 314.5 211.3L315.9 209.9Z" fill="#5F76E8"/>
<path d="M315.9 209.9C315.5 210.5 315 211 314.5 211.3" stroke="black" stroke-width="0.5" stroke-miterlimit="10"/>
<path d="M321.2 197C321 199.4 320.5 201.7 319.6 204L321.2 197Z" fill="#5F76E8"/>
<path d="M321.2 197C321 199.4 320.5 201.7 319.6 204" stroke="black" stroke-width="0.5" stroke-miterlimit="10"/>
<path d="M465.015 201.364C468.315 187.219 459.524 173.078 445.379 169.778C431.235 166.478 417.093 175.269 413.793 189.413C410.493 203.558 419.284 217.699 433.429 221C447.573 224.3 461.715 215.508 465.015 201.364Z" fill="#D47172" stroke="black" stroke-width="0.5" stroke-miterlimit="10"/>
<path d="M455.1 186.7C455.1 182.4 452.4 179.7 448.2 179.6C442.3 179.5 436.5 179.5 430.6 179.6C426.5 179.6 423.8 182.4 423.7 186.5C423.7 189.4 423.7 192.3 423.7 195.3C423.7 198.2 423.7 201 423.7 203.9C423.7 208.3 426.4 211.1 430.7 211.1C436.5 211.2 442.3 211.2 448.1 211.1C452.3 211.1 455 208.3 455.1 204.1C455.1 198.3 455.1 192.5 455.1 186.7ZM452.3 204.1C452.3 206.8 450.8 208.3 448.1 208.3C442.3 208.3 436.5 208.3 430.7 208.3C428 208.3 426.5 206.8 426.5 204.1C426.5 198.3 426.5 192.4 426.5 186.6C426.5 183.9 428 182.4 430.7 182.4C436.5 182.4 442.3 182.4 448.1 182.4C450.8 182.4 452.3 183.9 452.3 186.6C452.3 189.5 452.3 192.4 452.3 195.4C452.3 198.3 452.3 201.2 452.3 204.1Z" fill="white"/>
<path d="M439.4 187.1C434.9 187.1 431.3 190.7 431.2 195.2C431.2 199.7 434.7 203.4 439.2 203.5C443.8 203.6 447.5 200 447.6 195.4C447.6 190.9 443.9 187.2 439.4 187.1ZM439.3 200.8C436.4 200.7 434 198.3 433.9 195.4C433.9 192.4 436.3 190 439.4 190C442.4 190 444.9 192.5 444.9 195.4C444.8 198.4 442.3 200.9 439.3 200.8Z" fill="white"/>
<path d="M450 187C449.9 188.1 449.2 188.7 448 188.7C446.8 188.6 446.1 187.9 446.2 186.7C446.3 185.6 447 185 448.2 185C449.4 185.1 450.1 185.7 450 187Z" fill="white"/>
<path d="M450.6 217.6C455 215 458.6 211.1 460.9 206.5" stroke="black" stroke-width="0.5" stroke-miterlimit="10"/>
<path d="M461.4 204.7C461.9 203.8 462.2 202.8 462.4 201.8" stroke="black" stroke-width="0.5" stroke-miterlimit="10"/>
<path d="M459.7 203.6C459.3 204.8 458.7 206 458 207.1" stroke="black" stroke-width="0.5" stroke-miterlimit="10"/>
<path d="M462.8 191.7C463.2 193.3 463.2 194.9 462.9 196.5" stroke="black" stroke-width="0.5" stroke-miterlimit="10"/>
<path d="M417.7 186C415.5 190.2 414.9 195.2 416 199.8" stroke="black" stroke-width="0.5" stroke-miterlimit="10"/>
<path d="M182.3 405.3C196.825 405.3 208.6 393.525 208.6 379C208.6 364.475 196.825 352.7 182.3 352.7C167.775 352.7 156 364.475 156 379C156 393.525 167.775 405.3 182.3 405.3Z" fill="#A8DCA4" stroke="black" stroke-width="0.5" stroke-miterlimit="10"/>
<path d="M192.4 389.5C192.1 390 191.6 390.3 191 390.3C190.7 390.3 190.5 390.2 190.2 390.1C186 387.7 181.2 387.3 177.9 387.4C174.2 387.5 171.5 388.2 171.5 388.2C170.7 388.4 169.8 387.9 169.5 387.1C169.3 386.3 169.8 385.4 170.6 385.1C170.7 385.1 173.6 384.3 177.6 384.1C180 384 182.3 384.2 184.4 384.6C187.1 385.1 189.6 386 191.7 387.3C192.6 387.7 192.8 388.7 192.4 389.5Z" fill="white"/>
<path d="M195.3 383.3C194.9 383.9 194.3 384.2 193.7 384.2C193.4 384.2 193.1 384.1 192.8 383.9C187.9 381 182.1 380.5 178.2 380.7C173.9 380.8 170.7 381.7 170.6 381.7C169.6 382 168.6 381.4 168.3 380.4C168 379.4 168.6 378.4 169.6 378.1C169.7 378.1 173.2 377.1 177.9 377C180.7 376.9 183.4 377.1 185.9 377.6C189.1 378.2 192 379.3 194.6 380.8C195.6 381.3 195.9 382.4 195.3 383.3Z" fill="white"/>
<path d="M197.1 377.8C196.7 377.8 196.3 377.7 195.9 377.5C184.1 370.6 168.9 374.7 168.7 374.8C167.5 375.1 166.2 374.4 165.9 373.2C165.6 372 166.3 370.7 167.5 370.4C167.7 370.4 171.9 369.2 177.7 369C181.1 368.9 184.5 369.1 187.6 369.7C191.5 370.4 195.1 371.8 198.2 373.6C199.3 374.2 199.7 375.7 199 376.8C198.7 377.3 197.9 377.8 197.1 377.8Z" fill="white"/>
<path d="M165.7 362.4C164.7 363.6 163.7 364.8 162.7 366.1" stroke="black" stroke-width="0.5" stroke-miterlimit="10"/>
<path d="M160.2 369.9C157.4 376 157.7 383.4 161 389.2" stroke="black" stroke-width="0.5" stroke-miterlimit="10"/>
<path d="M163.9 394.2C165.2 395.8 166.6 397.3 168.1 398.7" stroke="black" stroke-width="0.5" stroke-miterlimit="10"/>
<path d="M319.585 386.087C320.764 371.776 310.119 359.219 295.808 358.04C281.498 356.861 268.941 367.506 267.761 381.816C266.582 396.127 277.227 408.684 291.538 409.863C305.848 411.042 318.405 400.397 319.585 386.087Z" fill="#D47172" stroke="black" stroke-width="0.5" stroke-miterlimit="10"/>
<path d="M293.7 369.3C285.6 369.3 279.1 375.9 279.1 383.9C279.1 392 285.7 398.5 293.7 398.5C301.8 398.5 308.3 391.9 308.3 383.9C308.3 375.9 301.8 369.3 293.7 369.3ZM303.3 376.2C305 378.3 306 380.9 306 383.7C305.4 383.6 303.1 383.1 300.3 383.1C299.4 383.1 298.4 383.1 297.5 383.3C297.4 383.1 297.3 382.9 297.3 382.7C297.1 382.1 296.8 381.5 296.5 381C300.8 379.2 302.9 376.8 303.3 376.2ZM293.7 371.6C296.8 371.6 299.7 372.8 301.8 374.7C301.5 375.2 299.6 377.5 295.4 379.1C293.5 375.6 291.4 372.6 290.9 372C291.8 371.7 292.8 371.6 293.7 371.6ZM288.4 372.8C288.8 373.4 290.9 376.3 292.9 379.8C287.6 381.2 282.9 381.3 281.7 381.3H281.6C282.4 377.6 285 374.4 288.4 372.8ZM281.4 384C281.4 383.9 281.4 383.8 281.4 383.7C281.5 383.7 281.6 383.7 281.7 383.7C283.2 383.7 288.6 383.6 294 381.9C294.3 382.6 294.7 383.2 294.9 383.9C294.8 383.9 294.6 384 294.5 384C288.3 386 284.9 391.3 284.4 392.1C282.5 390 281.4 387.1 281.4 384ZM293.7 396.3C290.9 396.3 288.2 395.3 286.2 393.7C286.6 393 289.1 388.4 295.9 386C297.6 390.4 298.3 394.1 298.5 395.3C297 396 295.4 396.3 293.7 396.3ZM300.7 394.1C300.5 393.1 299.9 389.7 298.3 385.4C299.2 385.3 300 385.2 300.8 385.2C303.4 385.2 305.4 385.8 305.9 385.9C305.4 389.3 303.4 392.3 300.7 394.1Z" fill="white"/>
<path d="M301.1 406.4C303.6 406 306 404.8 307.9 403.1" stroke="black" stroke-width="0.5" stroke-miterlimit="10"/>
<path d="M284.6 405C288.1 407.4 294.1 408.1 298.2 407.1" stroke="black" stroke-width="0.5" stroke-miterlimit="10"/>
<path d="M286.2 361.7C283.8 362.1 281.4 363.2 279.7 365" stroke="black" stroke-width="0.5" stroke-miterlimit="10"/>
<path d="M309.7 401.5C310.1 401.2 310.4 400.8 310.7 400.4" stroke="black" stroke-width="0.5" stroke-miterlimit="10"/>
<path d="M210.4 109.8C225.146 109.8 237.1 97.8459 237.1 83.0999C237.1 68.3539 225.146 56.3999 210.4 56.3999C195.654 56.3999 183.7 68.3539 183.7 83.0999C183.7 97.8459 195.654 109.8 210.4 109.8Z" fill="#1F466B" stroke="black" stroke-width="0.5" stroke-miterlimit="10"/>
<path d="M224.3 79.9999C224 79.9999 223.8 79.9999 223.5 79.9999C220.5 79.9999 217.7 78.4999 216 75.9999V89.6999C216 95.2999 211.5 99.8999 205.8 99.8999C200.2 99.8999 195.6 95.3999 195.6 89.6999C195.6 84.0999 200.1 79.4999 205.8 79.4999C206 79.4999 206.2 79.4999 206.4 79.4999V84.4999C206.2 84.4999 206 84.3999 205.8 84.3999C202.9 84.3999 200.6 86.6999 200.6 89.5999C200.6 92.4999 202.9 94.7999 205.8 94.7999C208.7 94.7999 211.2 92.4999 211.2 89.6999L211.3 66.3999H216.1C216.6 70.6999 220 73.9999 224.3 74.3999V79.9999Z" fill="white"/>
<path d="M218.1 106.2C222.7 104.7 226.8 101.6 229.4 97.5999" stroke="black" stroke-width="0.5" stroke-miterlimit="10"/>
<path d="M231.6 94.2998C232.6 92.3998 233.3 90.3998 233.9 88.2998" stroke="black" stroke-width="0.5" stroke-miterlimit="10"/>
<path d="M190.3 71.3999C187.3 75.8999 186.3 81.6999 187.3 86.9999" stroke="black" stroke-width="0.5" stroke-miterlimit="10"/>
<path d="M188.1 90.5999C188.1 91.8999 188.5 93.2999 189 94.4999" stroke="black" stroke-width="0.5" stroke-miterlimit="10"/>
<path d="M189.4 82.0999C189.4 83.5999 189.6 84.9999 189.8 86.4999" stroke="black" stroke-width="0.5" stroke-miterlimit="10"/>
<path d="M375.4 133.3C391.416 133.3 404.4 120.316 404.4 104.3C404.4 88.2835 391.416 75.2998 375.4 75.2998C359.384 75.2998 346.4 88.2835 346.4 104.3C346.4 120.316 359.384 133.3 375.4 133.3Z" fill="#A8DCA4" stroke="black" stroke-width="0.5" stroke-miterlimit="10"/>
<path d="M364 89.0998H364.1C365 89.1998 365.8 89.4998 366.4 90.0998C367 90.6998 367.3 91.2998 367.4 92.0998C367.6 93.3998 367.2 94.5998 366.2 95.4998C365.7 95.8998 365.1 96.1998 364.5 96.2998C364.2 96.3998 363.8 96.3998 363.5 96.2998C361.9 96.1998 360.7 95.0998 360.3 93.6998C360.2 93.3998 360.2 93.1998 360.2 92.8998C360.2 92.7998 360.2 92.7998 360.1 92.7998C360.1 92.6998 360.1 92.5998 360.1 92.4998C360.2 92.4998 360.2 92.3998 360.2 92.3998C360.2 92.2998 360.2 92.1998 360.2 92.0998C360.3 91.3998 360.6 90.6998 361.1 90.1998C361.8 89.4998 362.6 89.0998 363.5 88.9998H363.6C363.8 89.0998 363.9 89.0998 364 89.0998Z" fill="white"/>
<path d="M377.1 101.9L377.2 101.8C377.5 101.3 377.9 100.9 378.3 100.5C379.2 99.6997 380.1 99.1997 381.3 98.8997C381.8 98.7997 382.4 98.6997 382.9 98.6997C383.3 98.6997 383.6 98.6997 384 98.6997C385.1 98.7997 386.1 98.9997 387.1 99.4997C388.1 99.9997 388.9 100.8 389.4 101.7C389.8 102.3 390 103 390.2 103.7C390.3 104.2 390.4 104.6 390.5 105.1C390.5 105.3 390.5 105.6 390.6 105.8C390.6 106.2 390.7 106.7 390.7 107.1C390.7 107.5 390.7 108 390.7 108.4C390.7 109.8 390.7 111.3 390.7 112.7C390.7 114.9 390.7 117 390.7 119.2C390.7 119.4 390.7 119.5 390.4 119.5C389.5 119.5 388.6 119.5 387.7 119.5C386.8 119.5 386 119.5 385.1 119.5C385 119.5 384.8 119.5 384.7 119.5C384.7 119.5 384.7 119.5 384.6 119.5C384.3 119.5 384.3 119.4 384.3 119.2C384.3 117.4 384.3 115.6 384.3 113.8C384.3 112 384.3 110.2 384.3 108.5C384.3 107.8 384.2 107.2 384 106.5C383.9 106.1 383.7 105.8 383.5 105.4C383.1 104.8 382.6 104.5 381.9 104.3C381.7 104.2 381.4 104.2 381.1 104.2C380.8 104.2 380.6 104.2 380.3 104.2C379.1 104.3 378.2 104.9 377.7 106.1C377.5 106.6 377.4 107.1 377.3 107.6C377.2 108.2 377.2 108.7 377.2 109.3C377.2 112.6 377.2 115.8 377.2 119.1C377.2 119.2 377.2 119.2 377.2 119.3C377.2 119.4 377.1 119.4 377 119.4C376.9 119.4 376.9 119.4 376.8 119.4C375.8 119.4 374.7 119.4 373.7 119.4C373 119.4 372.4 119.4 371.7 119.4C371.5 119.4 371.3 119.4 371.1 119.4H371C370.7 119.4 370.7 119.3 370.7 119.1C370.7 119 370.7 118.9 370.7 118.8C370.7 114.5 370.7 110.2 370.7 105.9C370.7 103.7 370.7 101.6 370.7 99.3997C370.7 99.2997 370.7 99.2997 370.7 99.1997C370.7 99.0997 370.8 98.9997 370.9 98.9997H371C372.8 98.9997 374.6 98.9997 376.5 98.9997H376.6C376.7 98.9997 376.8 99.0997 376.8 99.1997C376.8 99.3997 376.8 99.6997 376.8 99.8997C376.8 100.3 376.8 100.6 376.8 101C376.8 101.2 376.8 101.3 376.8 101.5C377 101.8 377 101.8 377.1 101.9Z" fill="white"/>
<path d="M360.7 109.3C360.7 106 360.7 102.7 360.7 99.3999C360.7 99.2999 360.7 99.2999 360.7 99.1999C360.7 99.0999 360.7 99.0999 360.8 99.0999H360.9C362.8 99.0999 364.7 99.0999 366.7 99.0999C366.9 99.0999 367 99.1999 367 99.3999C367 100.1 367 100.9 367 101.6C367 107.4 367 113.2 367 119C367 119.1 367 119.1 367 119.2C367 119.3 366.9 119.3 366.9 119.3C366.8 119.3 366.6 119.3 366.5 119.3C366.4 119.3 366.4 119.3 366.3 119.3C364.7 119.3 363.1 119.3 361.5 119.3C361.4 119.3 361.2 119.3 361.1 119.3H361C360.8 119.3 360.7 119.3 360.7 119C360.7 115.9 360.7 112.6 360.7 109.3Z" fill="white"/>
<path d="M381.3 130.1C385.7 129.4 389.9 127.3 393.2 124.3" stroke="black" stroke-width="0.5" stroke-miterlimit="10"/>
<path d="M394.5 122.8C395.5 121.8 396.5 120.7 397.4 119.7" stroke="black" stroke-width="0.5" stroke-miterlimit="10"/>
<path d="M354.9 87.3999C353.8 88.6999 352.9 90.0999 352.1 91.5999" stroke="black" stroke-width="0.5" stroke-miterlimit="10"/>
<path d="M350.5 95.2998C348.7 99.2998 348.1 103.9 348.9 108.3" stroke="black" stroke-width="0.5" stroke-miterlimit="10"/>
<path d="M82.7 176.9C98.164 176.9 110.7 164.364 110.7 148.9C110.7 133.436 98.164 120.9 82.7 120.9C67.236 120.9 54.7 133.436 54.7 148.9C54.7 164.364 67.236 176.9 82.7 176.9Z" fill="#5F76E8" stroke="black" stroke-width="0.5" stroke-miterlimit="10"/>
<path d="M67.4 162.1C71.1 162.2 74.5 161.3 77.5 159C73.3 157.7 71.7 156.5 71.1 154.1C72 154.1 73 154 73.9 154C70.6 152.7 68.7 150.5 68.4 146.9C69.4 147.2 70.3 147.4 71.3 147.7C68.3 143.9 67.7 141 69.5 138.2C73.4 142.7 78.3 145.2 84.3 145.6C84.3 145.1 84.2 144.8 84.2 144.4C84.1 141.3 85.4 138.9 88.2 137.6C91 136.2 93.7 136.6 96.1 138.5C96.6 138.9 97.1 139.1 97.7 138.8C98.8 138.4 100 138 101.2 137.5C100.7 139 99.7 140.1 98.5 141C98.5 141.1 98.6 141.1 98.6 141.2C99.8 140.9 100.9 140.6 102.1 140.3L102.2 140.4C101.3 141.3 100.4 142.2 99.5 143.1C99 143.5 98.7 143.9 98.7 144.6C98.7 155.2 90.8 163.9 80.3 164.9C76.1 165.3 72 164.5 68.3 162.4C67.9 162.3 67.7 162.2 67.4 162.1Z" fill="white"/>
<path d="M106.4 158.4C104.6 163.1 101.3 167.2 97.1 169.9" stroke="black" stroke-width="0.5" stroke-miterlimit="10"/>
<path d="M98 167.3C97.1 167.9 96.1 168.5 95.2 169.1" stroke="black" stroke-width="0.5" stroke-miterlimit="10"/>
<path d="M107.6 144.1C108.3 146.7 108.2 149.6 107.4 152.2" stroke="black" stroke-width="0.5" stroke-miterlimit="10"/>
<path d="M70.4 126.7C67.4 127.8 64.7 129.8 62.9 132.5" stroke="black" stroke-width="0.5" stroke-miterlimit="10"/>
</g>
<mask id="mask2_1_52" style="mask-type:luminance" maskUnits="userSpaceOnUse" x="0" y="0" width="501" height="500">
<path d="M500.3 0H0.300003V500H500.3V0Z" fill="white"/>
</mask>
<g mask="url(#mask2_1_52)">
<path d="M321.3 340.1C321.2 341.9 322 343.6 323.3 345.1C325.4 347.6 327.5 350.2 329.7 352.7C335.4 359.6 335.7 370 342.6 376C346.1 379.1 350.6 380.9 355 382.6C359.4 384.3 363.9 386 367.6 388.9C368.3 389.4 369.1 390.1 370 389.9C371.1 389.7 371.6 388.5 371.9 387.4C373.3 382.1 373.4 376.9 373.2 371.5C373.1 367.1 373.8 362.8 373.3 358.2C372.2 348.3 368.1 339 362.7 330.7C359.9 326.3 356.6 322.1 352.6 318.7C348.1 315 344 312.9 338.1 313.1C335.2 313.2 332.2 314 329.9 315.9C326.1 319.2 325.5 324.8 324.4 329.7C323.8 332.6 322.9 335.4 321.8 338.1C321.5 338.7 321.3 339.4 321.3 340.1Z" fill="white" stroke="#222221" stroke-width="0.5" stroke-miterlimit="10"/>
<path d="M380.9 344.6C379.9 346.2 378.9 347.7 378 349C370.3 360.4 360 375.8 370.7 387.6C387.6 406.3 420.5 416 444.6 419C450 419.7 455.6 420.1 460.6 422.3C464.2 423.9 467.3 426.5 470.4 429C480.9 437.7 493.2 446.1 502 456.6C510.6 466.9 520.1 475.4 531.9 482.2C550.6 493.1 574.2 497.5 594.1 488.9C610 482.1 622.4 465.6 622.7 448C623 427.1 600.7 417 584.9 408C569.6 399.2 554.1 390.8 538.5 382.5C525.6 375.6 511 370 500.1 360.3C483.7 345.8 466.2 328.8 446.2 319.3C440.8 316.8 435.3 314.6 429.7 312.6C426.2 311.4 422.7 310.2 419 310C403.6 309.6 389.7 331.2 380.9 344.6Z" fill="white" stroke="#222221" stroke-width="0.5" stroke-miterlimit="10"/>
<path d="M300.5 282.7C296.3 283.7 292.5 287.6 293.1 291.9C293.5 294.4 295.3 296.4 297.4 297.7C299.5 299 302 299.7 304.4 300.3C308.2 301.3 311.9 302.3 315.7 303.3C318.9 304.2 322.3 305 325.6 304.6C328.9 304.2 332.3 302.1 333.2 298.9C333.6 297.6 333.5 296.1 333.3 294.8C332 288.4 327.4 286.5 321.8 286C314.7 285.3 307.8 281 300.5 282.7Z" fill="white" stroke="#222221" stroke-width="0.5" stroke-miterlimit="10"/>
<path d="M380.2 396.7L438.2 379.5C444.4 377.6 447.3 371.4 444.6 365.6L378.2 224.2C375.5 218.4 368.2 215.1 361.9 217L303.9 234.2C297.7 236.1 294.8 242.3 297.5 248.1L363.9 389.5C366.6 395.3 373.9 398.6 380.2 396.7Z" fill="black"/>
<path d="M379.4 392.2L441.3 373.8C444.9 372.7 446.6 369.1 445 365.8L376.7 220.3C375.1 216.9 370.9 215.1 367.3 216.1L305.4 234.5C301.8 235.6 300.1 239.2 301.7 242.5L370 388C371.6 391.4 375.8 393.3 379.4 392.2Z" fill="white"/>
<path d="M333.8 233L344.3 229.9C344.7 229.8 344.9 229.3 344.7 228.9C344.5 228.5 344 228.3 343.6 228.4L333.1 231.5C332.7 231.6 332.5 232.1 332.7 232.5C332.8 232.9 333.3 233.1 333.8 233Z" fill="black"/>
<path d="M350.6 228C351 227.9 351.2 227.4 351 227C350.8 226.6 350.3 226.4 349.9 226.5C349.5 226.6 349.3 227.1 349.5 227.5C349.7 227.9 350.2 228.1 350.6 228Z" fill="black"/>
<path d="M326.5 305.4C327.3 305.1 327.7 304.3 327.4 303.5L324.7 297.8C324.3 297 323.3 296.6 322.5 296.8C321.7 297.1 321.3 297.9 321.6 298.7L324.3 304.4C324.7 305.2 325.7 305.6 326.5 305.4Z" fill="#A8DCA4"/>
<path d="M313.8 278.2C314.6 277.9 315 277.1 314.7 276.3L306.5 258.8C306.1 258 305.1 257.6 304.3 257.8C303.5 258.1 303.1 258.9 303.4 259.7L311.6 277.2C312 278.1 312.9 278.5 313.8 278.2Z" fill="#A8DCA4"/>
<path d="M313 278.5C313.8 278.2 314.2 277.4 313.9 276.6L305.7 259.1C305.3 258.3 304.3 257.9 303.5 258.1C302.7 258.4 302.3 259.2 302.6 260L310.8 277.5C311.1 278.3 312.1 278.7 313 278.5Z" fill="black"/>
<path d="M325.7 305.6C326.5 305.3 326.9 304.5 326.6 303.7L323.9 298C323.5 297.2 322.5 296.8 321.7 297C320.9 297.3 320.5 298.1 320.8 298.9L323.5 304.6C323.9 305.4 324.9 305.9 325.7 305.6Z" fill="black"/>
<path d="M331.3 315.5C332.1 315.2 332.5 314.4 332.2 313.6L329.5 307.9C329.1 307.1 328.1 306.7 327.3 306.9C326.5 307.2 326.1 308 326.4 308.8L329.1 314.5C329.5 315.4 330.5 315.8 331.3 315.5Z" fill="#AFB3BC"/>
<path d="M330.5 315.8C331.3 315.5 331.7 314.7 331.4 313.9L328.7 308.2C328.3 307.4 327.3 307 326.5 307.2C325.7 307.5 325.3 308.3 325.6 309.1L328.3 314.8C328.6 315.6 329.6 316 330.5 315.8Z" fill="black"/>
<path d="M368.8 385.3L443.8 363.1L378.6 224.2L303.6 246.4L368.8 385.3Z" fill="#1F466B" stroke="black" stroke-width="0.5" stroke-miterlimit="10"/>
<path d="M368.7 387.4L301.2 243.6C299.2 239.3 301.3 234.7 305.9 233.3L366 215.5C370.6 214.1 376 216.5 378 220.8L445.5 364.6C447.5 368.9 445.4 373.5 440.8 374.9L380.7 392.7C376.1 394.1 370.7 391.7 368.7 387.4ZM306.6 235.1C303 236.2 301.3 239.8 302.9 243.2L370.4 387C372 390.4 376.2 392.2 379.8 391.2L439.9 373.4C443.5 372.3 445.2 368.7 443.6 365.3L376.1 221.5C374.5 218.1 370.3 216.3 366.7 217.3L306.6 235.1Z" fill="#A8DCA4"/>
<path d="M370 387.5L302.2 243.1C300.5 239.4 302.3 235.5 306.2 234.3L366.5 216.4C370.4 215.2 375 217.3 376.7 220.9L444.5 365.3C446.2 369 444.4 372.9 440.5 374.1L380.2 392C376.3 393.2 371.7 391.2 370 387.5ZM306.5 235C302.9 236.1 301.3 239.6 302.9 242.9L370.7 387.3C372.3 390.6 376.4 392.5 380 391.4L440.3 373.5C443.9 372.4 445.5 368.9 443.9 365.6L376.1 221.2C374.5 217.9 370.4 216 366.8 217.1L306.5 235Z" fill="#A8DCA4"/>
<path d="M440.7 359.4L368.8 381.3L307.3 251.8L379.3 229.9L440.7 359.4Z" fill="#F9F9F9"/>
<path d="M362.9 354C362.5 354.2 362.5 354.8 362.5 354.8C362.5 354.8 362 354.4 361.5 354.4C360.2 354.5 360.1 355.6 360.9 356.3C361.7 357 363.8 357.5 363.8 357.5C363.8 357.5 364.9 356 364.9 355C364.9 354.1 363.9 353.3 362.9 354Z" fill="#1F466B"/>
<path d="M427.8 331.3L354.8 353.5L325.1 289.9L397.9 267.6L427.8 331.3Z" fill="#1F466B" stroke="black" stroke-width="0.5" stroke-miterlimit="10"/>
<path opacity="0.2" d="M334.2 281.7C335.1 283.5 334.1 285.5 332.1 286.1C330.1 286.7 327.7 285.8 326.8 284C325.9 282.2 326.9 280.2 328.9 279.6C331 278.9 333.4 279.9 334.2 281.7Z" fill="#DBE0FC"/>
<mask id="mask3_1_52" style="mask-type:luminance" maskUnits="userSpaceOnUse" x="307" y="229" width="134" height="153">
<path d="M440.7 359.4L368.8 381.3L307.3 251.8L379.3 229.9L440.7 359.4Z" fill="white"/>
</mask>
<g mask="url(#mask3_1_52)">
<path d="M394 257.1L319.6 279.8L311.2 262.1L385.5 239.4L394 257.1Z" fill="white" stroke="#C2C2C2" stroke-width="0.25" stroke-miterlimit="10"/>
</g>
<mask id="mask4_1_52" style="mask-type:luminance" maskUnits="userSpaceOnUse" x="307" y="229" width="134" height="153">
<path d="M440.7 359.4L368.8 381.3L307.3 251.8L379.3 229.9L440.7 359.4Z" fill="white"/>
</mask>
<g mask="url(#mask4_1_52)">
<path d="M348.737 264.028C349.367 261.056 347.074 258.054 343.616 257.321C340.158 256.589 336.844 258.404 336.215 261.376C335.586 264.347 337.879 267.35 341.336 268.082C344.794 268.815 348.108 267 348.737 264.028Z" fill="#DBE0FC"/>
<path d="M364.3 256C365.7 258.9 364.1 262 360.9 263C357.6 264 353.9 262.5 352.5 259.6C351.1 256.7 352.7 253.6 355.9 252.6C359.1 251.6 362.9 253.1 364.3 256Z" fill="#DBE0FC"/>
<path d="M380.631 254.218C381.26 251.247 378.967 248.244 375.509 247.512C372.051 246.779 368.738 248.594 368.108 251.566C367.479 254.538 369.772 257.54 373.23 258.273C376.688 259.005 380.001 257.19 380.631 254.218Z" fill="#DBE0FC"/>
<path d="M396.2 246.3C397.6 249.2 396 252.3 392.8 253.3C389.5 254.3 385.8 252.8 384.4 249.9C383 247 384.6 243.9 387.8 242.9C391 241.9 394.9 243.4 396.2 246.3Z" fill="#DBE0FC"/>
</g>
<path d="M333 265.5C334.5 268.7 332.8 272.2 329.2 273.3C325.6 274.4 321.4 272.7 319.9 269.5C318.4 266.3 320.1 262.8 323.7 261.7C327.3 260.6 331.5 262.3 333 265.5Z" fill="#DBE0FC"/>
<path d="M335.1 268.4C335.5 269.2 335.1 270.1 334.2 270.3C333.3 270.6 332.3 270.2 331.9 269.4C331.5 268.6 331.9 267.7 332.8 267.5C333.6 267.2 334.7 267.6 335.1 268.4Z" fill="#5F76E8"/>
<path d="M388 366.6C388.5 367.6 387.9 368.7 386.8 369.1C385.6 369.5 384.3 368.9 383.8 367.9C383.3 366.9 383.9 365.8 385 365.4C386.2 365 387.5 365.5 388 366.6Z" stroke="#2D2D2D" stroke-width="0.5" stroke-miterlimit="10"/>
<path d="M389.6 369.4L387.8 368.4" stroke="#2D2D2D" stroke-width="0.5" stroke-miterlimit="10"/>
<path d="M370.4 369.8L369 372.3L370.4 375.2L371.9 374.7L371.2 373.2C371 372.8 371.3 372.4 371.7 372.3C372.2 372.2 372.7 372.3 372.8 372.7L373.5 374.2L374.9 373.8L373.5 370.9L370.4 369.8Z" stroke="#2D2D2D" stroke-width="0.5" stroke-miterlimit="10"/>
<path d="M400.4 361.8L401.7 364.6" stroke="black" stroke-width="0.5" stroke-miterlimit="10"/>
<path d="M399.5 363.6L402.6 362.7" stroke="black" stroke-width="0.5" stroke-miterlimit="10"/>
<path d="M402.6 365.4L401.8 365.7C400.5 366.1 399.1 365.5 398.6 364.4L398.2 363.7C397.7 362.6 398.3 361.4 399.5 361L400.3 360.7C401.6 360.3 403 360.9 403.5 362L403.9 362.7C404.4 363.8 403.9 365 402.6 365.4Z" stroke="#2D2D2D" stroke-width="0.5" stroke-miterlimit="10"/>
<path d="M415.8 356.3C415.3 356.6 415.2 357.3 415.2 357.3C415.2 357.3 414.5 356.8 413.9 356.8C412.2 356.9 412.1 358.3 413.2 359.2C414.3 360.1 416.9 360.8 416.9 360.8C416.9 360.8 418.3 358.9 418.3 357.7C418.4 356.4 417.1 355.5 415.8 356.3Z" stroke="#2D2D2D" stroke-width="0.5" stroke-miterlimit="10"/>
<path d="M431.5 352.8C431.8 353.5 431.5 354.2 430.7 354.4C429.9 354.6 429.1 354.3 428.8 353.6C428.5 352.9 428.8 352.2 429.6 352C430.3 351.8 431.2 352.1 431.5 352.8Z" fill="#2D2D2D"/>
<path d="M434.2 355.5L434 355.1C433.6 354.3 432.6 353.9 431.8 354.2L429.9 354.8C429 355.1 428.6 355.9 429 356.7L429.2 357.1L434.2 355.5Z" fill="#2D2D2D"/>
<path d="M317 253.1L316.7 253C316.5 252.9 316.3 252.9 316.1 253L315.9 253.1L315.5 253.2L315.3 253.3C315.1 253.4 314.9 253.5 314.9 253.7L314.8 254C314.7 254.2 314.6 254.3 314.4 254.4L314.1 254.5C313.7 254.6 313.5 255 313.7 255.3L314.9 257.7C315.1 258 315.5 258.2 315.9 258.1L319.8 256.9C320.2 256.8 320.4 256.4 320.2 256.1L319 253.7C318.8 253.4 318.4 253.2 318 253.3L317.7 253.4C317.4 253.3 317.2 253.2 317 253.1Z" stroke="#2D2D2D" stroke-width="0.5" stroke-miterlimit="10"/>
<path d="M318.1 255.2C318.4 255.8 318.1 256.4 317.4 256.6C316.7 256.8 316 256.5 315.7 255.9C315.4 255.3 315.7 254.7 316.4 254.5C317 254.3 317.8 254.6 318.1 255.2Z" stroke="#2D2D2D" stroke-width="0.5" stroke-miterlimit="10"/>
<path d="M371.5 236.3L376.9 234.7L375.7 239.4L374.2 237.3L371.5 236.3Z" stroke="#2D2D2D" stroke-width="0.5" stroke-miterlimit="10"/>
<path d="M374.2 237.3L376.9 234.7" stroke="#2D2D2D" stroke-width="0.5" stroke-miterlimit="10"/>
<path d="M368.7 387.4L301.2 243.6C299.2 239.3 301.3 234.7 305.9 233.3L366 215.5C370.6 214.1 376 216.5 378 220.8L445.5 364.6C447.5 368.9 445.4 373.5 440.8 374.9L380.7 392.7C376.1 394.1 370.7 391.7 368.7 387.4ZM306.6 235.1C303 236.2 301.3 239.8 302.9 243.2L370.4 387C372 390.4 376.2 392.2 379.8 391.2L439.9 373.4C443.5 372.3 445.2 368.7 443.6 365.3L376.1 221.5C374.5 218.1 370.3 216.3 366.7 217.3L306.6 235.1Z" stroke="black" stroke-width="0.5" stroke-miterlimit="10"/>
<path d="M495.4 356.4C482.7 345 478.7 326.3 467.5 313.3C466.5 312.2 465.5 311.1 464.5 310C461.5 306.5 457.6 304 453.8 301.4C440.2 292.2 427.3 281.9 415.5 270.5C412.2 267.4 409.9 262.8 405.9 260.4C403.8 259.1 400.9 258.7 398.8 260.1C397.8 260.8 397 261.9 396.5 263C394.6 266.7 394.2 271.1 395.4 275C396.4 278.3 398.4 281.1 400.4 283.9C408.3 294.7 426.6 303.6 428.2 318" fill="white"/>
<path d="M495.4 356.4C482.7 345 478.7 326.3 467.5 313.3C466.5 312.2 465.5 311.1 464.5 310C461.5 306.5 457.6 304 453.8 301.4C440.2 292.2 427.3 281.9 415.5 270.5C412.2 267.4 409.9 262.8 405.9 260.4C403.8 259.1 400.9 258.7 398.8 260.1C397.8 260.8 397 261.9 396.5 263C394.6 266.7 394.2 271.1 395.4 275C396.4 278.3 398.4 281.1 400.4 283.9C408.3 294.7 426.6 303.6 428.2 318" stroke="#222221" stroke-width="0.5" stroke-miterlimit="10"/>
<path d="M346.7 365.9C346.9 365.8 347 365.7 347.2 365.6C350.8 363.1 354.4 359.7 354.8 355.3C355 353.3 354.5 351.2 353.6 349.4C353.1 348.3 352.4 347.3 351.5 346.6C349.8 345.3 347.5 345.3 345.5 345.9C342.1 346.9 340 349.4 337.2 351.3C334.7 353 332 354.9 331.1 357.8C330.1 360.8 331.4 364.3 333.8 366.3C337.6 369.4 342.8 368.3 346.7 365.9Z" fill="white" stroke="#222221" stroke-width="0.5" stroke-miterlimit="10"/>
<path d="M320.5 307.3C321.3 305.7 322.2 304.1 323.8 303.5C325.6 302.9 327.5 303.7 329 304.8C331.5 306.6 333.3 309.3 334 312.3C335 317.3 331.6 324.1 329.3 328.4C328.6 329.7 327.8 331 326.5 331.7C324.3 332.8 321.6 331.6 319.8 329.9C317.2 327.5 315.1 323.4 315.6 319.7C316 315.6 318.7 311 320.5 307.3Z" fill="white" stroke="#222221" stroke-width="0.5" stroke-miterlimit="10"/>
<path d="M340.6 341.2C345.8 333.7 345.5 320.8 336.5 317.4C335.1 316.8 333.4 316.6 332 317.2C329.3 318.4 328.8 321.9 327.5 324.6C326.2 327.4 324.3 329.7 322.9 332.4C322 334 321.2 335.7 320.9 337.4C320.5 339.2 320.7 341.1 321.6 342.7" fill="white"/>
<path d="M340.6 341.2C345.8 333.7 345.5 320.8 336.5 317.4C335.1 316.8 333.4 316.6 332 317.2C329.3 318.4 328.8 321.9 327.5 324.6C326.2 327.4 324.3 329.7 322.9 332.4C322 334 321.2 335.7 320.9 337.4C320.5 339.2 320.7 341.1 321.6 342.7" stroke="#222221" stroke-width="0.5" stroke-miterlimit="10"/>
<path d="M445.5 373.8C447.8 377 450.5 379.9 453.5 382.4" stroke="#222221" stroke-width="0.5" stroke-miterlimit="10"/>
<path d="M331 318.1C330.8 319.7 331.4 321.4 332.5 322.6C333.6 323.7 334.7 324.2 334 325.8C333.3 327.4 332 328.9 330.8 330.1C330.6 330.3 330.4 330.4 330.2 330.5C330 330.6 329.7 330.5 329.5 330.5C328.9 330.4 328.3 330 327.9 329.6C327.2 328.9 326.9 328 326.3 327.3" stroke="#222221" stroke-width="0.5" stroke-miterlimit="10"/>
<path d="M322.4 304.4C321.8 306.2 322.1 307.8 322.8 309.6C323.6 311.6 322 312.8 320.8 314.4C320.6 314.7 320.3 315 319.9 315C319.7 315 319.5 314.9 319.3 314.7C318.5 314.1 318.1 313.1 318.1 312.1" stroke="#222221" stroke-width="0.5" stroke-miterlimit="10"/>
<path d="M345.2 346.2C345.2 348.7 345.8 350.1 346.6 352.5C346.6 352.6 346.7 352.7 346.6 352.8C346.6 352.9 346.5 352.9 346.4 353C344.6 354.2 341.9 355.8 340.6 353.4C340 352.3 339.5 351 339.3 349.7" stroke="#222221" stroke-width="0.5" stroke-miterlimit="10"/>
<path d="M409.5 289.3C408.8 289.7 408.3 290.5 408.4 291.3" stroke="#222221" stroke-width="0.5" stroke-miterlimit="10"/>
<path d="M406.6 290.5C408.4 289.6 409.7 287.7 410.1 285.7" stroke="#222221" stroke-width="0.5" stroke-miterlimit="10"/>
<path d="M466.3 317.7C469.4 321.1 472 324.9 474.2 329" stroke="#222221" stroke-width="0.5" stroke-miterlimit="10"/>
<path d="M475.1 330.9C476.4 333.5 477.6 336 478.9 338.6" stroke="#222221" stroke-width="0.5" stroke-miterlimit="10"/>
<path d="M472.3 329.3C472.7 330 473.1 330.8 473.5 331.5" stroke="#222221" stroke-width="0.5" stroke-miterlimit="10"/>
<path d="M397.5 266.1C396.6 269.7 397 273.6 398.6 277" stroke="#222221" stroke-width="0.5" stroke-miterlimit="10"/>
<path d="M399.4 278.6C399.8 279.7 400.3 280.7 401 281.7" stroke="#222221" stroke-width="0.5" stroke-miterlimit="10"/>
<path d="M399.9 276C400.2 276.8 400.6 277.6 400.9 278.4" stroke="#222221" stroke-width="0.5" stroke-miterlimit="10"/>
<path d="M353.8 353C353.5 356.3 351.7 359.4 349 361.2" stroke="#222221" stroke-width="0.5" stroke-miterlimit="10"/>
<path d="M373.7 386.1C376.6 385.2 379.6 384.3 382.5 383.3" stroke="#222221" stroke-width="0.5" stroke-miterlimit="10"/>
<path d="M385.3 382.5C386 382.3 386.7 382 387.4 381.8" stroke="#222221" stroke-width="0.5" stroke-miterlimit="10"/>
<path d="M382 385.3C382.7 385.2 383.4 385.1 384.1 385" stroke="#222221" stroke-width="0.5" stroke-miterlimit="10"/>
<path d="M402.7 336.7C403.8 336 405.1 335.6 406.3 335.4" stroke="#222221" stroke-width="0.5" stroke-miterlimit="10"/>
<path d="M421 331.2C417.2 332.2 413.4 333.3 409.6 334.3" stroke="#222221" stroke-width="0.5" stroke-miterlimit="10"/>
<path d="M305.6 237.6C304 239.2 303.9 242.1 305.4 243.9" stroke="#222221" stroke-width="0.5" stroke-miterlimit="10"/>
<path d="M314.1 295C313.4 295.9 312.7 296.7 312 297.6" stroke="#222221" stroke-width="0.5" stroke-miterlimit="10"/>
<path d="M311.2 299.9C312.1 299.3 313 298.5 313.8 297.6" stroke="#222221" stroke-width="0.5" stroke-miterlimit="10"/>
<path d="M340.3 341.4C338.5 341.4 336.7 341.3 334.9 341.3" stroke="#222221" stroke-width="0.5" stroke-miterlimit="10"/>
<path d="M341.9 328.4C342.3 330.1 342.1 332 341.3 333.6" stroke="#222221" stroke-width="0.5" stroke-miterlimit="10"/>
<path d="M418.5 409.2C420.3 409.7 422.1 410.2 423.9 410.8" stroke="#222221" stroke-width="0.5" stroke-miterlimit="10"/>
<path d="M386.6 320.8C385.1 322.6 383.7 324.6 383.3 326.9C382.9 329.2 383.6 331.9 385.6 333C388.4 334.7 392.1 332.7 394.1 330C396 327.3 396.9 324 399 321.4C400.9 319 403.7 317.5 405.6 315.1C407.6 312.8 408.6 309.1 406.5 306.8C405.2 305.3 403 305 401 305.4C394.9 306.9 390.4 316.2 386.6 320.8Z" fill="#A8DCA4" stroke="black" stroke-width="0.5" stroke-miterlimit="10"/>
<path d="M383.8 312.5C383.7 311.5 383.9 310.5 384.6 309.4C385.5 307.8 387.1 306.7 388.9 306.3C390.1 306 393.1 306.5 393.3 305C393.5 303.9 391.8 303 391 302.7C388.1 301.5 384.7 301 381.7 300.2C372 297.7 362.1 292.5 352.5 298.5C349.5 300.4 342 307.3 349.5 309.4C351.9 310 354.3 309.2 356.7 308.7C359.7 308.1 364.2 307.7 367.2 308.5C371.1 309.6 374.6 314.1 377.6 316.6C378.6 317.5 379.7 318.4 381 318.6C382.3 318.9 383.9 318.2 384.1 316.9C384.2 316.6 384.2 316.4 384.1 316.1C384.3 314.7 383.9 313.6 383.8 312.5Z" fill="white" stroke="#222221" stroke-width="0.5" stroke-miterlimit="10"/>
<path d="M411.7 319.5C409.6 318 404.8 318.1 402.6 316.9C398.7 314.6 398 309.3 392.9 308.8C391.1 308.6 389.1 309.3 388.4 311C387.8 312.5 388.5 314.2 389.2 315.6C391.9 321.4 402.8 337.4 410.9 330.1C413.5 327.7 414.2 323.5 412.5 320.5C412.3 320 412 319.8 411.7 319.5Z" fill="white" stroke="#222221" stroke-width="0.5" stroke-miterlimit="10"/>
<path d="M368.1 328.8C364.2 335.1 355 333.6 352.9 326.5C350.9 319.7 357.9 311.5 363.7 309.2C369.9 306.7 374.8 302.4 375.7 295.2C375.9 293.8 375.9 292.3 376.4 291C376.9 289.8 377.7 288.7 378.7 287.8C380.8 285.8 383.5 284.2 386.3 284.1C389.2 283.9 392.3 285.3 393.5 288C395.1 291.5 393 295.7 390 298.1C387 300.5 383.2 301.7 379.9 303.7C372.4 308.2 371.9 315.6 370.4 323.2C369.9 325.1 369.2 327 368.1 328.8Z" fill="#D47172" stroke="black" stroke-width="0.5" stroke-miterlimit="10"/>
<path d="M336.6 299.4C337.1 300.2 337.8 300.8 338.9 301.1C345.5 302.8 346.1 291.7 339.4 292.9C336.4 293.5 335.1 296.9 336.6 299.4Z" fill="white" stroke="#222221" stroke-width="0.5" stroke-miterlimit="10"/>
</g>
<mask id="mask5_1_52" style="mask-type:luminance" maskUnits="userSpaceOnUse" x="0" y="0" width="501" height="500">
<path d="M500.3 0H0.300003V500H500.3V0Z" fill="white"/>
</mask>
<g mask="url(#mask5_1_52)">
<path d="M217.8 233.6C209 237.3 199.9 240.7 190.4 241.6C185.7 242 179.8 240.9 178.5 236.3C177.7 233.3 179.5 230.2 181.4 227.8C189.6 217.7 201.8 211.9 213.6 206.4C220.2 203.3 239.7 199.8 243.1 209.7C247.1 221 225.1 230.5 217.8 233.6Z" fill="white"/>
<path d="M217.8 233.6C209 237.3 199.9 240.7 190.4 241.6C185.7 242 179.8 240.9 178.5 236.3C177.7 233.3 179.5 230.2 181.4 227.8C189.6 217.7 201.8 211.9 213.6 206.4C220.2 203.3 239.7 199.8 243.1 209.7C247.1 221 225.1 230.5 217.8 233.6Z" stroke="black" stroke-width="0.5" stroke-miterlimit="10" stroke-linecap="round"/>
<path d="M209.9 239.1C210.6 240.4 211 241.9 211 243.5C211.1 248.2 210 252.7 208.9 257.2C207.8 261.8 206.3 268.2 201.2 269.7C198.7 270.4 196.1 270.9 193.5 271.1C190.5 271.4 187.3 271.2 184.7 269.6C182.2 268 180.7 264.4 182.2 261.8C183.2 260.1 185.1 259.2 186.5 258C189.8 255.1 190.7 250.5 191.8 246.3C193.2 240.9 197.2 238.1 200.8 234.3C201.1 234 201.4 233.6 201.8 233.4C203 232.8 204.5 233.5 205.5 234.4C207.4 235.6 208.9 237.2 209.9 239.1Z" fill="white"/>
<path d="M88.9 208.9C91.5 203.8 95.9 200 100.8 197.2C106.4 193.9 112 191 118 188.5C120.2 187.6 122.6 186.7 125 187.2C127.4 187.7 129.2 189.6 130.6 191.6C132.3 194.1 133.5 197 134.4 200C135.3 202.9 135.4 206.2 136.4 209C138.7 215.3 140.3 221.1 139.3 227.9C139 230.2 138.5 232.5 137.5 234.6C135.7 238.4 132.7 241.4 129.7 244.2C127 246.7 124.2 249.3 120.8 250.9C117.8 252.3 114.4 253 111.1 253.3C100 254.3 88.4 251.8 79.6 245C74.8 241.3 77 234.8 79.1 230.4C82.3 223.2 85.4 216 88.9 208.9Z" fill="white"/>
<path d="M68.9 352.5C66 355.1 63.3 357.9 60.9 360.9C58.6 363.7 56.6 366.6 54.3 369.3C50.9 373.3 47.1 377 43 380.3C39.2 383.4 36.5 388.2 33.5 392.1C26.4 401 18.6 409.5 10.2 417.3C8.1 419.2 6 421.1 3.6 422.5C1 423.9 -1.9 424.7 -4.8 425.2C-9.3 425.9 -13.9 426 -18.3 425.3C-28.3 423.7 -37.5 418.7 -46.1 413.3C-50.7 410.4 -55.3 407.4 -59.4 403.9C-62 401.7 -64.4 399.2 -66 396.2C-67.8 392.8 -69.4 387.7 -69.1 383.8C-68.8 380.3 -66.6 376.2 -65.2 372.9C-61.8 364.8 -57.2 357.2 -51.6 350.5C-38.1 334.3 -19.5 323.6 -2.2 312C14.6 300.8 30.9 289.2 45.7 275.5C52.1 269.5 58.6 265 61.8 256.4C63.4 252.1 64 247.6 65.6 243.3C67.4 238.4 70.3 234 73.2 229.6C75.6 226 78 222.4 80.4 218.8C84.4 212.7 88.5 206.6 94.3 202.2C95.4 201.3 96.7 200.5 98.4 201.5C99.2 202 99.8 202.8 100 203.7C101.6 208.8 100.6 216.9 100.2 222.1C99.7 228.7 98.6 235.2 98.5 241.8C98.4 247.8 99.4 252.6 101.4 258.1C103.5 264 104.1 270.5 105.5 276.6C107.6 285.4 111.5 292.8 118.7 298.4C125.5 303.7 134.2 298.4 141.6 296.4C144.1 295.7 147.8 295.5 149.9 293.9C151.9 292.4 153.7 289.2 155.2 287.2C157.5 284 164.5 274.5 169.2 279.9C169.9 280.7 170.3 281.6 170.5 282.6C171.6 286.8 175 297.1 171.5 301.3C170.3 302.7 168.7 303.8 167.1 304.8C157.5 310.9 146.9 315.4 136.7 320.5C130.2 323.8 123.1 325.7 116.1 327.5C109.2 329.2 101.5 330.4 95.4 334.1C86.3 339.3 77 345.1 68.9 352.5Z" fill="white"/>
<path d="M191.8 267.2C193.2 272.4 192.3 278 191.5 283.3C191.2 285.5 190.8 287.8 189.4 289.6C188.3 291 186.6 291.9 184.9 292.6C180.7 294.2 175.9 294.5 171.5 293.5C168.4 292.8 165.1 291.1 164.4 288C164 286 164.7 284 165.5 282.2C166.8 279.1 168 275.9 169.3 272.8C171.5 267.3 174.8 259.9 181 257.7C186.4 255.7 190.7 262.9 191.8 267.2Z" fill="white"/>
<path d="M113.2 319.8L63.8 285.2C58.5 281.5 57.8 274.7 62.2 270L169.8 157.4C174.2 152.8 182.1 152 187.5 155.8L236.9 190.4C242.2 194.1 242.9 200.9 238.5 205.6L130.8 318.2C126.4 322.8 118.5 323.6 113.2 319.8Z" fill="black"/>
<path d="M115.3 315.8L62.6 278.8C59.5 276.6 59.1 272.7 61.7 270L172.5 154.1C175.1 151.4 179.6 151 182.7 153.1L235.4 190.1C238.5 192.3 238.9 196.2 236.3 198.9L125.5 314.8C123 317.5 118.4 318 115.3 315.8Z" fill="white"/>
<path d="M209 179.7L200 173.4C199.6 173.1 199.6 172.7 199.9 172.3C200.2 172 200.8 171.9 201.1 172.2L210.1 178.5C210.5 178.8 210.5 179.2 210.2 179.6C209.9 179.9 209.3 180 209 179.7Z" fill="black"/>
<path d="M194.6 169.6C194.2 169.3 194.2 168.9 194.5 168.5C194.8 168.2 195.4 168.1 195.7 168.4C196.1 168.7 196.1 169.1 195.8 169.5C195.5 169.8 195 169.9 194.6 169.6Z" fill="black"/>
<path d="M192.8 250.5C192.1 250 192 249.1 192.6 248.4L197 243.8C197.6 243.2 198.7 243.1 199.4 243.6C200.1 244.1 200.2 245 199.6 245.7L195.2 250.3C194.6 250.9 193.6 251 192.8 250.5Z" fill="#5F76E8"/>
<path d="M213.5 228.9C212.8 228.4 212.7 227.5 213.3 226.8L226.6 212.9C227.2 212.3 228.3 212.2 229 212.7C229.7 213.2 229.8 214.1 229.2 214.8L215.9 228.7C215.3 229.3 214.2 229.4 213.5 228.9Z" fill="#5F76E8"/>
<path d="M214.2 229.4C213.5 228.9 213.4 228 214 227.3L227.3 213.4C227.9 212.8 229 212.7 229.7 213.2C230.4 213.7 230.5 214.6 229.9 215.3L216.6 229.2C216 229.8 214.9 229.9 214.2 229.4Z" fill="black"/>
<path d="M193.6 251C192.9 250.5 192.8 249.6 193.4 248.9L197.8 244.3C198.4 243.7 199.5 243.6 200.2 244.1C200.9 244.6 201 245.5 200.4 246.2L196 250.8C195.4 251.4 194.3 251.5 193.6 251Z" fill="black"/>
<path d="M185.1 258.6C184.4 258.1 184.3 257.2 184.9 256.5L189.3 251.9C189.9 251.3 191 251.2 191.7 251.7C192.4 252.2 192.5 253.1 191.9 253.8L187.5 258.4C186.9 259 185.8 259.1 185.1 258.6Z" fill="#AFB3BC"/>
<path d="M185.8 259.1C185.1 258.6 185 257.7 185.6 257L190 252.4C190.6 251.8 191.7 251.7 192.4 252.2C193.1 252.7 193.2 253.6 192.6 254.3L188.2 258.9C187.6 259.5 186.5 259.6 185.8 259.1Z" fill="black"/>
<path d="M127.5 312.7L63.6 267.8L169.4 157.2L233.2 202L127.5 312.7Z" fill="#1F466B"/>
<path d="M113.9 315.9L62.8 280C58.9 277.2 58.4 272.2 61.6 268.8L171 154.3C174.3 150.9 180.1 150.3 184 153.1L235.2 189C239.1 191.8 239.6 196.8 236.4 200.2L127 314.7C123.7 318.1 117.8 318.7 113.9 315.9ZM182.8 154.4C179.7 152.2 175.1 152.7 172.6 155.4L63.1 269.9C60.5 272.6 60.9 276.5 64 278.7L115.2 314.6C118.3 316.8 122.9 316.3 125.4 313.6L234.9 199.1C237.5 196.4 237.1 192.5 234 190.3L182.8 154.4Z" fill="#5F76E8"/>
<path d="M114.6 315.4L63.2 279.3C59.9 277 59.4 272.7 62.2 269.8L172.1 154.8C174.9 151.9 179.9 151.4 183.2 153.8L234.6 189.9C237.9 192.2 238.4 196.5 235.6 199.4L125.7 314.4C122.9 317.3 117.9 317.8 114.6 315.4ZM182.8 154.2C179.8 152.1 175.3 152.5 172.7 155.1L62.8 270.1C60.3 272.7 60.7 276.6 63.7 278.7L115.1 314.8C118.1 316.9 122.6 316.5 125.2 313.9L235.1 198.9C237.6 196.3 237.2 192.4 234.2 190.3L182.8 154.2Z" fill="black"/>
<path d="M209 220.9C205.2 224.7 198.6 225.3 194.3 222.2C190 219.1 189.6 213.6 193.5 209.8C197.3 206 203.9 205.4 208.2 208.5C212.5 211.6 212.9 217.1 209 220.9Z" fill="#A8DCA4" stroke="black" stroke-width="0.5" stroke-miterlimit="10"/>
<path d="M201.5 220.3C201.3 220.4 201 220.3 200.9 220.2C200.8 220.1 200.8 220.1 200.7 220C200.1 218.5 198.8 217.4 197.8 216.7C196.7 216 195.7 215.6 195.7 215.6C195.4 215.5 195.3 215.2 195.4 214.9C195.6 214.6 195.9 214.5 196.2 214.6C196.2 214.6 197.3 215 198.5 215.8C199.2 216.3 199.9 216.8 200.4 217.4C201.1 218.1 201.6 218.9 201.9 219.6C202 219.8 201.8 220.2 201.5 220.3Z" fill="white"/>
<path d="M204 219.3C203.7 219.4 203.5 219.3 203.3 219.2C203.2 219.1 203.1 219 203.1 218.9C202.4 217.1 200.8 215.8 199.6 215C198.3 214.1 197.1 213.7 197.1 213.7C196.7 213.6 196.6 213.2 196.8 212.9C197 212.6 197.4 212.4 197.8 212.6C197.9 212.6 199.1 213.1 200.6 214.1C201.5 214.7 202.2 215.3 202.8 216C203.6 216.8 204.2 217.7 204.5 218.7C204.6 218.8 204.3 219.2 204 219.3Z" fill="white"/>
<path d="M206 218.2C205.9 218.1 205.8 218 205.7 217.9C204 213.6 198.4 211.5 198.4 211.4C197.9 211.2 197.8 210.8 198 210.4C198.2 210 198.8 209.8 199.2 210C199.3 210 200.8 210.6 202.6 211.8C203.7 212.5 204.6 213.3 205.3 214.1C206.3 215.1 207 216.2 207.4 217.4C207.6 217.8 207.3 218.2 206.8 218.4C206.5 218.4 206.2 218.4 206 218.2Z" fill="white"/>
<path d="M147.064 213.323C152.812 212.555 156.95 208.027 156.307 203.21C155.663 198.393 150.482 195.11 144.734 195.878C138.986 196.645 134.848 201.173 135.492 205.99C136.135 210.808 141.316 214.091 147.064 213.323Z" fill="#D47172" stroke="black" stroke-width="0.5" stroke-miterlimit="10"/>
<path d="M149.8 200.8C147.4 199.1 143.7 199.4 141.5 201.5C139.4 203.6 139.6 206.7 142 208.5C144.4 210.2 148.1 209.9 150.3 207.8C152.5 205.6 152.2 202.5 149.8 200.8ZM150.9 204.7C150.8 205.6 150.5 206.5 149.7 207.3C149.6 207.2 149 206.5 148.1 205.9C147.8 205.7 147.5 205.5 147.2 205.3C147.2 205.2 147.3 205.2 147.3 205.1C147.4 204.9 147.5 204.7 147.5 204.5C149.3 204.9 150.6 204.7 150.9 204.7ZM149.2 201.4C150.1 202.1 150.7 203 150.8 203.9C150.6 204 149.4 204.2 147.7 203.7C148.1 202.4 148.2 201.1 148.2 200.9C148.6 201 148.9 201.2 149.2 201.4ZM147.3 200.6C147.3 200.8 147.1 202.1 146.8 203.4C144.8 202.6 143.4 201.7 143.1 201.4C144.3 200.6 145.9 200.3 147.3 200.6ZM142.2 202C142.3 201.9 142.3 202 142.4 202C142.9 202.3 144.5 203.4 146.6 204.2C146.5 204.4 146.4 204.7 146.4 204.9C146.3 204.9 146.3 204.9 146.2 204.8C143.8 204 141.4 204.7 141 204.8C141 203.8 141.4 202.8 142.2 202ZM142.6 207.9C141.8 207.3 141.2 206.5 141 205.6C141.3 205.5 143.3 204.8 145.9 205.7C145.2 207.2 144.5 208.4 144.2 208.7C143.7 208.5 143.1 208.2 142.6 207.9ZM145.3 208.8C145.5 208.5 146.2 207.5 146.9 206C147.2 206.1 147.5 206.3 147.7 206.5C148.5 207.1 148.9 207.6 149 207.8C148 208.5 146.6 208.9 145.3 208.8Z" fill="white"/>
<path d="M163.991 196.71C169.737 195.926 173.862 191.386 173.204 186.571C172.547 181.755 167.356 178.488 161.61 179.272C155.865 180.057 151.74 184.597 152.397 189.412C153.055 194.227 158.246 197.495 163.991 196.71Z" fill="#A8DCA4" stroke="black" stroke-width="0.5" stroke-miterlimit="10"/>
<path d="M186.449 240.492C192.173 239.264 195.977 234.372 194.945 229.567C193.914 224.761 188.438 221.861 182.715 223.089C176.991 224.317 173.187 229.209 174.218 234.014C175.249 238.82 180.725 241.72 186.449 240.492Z" fill="#5F76E8" stroke="black" stroke-width="0.5" stroke-miterlimit="10"/>
<path d="M189.5 207C185.7 210.8 179.1 211.4 174.8 208.3C170.5 205.2 170.1 199.7 174 195.9C177.8 192.1 184.4 191.5 188.7 194.6C192.9 197.7 193.3 203.2 189.5 207Z" fill="#D47172" stroke="black" stroke-width="0.5" stroke-miterlimit="10"/>
<path d="M188.6 202.5C189.7 201.4 189.7 200.1 188.4 199.2C186.7 198 184.9 196.7 183.2 195.5C182 194.6 180.4 194.8 179.3 195.8C178.5 196.6 177.8 197.3 177 198.1C176.2 198.8 175.5 199.6 174.7 200.3C173.6 201.4 173.6 202.7 174.9 203.7C176.6 204.9 178.3 206.2 180 207.4C181.3 208.3 182.8 208.1 183.9 207C185.6 205.5 187.1 204 188.6 202.5ZM183.2 206.5C182.5 207.2 181.7 207.3 180.8 206.7C179.1 205.5 177.4 204.3 175.7 203C174.9 202.4 174.9 201.7 175.6 201C177.1 199.5 178.7 198 180.2 196.4C180.9 195.7 181.8 195.6 182.6 196.2C184.3 197.4 186 198.6 187.7 199.9C188.5 200.5 188.5 201.2 187.8 201.9C187 202.7 186.3 203.4 185.5 204.2C184.7 204.9 184 205.7 183.2 206.5Z" fill="white"/>
<path d="M183.9 199.3C182.6 198.4 180.5 198.5 179.3 199.7C178.1 200.9 178.2 202.6 179.5 203.5C180.8 204.5 182.9 204.3 184.1 203.2C185.3 202 185.2 200.3 183.9 199.3ZM180.2 202.9C179.4 202.3 179.3 201.1 180 200.4C180.8 199.6 182.2 199.5 183.1 200.1C184 200.7 184.1 201.9 183.3 202.7C182.5 203.4 181.1 203.5 180.2 202.9Z" fill="white"/>
<path d="M187.1 201.5C186.8 201.8 186.4 201.8 186.1 201.5C185.7 201.2 185.8 200.9 186.1 200.6C186.4 200.3 186.8 200.3 187.1 200.6C187.4 200.9 187.4 201.2 187.1 201.5Z" fill="white"/>
<path d="M172.6 223.6C168.8 227.4 162.2 228 157.9 224.9C153.6 221.8 153.2 216.3 157.1 212.5C160.9 208.7 167.5 208.1 171.8 211.2C176.1 214.3 176.5 219.9 172.6 223.6Z" fill="#1F466B" stroke="black" stroke-width="0.5" stroke-miterlimit="10"/>
<path d="M169.7 220.2C169.6 220.2 169.5 220.1 169.4 220C168.5 219.4 168.1 218.4 168.3 217.4L164.7 220.9C163.2 222.3 160.7 222.6 159.1 221.4C157.5 220.2 157.3 218.1 158.8 216.7C160.3 215.3 162.8 215 164.4 216.2C164.5 216.2 164.5 216.3 164.6 216.3L163.3 217.6C163.2 217.6 163.2 217.5 163.1 217.5C162.3 216.9 161 217 160.2 217.8C159.5 218.5 159.5 219.6 160.4 220.2C161.2 220.8 162.6 220.7 163.3 220L169.4 214L170.8 215C169.8 216.2 170 217.8 171.1 218.7L169.7 220.2Z" fill="white"/>
<path d="M174.8 255.2C171 259 164.4 259.6 160.1 256.5C155.8 253.4 155.4 247.9 159.3 244.1C163.1 240.3 169.7 239.7 174 242.8C178.2 245.8 178.6 251.4 174.8 255.2Z" fill="#1F466B" stroke="black" stroke-width="0.5" stroke-miterlimit="10"/>
<path d="M119.5 244.4C115.7 248.2 109.1 248.8 104.8 245.7C100.5 242.6 100.1 237.1 103.9 233.3C107.7 229.5 114.3 228.9 118.6 232C122.9 235.1 123.3 240.6 119.5 244.4Z" fill="#A8DCA4" stroke="black" stroke-width="0.5" stroke-miterlimit="10"/>
<path d="M136.3 227.8C132.5 231.6 125.9 232.2 121.6 229.1C117.3 226 116.9 220.5 120.8 216.7C124.6 212.9 131.2 212.3 135.5 215.4C139.8 218.5 140.2 224 136.3 227.8Z" fill="#5F76E8" stroke="black" stroke-width="0.5" stroke-miterlimit="10"/>
<path d="M130.3 220.2C129.8 220.6 129.4 221.1 128.9 221.5L130.8 222.9C130.1 223.4 129.6 223.9 128.9 224.3C128.8 224.3 128.6 224.3 128.5 224.3C128 224 127.6 223.6 127.1 223.3L121.3 229C120.6 228.5 120 227.9 119.5 227.3L125 221.9L123.3 220.7L125 219L126.7 220.2C126.8 220.1 127 220 127.1 219.9C127.6 219.5 128 219 128.5 218.6C129.6 217.7 131 217.5 132.2 218.1C133 218.5 133.6 219.1 134.3 219.6L132.7 221.2C132.4 221 132.2 220.8 131.9 220.7C131.7 220.5 131.4 220.4 131.2 220.3C131 219.9 130.6 219.9 130.3 220.2Z" fill="white"/>
<path d="M152.142 274.708C157.866 273.48 161.67 268.588 160.639 263.782C159.608 258.977 154.132 256.076 148.408 257.305C142.684 258.533 138.88 263.424 139.912 268.23C140.943 273.036 146.419 275.936 152.142 274.708Z" fill="#5F76E8" stroke="black" stroke-width="0.5" stroke-miterlimit="10"/>
<path d="M142.7 266.3C143.7 267.1 144.9 267.5 146.3 267.5C145.5 266.4 145.3 265.7 145.8 265C146.1 265.2 146.3 265.3 146.6 265.5C146 264.5 146 263.6 146.9 262.6C147.1 262.9 147.3 263.1 147.5 263.4C147.6 261.8 148.2 261 149.4 260.6C149.3 262.5 150.1 264.1 151.6 265.4C151.7 265.3 151.8 265.2 151.9 265.1C152.7 264.3 153.6 264 154.7 264.2C155.8 264.4 156.5 265 156.6 266C156.6 266.2 156.7 266.3 157 266.4C157.4 266.5 157.8 266.6 158.3 266.8C157.8 267.1 157.2 267.2 156.6 267.1C156.6 267.1 156.6 267.1 156.6 267.2C157 267.4 157.4 267.5 157.8 267.7C157.8 267.7 157.8 267.7 157.8 267.8C157.3 267.8 156.8 267.9 156.4 267.9C156.1 267.9 156 268 155.8 268.1C153.1 270.8 148.7 271.4 145.5 269.6C144.2 268.9 143.3 267.9 142.8 266.6C142.8 266.5 142.8 266.4 142.7 266.3Z" fill="white"/>
<path d="M155.2 241.2C151.4 245 144.8 245.6 140.5 242.5C136.2 239.4 135.8 233.9 139.7 230.1C143.5 226.3 150.1 225.7 154.4 228.8C158.7 231.9 159.1 237.5 155.2 241.2Z" fill="white" stroke="#222221" stroke-width="0.5" stroke-miterlimit="10"/>
<path opacity="0.5" d="M121 300.4L77.6 269.9C75.5 268.4 75.2 265.6 77 263.7C78.5 262.1 81.1 261.8 82.9 263.1L126.3 293.6C128.4 295.1 128.7 297.9 126.9 299.8C125.4 301.4 122.8 301.6 121 300.4Z" fill="white"/>
<path d="M206.3 235C205.9 234.7 205.4 234.4 205 234.2C201.5 231.9 197.9 229.8 194.2 227.8C191.4 226.3 188.4 223.4 184.9 224.5C182.7 225.2 181.4 227.5 180.9 229.8C180.1 234 181.7 238.4 184.3 241.7C187 245.2 191.1 247.1 194.6 249.6C194.7 249.7 194.8 249.7 194.8 249.8C194.9 249.9 194.8 250.1 194.7 250.2C194 251.6 191.1 255.9 190.2 257.2C189.1 258.7 191.8 257.4 193.9 256.8C195.7 256.3 196.8 256.4 198.7 256.7C201 257.1 204.7 255.9 206.6 254.7C207.7 254 208.7 253.1 209.2 252C211.1 247.9 212.1 240.9 208.9 237.2C208.2 236.4 207.3 235.7 206.3 235Z" fill="white"/>
<path d="M170 253.7C167.4 253 164.7 252.3 162.1 251.6C161 251.3 159.9 251 158.8 251.4C157.6 251.8 156.8 252.9 156.3 254C154.6 257.9 156 262.7 158.8 265.9C161.6 269.2 165.5 271.2 169.5 272.9C173.6 274.7 178.9 276.8 179.4 278.9C179.8 280.5 182.3 277.2 183.5 276C187.1 272.4 194.4 263.6 188.5 259.1C185.4 256.7 179.5 256.3 175.7 255.3C173.8 254.7 171.9 254.2 170 253.7Z" fill="white"/>
<path d="M157.4 275.3C155.8 275 154.3 274.8 152.7 274.5C147.8 273.8 140.6 274.8 140.5 281.3C140.5 283.7 141.9 285.9 143.7 287.4C145.5 288.9 147.7 289.9 149.9 290.8C152.6 292 156.8 292.8 158.7 295.3C161 298.3 161.2 302.6 166 302.9C168.5 303 170.9 301.3 172.1 299.1C173.3 296.9 173.6 294.3 173.6 291.7C173.6 288 172.9 284.2 171.1 280.9C169.3 277.4 160.9 275.9 157.4 275.3Z" fill="white"/>
<path d="M131.862 261.12C137.61 260.352 141.748 255.825 141.105 251.007C140.461 246.19 135.28 242.907 129.532 243.675C123.784 244.443 119.646 248.97 120.29 253.788C120.933 258.605 126.114 261.888 131.862 261.12Z" fill="#D47172" stroke="black" stroke-width="0.5" stroke-miterlimit="10"/>
<path d="M134.6 248.6C132.2 246.9 128.5 247.2 126.3 249.3C124.2 251.4 124.4 254.5 126.8 256.3C129.2 258 132.9 257.7 135.1 255.6C137.2 253.4 137 250.3 134.6 248.6ZM135.6 252.4C135.5 253.3 135.2 254.2 134.4 255C134.3 254.9 133.7 254.2 132.8 253.6C132.5 253.4 132.2 253.2 131.9 253C131.9 252.9 132 252.9 132 252.8C132.1 252.6 132.2 252.4 132.2 252.2C134 252.7 135.3 252.5 135.6 252.4ZM134 249.2C134.9 249.9 135.5 250.8 135.6 251.7C135.4 251.8 134.2 252 132.5 251.5C132.9 250.2 133 248.9 133 248.7C133.4 248.8 133.7 249 134 249.2ZM132 248.4C132 248.6 131.8 249.9 131.5 251.2C129.5 250.4 128.1 249.5 127.8 249.2C129 248.3 130.6 248.1 132 248.4ZM127 249.8C127.1 249.7 127.1 249.8 127.2 249.8C127.7 250.1 129.3 251.2 131.4 252C131.3 252.2 131.2 252.5 131.2 252.7C131.1 252.7 131.1 252.7 131 252.6C128.6 251.8 126.2 252.5 125.8 252.6C125.7 251.6 126.1 250.6 127 249.8ZM127.4 255.7C126.6 255.1 126 254.3 125.8 253.4C126.1 253.3 128.1 252.6 130.7 253.5C130 255 129.3 256.2 129 256.5C128.5 256.3 127.9 256 127.4 255.7ZM130 256.6C130.2 256.3 130.9 255.3 131.6 253.8C131.9 253.9 132.2 254.1 132.4 254.3C133.2 254.9 133.6 255.4 133.7 255.6C132.7 256.3 131.4 256.7 130 256.6Z" fill="white"/>
<path d="M114.5 214C112.7 215.4 111 216.9 109.3 218.5C108.8 219 108.1 219.5 107.4 219.3C107 219.1 106.7 218.7 106.5 218.3C104.5 214.6 103 210.7 102.1 206.6C101.4 203.3 99.7 198.1 103 195.9C106.6 193.4 111.2 191.8 115.2 190C119.6 188 124.2 186.5 128.7 184.7C132.8 183.1 137.3 184.2 141.6 184.6C145.1 184.9 148.6 185.2 152 184.7C156.3 184.1 161.4 182.9 164 187.5C165.4 190 165.2 193.1 164 195.7C162.8 198.3 160.7 200.3 158.3 201.9C152.4 205.9 144.7 207 137.8 205.1C136.4 204.7 135.1 204.2 133.7 204.2C131.1 204.2 127.3 206 125 207.2C121.3 208.9 117.7 211.4 114.5 214Z" fill="white"/>
<path d="M169.7 272.9C172.5 274.3 174.7 274.9 177.7 275.6" stroke="black" stroke-width="0.5" stroke-miterlimit="10"/>
<path d="M156.8 253.1C156.2 254.2 156.9 255.8 157.6 256.8C158.3 257.8 159.5 258.4 160.6 259C160.6 259 160.6 259 160.7 259C163.8 260.4 167.6 258.7 168.6 255.4C168.7 254.9 168.9 254.5 169 254" stroke="black" stroke-width="0.5" stroke-miterlimit="10"/>
<path d="M156 275.9C156.1 278.3 154.6 280.6 152.4 281.5C150.2 282.4 147.5 281.8 145.9 280" stroke="black" stroke-width="0.5" stroke-miterlimit="10"/>
<path d="M196.1 229.3C195.8 231.1 194.1 232.3 192.3 232.6C190.5 232.8 188.7 232.1 187.3 231C185.9 229.9 184.9 228.4 183.9 226.9" stroke="black" stroke-width="0.5" stroke-miterlimit="10"/>
<path d="M190.9 247.1C193 248.5 195.3 249.8 197.6 250.9" stroke="black" stroke-width="0.5" stroke-miterlimit="10"/>
<path d="M162.9 186.1C160.7 186.7 158.5 187.3 156.2 187.3C153.9 187.3 151.6 186.6 150 185" stroke="black" stroke-width="0.5" stroke-miterlimit="10"/>
<path d="M192.5 271.1C192.9 271.1 193.2 271.1 193.6 271C196.2 270.8 198.8 270.3 201.3 269.6C206.4 268.1 207.9 261.7 209 257.1C210.1 252.6 211.2 248.1 211.1 243.4C211.1 243.2 211.1 243 211 242.8C211 242.6 211 242.5 211 242.3C211 242.3 211 242.3 211 242.2C210.8 240.3 210.2 238.5 209 237.2C208.6 236.8 208.2 236.4 207.8 236.1C203.8 232.7 198.9 230.3 194.3 227.8C191.5 226.3 188.5 223.4 185 224.5C182.8 225.2 181.5 227.5 181 229.8C180.2 234 181.8 238.4 184.4 241.7C186.3 244.2 189 245.9 191.6 247.6" stroke="black" stroke-width="0.5" stroke-miterlimit="10" stroke-linecap="round"/>
<path d="M191.6 283.3C192.6 276.7 193.1 268.9 190.8 262.5C189.8 259.8 187.5 257.7 184.5 257.3C181.6 256.4 178.2 256 175.7 255.3C173.8 254.8 171.9 254.3 170 253.8C167.4 253.1 164.7 252.4 162.1 251.7C161 251.4 159.9 251.1 158.8 251.5C157.6 251.9 156.8 253 156.3 254.1C154.6 258 156 262.8 158.8 266C161.6 269.2 165.4 271.2 169.3 272.9C168.1 276 166.8 279.1 165.6 282.1C164.8 284 164.1 286 164.5 287.9C165.2 291 168.5 292.7 171.6 293.4C176 294.4 180.7 294.1 185 292.5C186.7 291.9 188.4 291 189.5 289.5C190.8 287.8 191.2 285.5 191.6 283.3Z" stroke="black" stroke-width="0.5" stroke-miterlimit="10" stroke-linecap="round"/>
<path d="M157.4 275.3C154.3 274.7 151.1 274.4 147.9 273.9C146.8 273.7 145.6 273.6 144.5 273.9C143 274.4 142 275.7 141.4 277.1C139.9 280.9 140.6 284.7 143.8 287.4C145.6 288.9 147.8 289.9 150 290.8C152.7 292 156.9 292.8 158.8 295.3C161.1 298.3 161.3 302.6 166.1 302.9C168.6 303 171 301.3 172.2 299.1C173.4 296.9 173.7 294.3 173.7 291.7C173.7 288 173 284.2 171.2 280.9C169.3 277.4 160.9 275.9 157.4 275.3Z" fill="white"/>
<path d="M172.1 299C173.3 296.8 173.6 294.2 173.6 291.6C173.6 287.9 172.9 284.1 171.1 280.8C169.2 277.4 160.8 275.9 157.3 275.2C153.8 274.6 150.3 273.9 146.7 273.6C146 273.5 145.3 273.5 144.7 273.7C143.6 274 142.7 274.8 142.1 275.8C141.1 277.3 140.5 279.4 140.5 281.3C140.5 283.7 141.9 285.9 143.7 287.4C145.5 288.9 147.7 289.9 149.9 290.8" stroke="black" stroke-width="0.5" stroke-miterlimit="10" stroke-linecap="round"/>
<path d="M170.7 301.4C169.5 302.8 168.8 303.3 167.2 304.3C157.6 310.4 147 314.9 136.8 320C125.9 325.5 112.9 327.6 101.4 331.4C90.3 335 81.5 342.1 72.8 349.9C53.8 366.9 38.3 387.3 21.5 406.4C12.4 416.9 2.3 427.3 -10.7 432.2C-28.4 438.8 -49.9 433 -61.8 418.4C-73.7 403.8 -75.2 381.5 -65.2 365.5C-59.3 356.1 -50.3 349.1 -41.4 342.4C-36.5 342.4 -24 329.3 -19.9 326.1C-12.3 320.4 -4.7 314.6 2.9 308.9C17.4 297.9 32.3 287.5 45.7 275.1C52.1 269.1 58.6 264.6 61.8 256C63.4 251.7 64 247.2 65.6 242.9C67.4 238 70.3 233.6 73.2 229.2C75.6 225.6 78 222 80.4 218.4C84.4 212.3 88.5 206.2 94.3 201.8" stroke="black" stroke-width="0.5" stroke-miterlimit="10" stroke-linecap="round"/>
<path d="M102.2 196.8C102.8 196.4 103.5 196.1 104.1 195.7C104.2 195.6 104.3 195.5 104.4 195.5C106.4 194.2 108.7 193.1 111.1 192.1C113.7 190.8 116.3 189.6 119 188.6C120.1 188.1 121.3 187.7 122.5 187.5C124.8 186.7 127.2 185.8 129.5 184.9C133.5 183.3 137.9 184.5 142.1 184.9C145.5 185.2 148.9 185.5 152.3 185.1C156.5 184.5 161.5 183.4 164.1 187.8C165.5 190.2 165.3 193.2 164.1 195.7C161.9 200.3 156.8 203.6 152.1 205.1C148.1 206.4 143.9 206 139.6 205.7C136.3 205.5 133.4 204 130.1 204.4" stroke="black" stroke-width="0.5" stroke-miterlimit="10" stroke-linecap="round"/>
<path d="M149.7 290.6C153.1 292.3 156.8 294 160.5 293.3" stroke="black" stroke-width="0.5" stroke-miterlimit="10"/>
<path d="M153.9 274.6C153.6 275.7 153.3 276.7 152.9 277.8C152.7 278.5 152.4 279.1 152 279.7C151.3 280.6 150 281 148.8 281.1C146.1 281.3 143.6 280.1 141.2 278.9" stroke="black" stroke-width="0.5" stroke-miterlimit="10"/>
<path d="M135 202.5C131.9 203.8 128.9 205.1 125.8 206.3" stroke="black" stroke-width="0.5" stroke-miterlimit="10" stroke-linecap="round"/>
<path d="M92.4 331.6C90.2 332.9 88 334.1 85.8 335.4" stroke="#222221" stroke-width="0.5" stroke-miterlimit="10"/>
<path d="M81.3 338.2C75.5 342.2 70.1 346.8 65.1 351.7" stroke="#222221" stroke-width="0.5" stroke-miterlimit="10"/>
<path d="M85.1 333C83.4 333.7 81.7 334.6 80.3 335.8" stroke="#222221" stroke-width="0.5" stroke-miterlimit="10"/>
<path d="M46.8 280.9C44 283.1 41.3 285.3 38.5 287.5" stroke="#222221" stroke-width="0.5" stroke-miterlimit="10"/>
<path d="M187.3 261.9C189.1 263.7 189.9 266.3 189.4 268.8" stroke="#222221" stroke-width="0.5" stroke-miterlimit="10"/>
<path d="M99.9 198.3C99 198.9 98.1 199.5 97.2 200.1" stroke="#222221" stroke-width="0.5" stroke-miterlimit="10"/>
<path d="M98.4 203C95.8 204.4 93.4 206.2 91.3 208.2" stroke="#222221" stroke-width="0.5" stroke-miterlimit="10"/>
<path d="M89.1 210.4C88.6 211 88.1 211.6 87.5 212.1" stroke="#222221" stroke-width="0.5" stroke-miterlimit="10"/>
<path d="M150.2 186.6C151.2 187.3 152.3 187.7 153.5 187.9" stroke="#222221" stroke-width="0.5" stroke-miterlimit="10"/>
<path d="M208.9 240C208 240.4 207.2 240.9 206.5 241.5" stroke="black" stroke-width="0.5" stroke-miterlimit="10" stroke-linecap="round"/>
<path d="M208.9 241.5C208.4 241.7 207.9 242 207.5 242.4" stroke="black" stroke-width="0.5" stroke-miterlimit="10" stroke-linecap="round"/>
<path d="M189.4 270.9C189.4 271.5 189.4 272.2 189.4 272.8" stroke="black" stroke-width="0.5" stroke-miterlimit="10" stroke-linecap="round"/>
<path d="M77.9 337.2C77.4 337.5 77 337.9 76.5 338.2" stroke="black" stroke-width="0.5" stroke-miterlimit="10" stroke-linecap="round"/>
<path d="M130.3 304C131.8 302.4 133.3 300.8 134.8 299.2" stroke="black" stroke-width="0.5" stroke-miterlimit="10" stroke-linecap="round"/>
<path d="M67.1 272C69.8 273.9 72.5 275.8 75.1 277.7" stroke="black" stroke-width="0.5" stroke-miterlimit="10" stroke-linecap="round"/>
<path d="M76.6 278.8C77.1 279.4 77.8 279.8 78.4 280.2" stroke="black" stroke-width="0.5" stroke-miterlimit="10" stroke-linecap="round"/>
<path d="M72.8 277.9C73.4 278.4 74.1 278.8 74.7 279.3" stroke="black" stroke-width="0.5" stroke-miterlimit="10" stroke-linecap="round"/>
<path d="M233.2 192C234.1 192.8 235.1 193.7 235.2 194.8C235.4 196 234.6 197.1 233.9 198.1" stroke="black" stroke-width="0.5" stroke-miterlimit="10" stroke-linecap="round"/>
</g>
</svg>
