<svg width="110" height="110" viewBox="0 0 110 110" fill="none" xmlns="http://www.w3.org/2000/svg">
<path d="M20.6792 33.8109H13.2389C12.6863 33.8109 12.2382 33.3634 12.2382 32.8101V25.3699C12.2382 24.8167 12.6863 24.3691 13.2389 24.3691C13.7915 24.3691 14.2396 24.8167 14.2396 25.3699V31.8094H19.6784V25.3699C19.6784 24.8167 20.1266 24.3691 20.6792 24.3691C21.2317 24.3691 21.6799 24.8167 21.6799 25.3699V32.8101C21.6799 33.3631 21.2319 33.8109 20.6792 33.8109Z" fill="#1F466B"/>
<path d="M20.6792 41.2511C20.1266 41.2511 19.6784 40.8035 19.6784 40.2503V33.8108H14.2396V40.2503C14.2396 40.8035 13.7915 41.2511 13.2389 41.2511C12.6863 41.2511 12.2382 40.8035 12.2382 40.2503V32.8101C12.2382 32.2568 12.6863 31.8093 13.2389 31.8093H20.6792C21.2317 31.8093 21.6799 32.2568 21.6799 32.8101V40.2503C21.6799 40.8033 21.2319 41.2511 20.6792 41.2511Z" fill="#1F466B"/>
<path d="M63.3989 41.2511H55.9586C55.4061 41.2511 54.9579 40.8036 54.9579 40.2504V25.3699C54.9579 24.8167 55.4061 24.3691 55.9586 24.3691C56.5112 24.3691 56.9594 24.8167 56.9594 25.3699V39.2496H63.3989C63.9515 39.2496 64.3996 39.6972 64.3996 40.2504C64.3996 40.8034 63.9515 41.2511 63.3989 41.2511Z" fill="#1F466B"/>
<path d="M47.6993 41.2501C47.1467 41.2501 46.6986 40.8026 46.6986 40.2494L46.6975 29.0983L44.262 33.3114C43.9043 33.9291 42.8879 33.9291 42.5293 33.3114L40.0915 29.0983L40.0919 40.2494C40.0919 40.8026 39.6437 41.2501 39.0912 41.2501C38.5386 41.2501 38.0904 40.8026 38.0904 40.2494L38.0894 25.3699C38.0894 24.9175 38.3934 24.5207 38.8306 24.4034C39.2665 24.2831 39.7293 24.4766 39.9563 24.8685L43.3949 30.8115L46.8311 24.8685C47.0578 24.4766 47.5178 24.2841 47.9569 24.4034C48.3943 24.5207 48.6981 24.9164 48.6981 25.3699L48.6996 40.2494C48.7001 40.8026 48.2519 41.2501 47.6993 41.2501Z" fill="#1F466B"/>
<path d="M33.6046 26.3706H26.1643C25.6117 26.3706 25.1636 25.9231 25.1636 25.3699C25.1636 24.8167 25.6117 24.3691 26.1643 24.3691H33.6046C34.1571 24.3691 34.6053 24.8167 34.6053 25.3699C34.6053 25.9231 34.1574 26.3706 33.6046 26.3706Z" fill="#1F466B"/>
<path d="M29.8845 41.2511C29.332 41.2511 28.8838 40.8036 28.8838 40.2504V25.3699C28.8838 24.8167 29.332 24.3691 29.8845 24.3691C30.4371 24.3691 30.8853 24.8167 30.8853 25.3699V40.2504C30.8853 40.8034 30.4371 41.2511 29.8845 41.2511Z" fill="#1F466B"/>
<path d="M98.6032 46.4907H72.6636C72.6737 46.4207 72.6737 46.3506 72.6737 46.2806V19.34C72.6737 15.2367 69.341 11.9043 65.248 11.9043H11.3867C7.2935 11.9043 3.96106 15.2367 3.96106 19.34V46.2806C3.96106 50.3839 7.29372 53.7161 11.3867 53.7161H14.8592V62.5129C14.8592 62.9033 15.0994 63.2636 15.4496 63.4236C15.8198 63.5938 16.2402 63.5136 16.5305 63.2636L27.3187 53.7163H37.3364C37.3263 53.7864 37.3164 53.8465 37.3164 53.9166V80.8672C37.3164 84.9602 40.6491 88.2928 44.7522 88.2928H82.6811L93.4693 97.8502C93.7595 98.1005 94.1699 98.1705 94.54 98.0102C94.9003 97.8502 95.1304 97.4899 95.1304 97.0997V88.2931H98.603C102.706 88.2931 106.039 84.9606 106.039 80.8674V53.9163C106.039 49.8231 102.706 46.4907 98.6032 46.4907ZM59.3334 76.2234H60.2942C60.8547 76.2234 61.2949 76.6737 61.2949 77.2241C61.2949 77.7745 60.8545 78.2248 60.2942 78.2248H59.3334C54.0693 78.2248 49.796 73.9415 49.796 68.6875C49.796 63.4234 54.0693 59.1502 59.3334 59.1502H60.2942C60.8547 59.1502 61.2949 59.6005 61.2949 60.1509C61.2949 60.7013 60.8545 61.1516 60.2942 61.1516H59.3334C55.1701 61.1516 51.7977 64.5341 51.7977 68.6875C51.7975 72.8409 55.1701 76.2234 59.3334 76.2234ZM26.9386 51.7146C26.6883 51.7146 26.4582 51.8049 26.2782 51.9649L16.8609 60.2912V52.7154C16.8609 52.1551 16.4205 51.7146 15.8602 51.7146H11.3867C8.39436 51.7146 5.96254 49.2729 5.96254 46.2806V19.34C5.96254 16.3477 8.39436 13.9058 11.3867 13.9058H65.2478C68.2402 13.9058 70.672 16.3477 70.672 19.34V46.2806C70.672 49.2729 68.2402 51.7146 65.2478 51.7146H26.9386ZM71.9729 67.6868C74.8851 67.6868 77.2468 70.0485 77.2468 72.9509C77.2468 75.8631 74.8851 78.2248 71.9729 78.2248H67.7095C67.1591 78.2248 66.7088 77.7745 66.7088 77.2241C66.7088 76.6737 67.1591 76.2234 67.7095 76.2234H71.9729C73.7743 76.2234 75.2454 74.7521 75.2454 72.9509C75.2454 71.1496 73.7741 69.6885 71.9729 69.6885C69.0705 69.6885 66.7088 67.3267 66.7088 64.4145C66.7088 61.5121 69.0705 59.1504 71.9729 59.1504H76.2461C76.7965 59.1504 77.2468 59.6007 77.2468 60.1511C77.2468 60.7015 76.7965 61.1519 76.2461 61.1519H71.9729C70.1714 61.1519 68.7105 62.613 68.7105 64.4143C68.7105 66.2157 70.1716 67.6868 71.9729 67.6868ZM88.2954 67.6868C91.1975 67.6868 93.5595 70.0485 93.5595 72.9509C93.5595 75.8631 91.1977 78.2248 88.2954 78.2248H84.0221C83.4717 78.2248 83.0214 77.7745 83.0214 77.2241C83.0214 76.6737 83.4717 76.2234 84.0221 76.2234H88.2954C90.0969 76.2234 91.5578 74.7521 91.5578 72.9509C91.5578 71.1496 90.0966 69.6885 88.2954 69.6885C85.3931 69.6885 83.0214 67.3267 83.0214 64.4145C83.0214 61.5121 85.3933 59.1504 88.2954 59.1504H92.5588C93.1193 59.1504 93.5595 59.6007 93.5595 60.1511C93.5595 60.7015 93.1191 61.1519 92.5588 61.1519H88.2954C86.4939 61.1519 85.0229 62.613 85.0229 64.4143C85.0229 66.2157 86.4939 67.6868 88.2954 67.6868Z" fill="#1F466B"/>
<path d="M76.2339 33.4297V35.6452C76.2339 36.1984 76.682 36.6459 77.2346 36.6459C77.7872 36.6459 78.2354 36.1984 78.2354 35.6452V33.4297C78.2354 32.8765 77.7872 32.429 77.2346 32.429C76.682 32.429 76.2339 32.8765 76.2339 33.4297Z" fill="#1F466B"/>
<path d="M86.5038 32.722C86.1128 32.331 85.4796 32.331 85.0886 32.722C84.9836 32.827 80.8848 36.9258 81.0143 36.7963C80.6233 37.1873 80.6233 37.8204 81.0143 38.2114C81.4053 38.6025 82.0385 38.6025 82.4295 38.2114C82.5552 38.0858 86.6052 34.0357 86.5038 34.1371C86.8948 33.7461 86.8948 33.113 86.5038 32.722Z" fill="#1F466B"/>
<path d="M83.5807 40.99C83.0281 40.99 82.58 41.4375 82.58 41.9907C82.58 42.544 83.0281 42.9915 83.5807 42.9915H85.7962C86.3487 42.9915 86.7969 42.544 86.7969 41.9907C86.7969 41.4375 86.3487 40.99 85.7962 40.99H83.5807Z" fill="#1F466B"/>
</svg>
