<svg width="57" height="56" viewBox="0 0 57 56" fill="none" xmlns="http://www.w3.org/2000/svg">
<g clip-path="url(#clip0_1_862)">
<path fill-rule="evenodd" clip-rule="evenodd" d="M38.7388 6.04596L40.2108 0.648854C40.2384 0.535055 40.2889 0.427846 40.3594 0.333566C40.4299 0.239286 40.5189 0.15985 40.6212 0.0999544C40.7235 0.0400591 40.837 0.000920979 40.9549 -0.0151456C41.0728 -0.0312121 41.1929 -0.0238809 41.3079 0.00641466C41.4229 0.0367102 41.5305 0.0893549 41.6245 0.161236C41.7184 0.233116 41.7967 0.322773 41.8548 0.424905C41.9129 0.527037 41.9495 0.63957 41.9625 0.755849C41.9755 0.872128 41.9647 0.989793 41.9306 1.10188L40.4592 6.49899C40.4084 6.68494 40.2967 6.84927 40.1413 6.96658C39.9859 7.0839 39.7955 7.14766 39.5995 7.14803C39.5213 7.14805 39.4434 7.13783 39.368 7.11762C39.1399 7.05742 38.9455 6.91068 38.8275 6.70967C38.7095 6.50866 38.6776 6.26985 38.7388 6.04574V6.04596ZM45.0815 14.3644L50.5751 15.8111C50.7838 15.866 50.965 15.9936 51.085 16.1701C51.205 16.3465 51.2556 16.5598 51.2275 16.7702C51.1993 16.9806 51.0943 17.1738 50.932 17.3138C50.7696 17.4538 50.561 17.5311 50.345 17.5312C50.2672 17.5314 50.1897 17.5213 50.1146 17.5014L44.6203 16.0551C44.5073 16.0253 44.4014 15.974 44.3086 15.9041C44.2158 15.8341 44.1379 15.7468 44.0794 15.6473C44.0209 15.5478 43.983 15.4379 43.9677 15.324C43.9524 15.21 43.9601 15.0942 43.9904 14.9832C44.0207 14.8722 44.0729 14.7681 44.1441 14.677C44.2154 14.5858 44.3042 14.5093 44.4055 14.4518C44.5068 14.3943 44.6186 14.357 44.7346 14.342C44.8506 14.327 44.9684 14.3346 45.0814 14.3644H45.0815ZM43.338 10.1097C43.2795 10.0102 43.2415 9.90037 43.2262 9.78644C43.2109 9.67252 43.2186 9.55674 43.2489 9.44575C43.2792 9.33476 43.3315 9.23073 43.4027 9.13962C43.474 9.0485 43.5629 8.97209 43.6642 8.91476L48.5889 6.12045C48.7935 6.00442 49.0367 5.97299 49.2649 6.03308C49.493 6.09317 49.6876 6.23985 49.8057 6.44086C49.9238 6.64187 49.9558 6.88074 49.8946 7.10493C49.8335 7.32911 49.6842 7.52024 49.4796 7.63628L44.5549 10.4304C44.4535 10.4878 44.3417 10.5252 44.2257 10.5402C44.1097 10.5552 43.9919 10.5476 43.8789 10.5178C43.7659 10.4881 43.66 10.4368 43.5672 10.3668C43.4744 10.2968 43.3965 10.2096 43.338 10.11V10.1097ZM1.78125 50.7719H21.6511V51.9914C21.6515 52.3612 21.8011 52.7158 22.0672 52.9773C22.3333 53.2388 22.6941 53.386 23.0705 53.3865H33.9295C34.3059 53.386 34.6667 53.2388 34.9328 52.9773C35.1989 52.7158 35.3486 52.3612 35.349 51.9914V50.7719H55.2188V52.85C55.2181 53.2213 55.0676 53.5772 54.8003 53.8397C54.5329 54.1021 54.1706 54.2497 53.7926 54.25H3.20736C2.82948 54.2495 2.4672 54.1019 2.19989 53.8395C1.93259 53.5771 1.78205 53.2213 1.78125 52.85V50.7719ZM23.4326 50.7719V51.636H33.5679V50.7719H23.4326ZM4.275 21.9735C4.27565 21.4713 4.47904 20.9898 4.84054 20.6348C5.20204 20.2797 5.69214 20.08 6.20331 20.0795H10.8467C9.97752 21.0157 9.3966 22.175 9.17143 23.4227C8.83856 25.2217 9.21452 27.1633 10.2291 28.89C11.2436 30.6167 12.7673 31.9067 14.52 32.5238C15.6808 32.938 16.9345 33.0338 18.1465 32.8008L25.7304 40.25C25.8688 40.3862 26.0491 40.4737 26.2433 40.4989C26.4375 40.5241 26.6347 40.4856 26.8044 40.3894L31.9135 37.4918C32.0322 37.4246 32.1334 37.3315 32.2095 37.2196C32.2855 37.1077 32.3342 36.9801 32.3519 36.8467C32.3696 36.7133 32.3557 36.5777 32.3114 36.4504C32.267 36.3231 32.1934 36.2076 32.0962 36.1128L25.2 29.3896C30.5806 26.6609 35.2641 25.2622 42.0719 26.0804C42.484 26.1299 42.902 26.0657 43.279 25.8948C43.656 25.7239 43.9771 25.4531 44.2062 25.1129C44.4352 24.7727 44.5633 24.3765 44.5759 23.9688C44.5885 23.5611 44.4852 23.158 44.2775 22.8047L42.6764 20.0791H50.7967C51.3079 20.0796 51.7981 20.2793 52.1596 20.6345C52.5212 20.9896 52.7245 21.4712 52.725 21.9735V49.0219H4.275V21.9735ZM24.0536 33.0329C23.9951 32.9334 23.9571 32.8235 23.9419 32.7096C23.9266 32.5956 23.9343 32.4799 23.9646 32.3689C23.9949 32.2579 24.0472 32.1538 24.1184 32.0627C24.1896 31.9715 24.2784 31.895 24.3797 31.8376L24.8865 31.5497L23.5547 30.2516C22.6183 30.7556 21.6542 31.2943 20.649 31.8649C20.4453 31.98 20.2409 32.0857 20.0357 32.1821L26.506 38.539L30.0141 36.5486L28.5278 35.0998L27.6492 35.5977C27.5479 35.6573 27.4354 35.6966 27.3185 35.7131C27.2015 35.7297 27.0824 35.7232 26.968 35.6941C26.8536 35.665 26.7462 35.6138 26.6522 35.5435C26.5582 35.4732 26.4793 35.3852 26.4202 35.2846C26.3611 35.1841 26.323 35.073 26.308 34.9579C26.2931 34.8427 26.3016 34.7258 26.3331 34.6139C26.3646 34.502 26.4184 34.3974 26.4915 34.3061C26.5645 34.2149 26.6553 34.1388 26.7586 34.0824L27.2176 33.8223L26.1967 32.8276L25.2704 33.3526C25.1691 33.4101 25.0573 33.4475 24.9413 33.4625C24.8254 33.4776 24.7075 33.47 24.5945 33.4403C24.4815 33.4106 24.3756 33.3593 24.2828 33.2894C24.19 33.2194 24.1121 33.1322 24.0536 33.0327V33.0329ZM30.2657 3.88581C27.3727 10.5739 23.4046 14.1323 18.0072 17.5147L24.1451 27.96C29.8248 25.0592 34.9459 23.461 42.2878 24.3441C42.3714 24.3542 42.4562 24.3412 42.5328 24.3066C42.6093 24.272 42.6745 24.2171 42.721 24.148C42.7676 24.079 42.7936 23.9986 42.7962 23.9159C42.7988 23.8331 42.7779 23.7513 42.7358 23.6796L31.0748 3.83735C31.0378 3.76872 30.9821 3.71155 30.914 3.67226C30.8458 3.63297 30.7678 3.6131 30.6888 3.61489C30.6777 3.6147 30.6665 3.61507 30.6554 3.61598C30.5706 3.6179 30.4882 3.64459 30.4188 3.69263C30.3494 3.74068 30.2961 3.80793 30.2658 3.88581H30.2657ZM3.20736 56H53.7926C54.6428 55.9991 55.4579 55.667 56.0592 55.0765C56.6604 54.486 56.9988 53.6853 57 52.85V49.8969C57 49.6649 56.9062 49.4423 56.7391 49.2782C56.5721 49.1141 56.3456 49.0219 56.1094 49.0219H54.5063V21.9735C54.505 21.0073 54.1137 20.0811 53.4183 19.3979C52.7228 18.7148 51.78 18.3305 50.7966 18.3294H41.6479L40.5598 16.4788C41.408 15.872 41.9976 14.9784 42.2152 13.9701C42.4328 12.9617 42.263 11.9099 41.7385 11.0172C41.2139 10.1245 40.3717 9.45406 39.3741 9.13495C38.3764 8.81585 37.2939 8.87065 36.3349 9.28882L32.6166 2.96235C32.4091 2.60905 32.1054 2.31958 31.7397 2.12645C31.3741 1.93332 30.9608 1.84419 30.5464 1.86906C30.132 1.89393 29.7328 2.03182 29.3938 2.26724C29.0547 2.50266 28.7892 2.82629 28.627 3.20178C25.2771 10.9444 20.5387 14.1417 13.1814 18.3294H6.20331C5.21993 18.3306 4.27718 18.7149 3.58178 19.3981C2.88638 20.0812 2.49511 21.0073 2.49375 21.9735V49.0219H0.890625C0.654417 49.0219 0.427883 49.1141 0.260858 49.2782C0.0938335 49.4423 0 49.6649 0 49.8969L0 52.85C0.00103169 53.6854 0.339316 54.4861 0.940622 55.0767C1.54193 55.6672 2.35714 55.9993 3.20736 56ZM17.4698 23.6553L13.3973 25.9657C13.1927 26.0817 13.0434 26.2728 12.9823 26.497C12.9211 26.7212 12.9531 26.9601 13.0712 27.1611C13.1893 27.3621 13.3839 27.5088 13.612 27.5689C13.8402 27.629 14.0834 27.5975 14.288 27.4815L18.3599 25.1711C18.4632 25.1146 18.554 25.0386 18.627 24.9473C18.7001 24.8561 18.7539 24.7515 18.7854 24.6396C18.8169 24.5277 18.8255 24.4107 18.8105 24.2956C18.7955 24.1804 18.7574 24.0693 18.6983 23.9688C18.6392 23.8683 18.5603 23.7803 18.4663 23.71C18.3723 23.6397 18.2649 23.5885 18.1505 23.5594C18.0361 23.5302 17.917 23.5237 17.8 23.5403C17.6831 23.5568 17.5706 23.5961 17.4693 23.6558L17.4698 23.6553ZM12.0535 23.6791C11.8835 23.7754 11.7507 23.9241 11.6756 24.1022C11.6005 24.2803 11.5874 24.4778 11.6383 24.664C11.6892 24.8501 11.8012 25.0146 11.957 25.1318C12.1128 25.249 12.3036 25.3123 12.4998 25.312C12.6559 25.3122 12.8093 25.2716 12.9441 25.1944L15.4267 23.7869C15.6313 23.6709 15.7806 23.4798 15.8418 23.2556C15.903 23.0314 15.871 22.7925 15.7529 22.5915C15.6348 22.3905 15.4402 22.2438 15.212 22.1837C14.9839 22.1236 14.7407 22.1551 14.5361 22.2711L12.0535 23.6791Z" fill="#518E41"/>
</g>
<defs>
<clipPath id="clip0_1_862">
<rect width="57" height="56" fill="white"/>
</clipPath>
</defs>
</svg>
