<svg width="96" height="96" viewBox="0 0 96 96" fill="none" xmlns="http://www.w3.org/2000/svg">
<g clip-path="url(#clip0_1_914)">
<path d="M30 72V68.0001C30 63.5818 26.4182 60 21.9999 60H14.0001C9.58181 60 6 63.5818 6 68.0001V72C6 76.4182 9.58181 80.0001 14.0001 80.0001H22.0001C24.2092 80.0001 26.0001 81.7909 26.0001 84V87.9999C26.0001 90.2091 24.2092 91.9999 22.0001 91.9999H14.0001C11.7909 91.9999 10.0001 90.2091 10.0001 87.9999V85.9999H6V87.9999C6 92.4184 9.58181 96 14.0001 96H22.0001C26.4182 96 30 92.4184 30 87.9999V84C30 79.5818 26.4182 75.9999 21.9999 75.9999H14.0001C11.7909 75.9999 10.0001 74.2091 10.0001 72V68.0001C10.0001 65.7909 11.7909 64.0001 14.0001 64.0001H22.0001C24.2092 64.0001 26.0001 65.7909 26.0001 68.0001V72H30Z" fill="#1F466B"/>
<path d="M42 63.9999H60V60H42C38.6863 60 36 62.6863 36 66V90C36 93.3137 38.6863 96 42 96H60V92.0001H42C40.8954 92.0001 39.9999 91.1046 39.9999 90V66C39.9999 64.8954 40.8954 63.9999 42 63.9999Z" fill="#1F466B"/>
<path d="M56.0001 76H38.0001V79.9999H56.0001V76Z" fill="#1F466B"/>
<path d="M78 60C71.3726 60 66 65.3726 66 72V84C66.0066 90.6248 71.3752 95.9934 78 96C84.6248 95.9934 89.9934 90.6248 90 84V72C90 65.3726 84.6274 60 78 60ZM86.0001 84C86.0001 88.4182 82.4184 92.0001 78 92.0001C73.5817 92.0001 69.9999 88.4184 69.9999 84V72C69.9999 67.5817 73.5816 63.9999 78 63.9999C82.4182 63.9999 86.0001 67.5817 86.0001 72V84Z" fill="#1F466B"/>
<path d="M93.9999 0H75.9999V3.99994H87.93L48.2919 33.2961L35.5059 18.6821C34.8167 17.8946 33.6367 17.7716 32.7999 18.4001L0.799875 42.4001C0.296437 42.7778 0 43.3704 0 44.0001V56.0001H3.99994V45L33.726 22.71L46.5039 37.3101C47.19 38.0942 48.3628 38.2204 49.2 37.6001L95.1999 3.6C95.7036 3.22238 96 2.6295 96 2.00006C96 0.8955 95.1045 0 93.9999 0Z" fill="#1F466B"/>
<path d="M92.1037 1.36588L86.0985 19.3645L89.8911 20.6299L95.8963 2.63127L92.1037 1.36588Z" fill="#1F466B"/>
<path d="M21.9999 36V51.9999H14.0001V45.9999H9.99994V54C9.99994 55.1046 10.8954 56.0001 12 56.0001H24C25.1046 56.0001 26.0001 55.1046 26.0001 54V36H21.9999Z" fill="#1F466B"/>
<path d="M24 0H12C10.8954 0 9.99994 0.8955 9.99994 2.00006V28.0001H13.9999V4.00012H21.9999V20.0001H25.9999V2.00006C26.0001 0.8955 25.1046 0 24 0Z" fill="#1F466B"/>
<path d="M54 0H42C40.8954 0 39.9999 0.8955 39.9999 2.00006V20.0001H43.9999V3.99994H51.9999V24H55.9999V2.00006C56.0001 0.8955 55.1046 0 54 0Z" fill="#1F466B"/>
<path d="M51.9999 40V52H43.9999V40H39.9999V54.0001C39.9999 55.1046 40.8954 56.0001 42 56.0001H54C55.1046 56.0001 56.0001 55.1046 56.0001 54.0001V40H51.9999Z" fill="#1F466B"/>
<path d="M81.9999 26V52.0001H73.9999V28.0001H69.9999V53.9999C69.9999 55.1045 70.8954 56 72 56H84C85.1046 56 86.0001 55.1045 86.0001 53.9999V26H81.9999Z" fill="#1F466B"/>
<path d="M36 50H30V53.9999H36V50Z" fill="#1F466B"/>
<path d="M36 42H30V45.9999H36V42Z" fill="#1F466B"/>
<path d="M36 34H30V37.9999H36V34Z" fill="#1F466B"/>
<path d="M36 8H30V11.9999H36V8Z" fill="#1F466B"/>
<path d="M36 0H30V3.99994H36V0Z" fill="#1F466B"/>
<path d="M66 8H60V11.9999H66V8Z" fill="#1F466B"/>
<path d="M66 0H60V3.99994H66V0Z" fill="#1F466B"/>
<path d="M66 50H60V53.9999H66V50Z" fill="#1F466B"/>
<path d="M66 42H60V45.9999H66V42Z" fill="#1F466B"/>
<path d="M66 34H60V37.9999H66V34Z" fill="#1F466B"/>
</g>
<defs>
<clipPath id="clip0_1_914">
<rect width="96" height="96" fill="white"/>
</clipPath>
</defs>
</svg>
