<svg width="93" height="93" viewBox="0 0 93 93" fill="none" xmlns="http://www.w3.org/2000/svg">
<g clip-path="url(#clip0_1_997)">
<path fill-rule="evenodd" clip-rule="evenodd" d="M17.4375 15.9739H13.0781C9.06605 15.9739 5.8125 19.2273 5.8125 23.2392V68.2843C5.8125 70.2111 6.5783 72.0595 7.93988 73.4212C9.30291 74.7846 11.1513 75.5496 13.0781 75.5496H79.9219C81.8487 75.5496 83.6971 74.7846 85.0601 73.4212C86.4217 72.0595 87.1875 70.2111 87.1875 68.2843C87.1875 58.3873 87.1875 39.3248 87.1875 39.3248C87.1875 38.5215 86.5365 37.8714 85.7344 37.8714C84.9323 37.8714 84.2812 38.5215 84.2812 39.3248V68.2843C84.2812 69.4394 83.8221 70.5494 83.004 71.3661C82.1873 72.1845 81.0786 72.6429 79.9219 72.6429C65.3906 72.6429 27.6094 72.6429 13.0781 72.6429C11.9214 72.6429 10.8127 72.1845 9.99605 71.3661C9.17794 70.5494 8.71875 69.4394 8.71875 68.2843C8.71875 57.4106 8.71875 34.1129 8.71875 23.2392C8.71875 20.8324 10.6703 18.8807 13.0781 18.8807H17.4375C18.2396 18.8807 18.8906 18.229 18.8906 17.4273C18.8906 16.6256 18.2396 15.9739 17.4375 15.9739Z" fill="#1F466B"/>
<path fill-rule="evenodd" clip-rule="evenodd" d="M87.1875 33.4112V23.2392C87.1875 21.3124 86.4217 19.464 85.0601 18.1023C83.6971 16.7389 81.8487 15.9739 79.9219 15.9739C77.6434 15.9739 75.5625 15.9739 75.5625 15.9739C74.7604 15.9739 74.1094 16.6256 74.1094 17.4273C74.1094 18.229 74.7604 18.8807 75.5625 18.8807H79.9219C81.0786 18.8807 82.1873 19.339 83.004 20.1574C83.8221 20.9741 84.2812 22.0841 84.2812 23.2392V33.4112C84.2812 34.2129 84.9323 34.8646 85.7344 34.8646C86.5365 34.8646 87.1875 34.2129 87.1875 33.4112Z" fill="#1F466B"/>
<path fill-rule="evenodd" clip-rule="evenodd" d="M56.6719 74.0397C56.6719 73.2372 56.0209 72.5872 55.2188 72.5872H37.7812C36.9791 72.5872 36.3281 73.2372 36.3281 74.0397V88.5651C36.3281 89.3677 36.9791 90.0177 37.7812 90.0177H55.2188C56.0209 90.0177 56.6719 89.3677 56.6719 88.5651V74.0397ZM39.2344 75.4922V87.1126H53.7656V75.4922H39.2344Z" fill="#1F466B"/>
<path fill-rule="evenodd" clip-rule="evenodd" d="M7.26562 61.0312H85.7344C86.5365 61.0312 87.1875 60.3802 87.1875 59.5781C87.1875 58.776 86.5365 58.125 85.7344 58.125H7.26562C6.4635 58.125 5.8125 58.776 5.8125 59.5781C5.8125 60.3802 6.4635 61.0312 7.26562 61.0312Z" fill="#1F466B"/>
<path fill-rule="evenodd" clip-rule="evenodd" d="M30.5156 90.0938H61.0312C61.8334 90.0938 62.4844 89.4427 62.4844 88.6406C62.4844 87.8385 61.8334 87.1875 61.0312 87.1875H30.5156C29.7135 87.1875 29.0625 87.8385 29.0625 88.6406C29.0625 89.4427 29.7135 90.0938 30.5156 90.0938Z" fill="#1F466B"/>
<path fill-rule="evenodd" clip-rule="evenodd" d="M77.045 7.26562C77.045 4.8578 75.0929 2.90625 72.6841 2.90625C62.7585 2.90625 30.279 2.90625 20.3533 2.90625C17.9446 2.90625 15.9924 4.8578 15.9924 7.26562V50.8594C15.9924 53.2672 17.9446 55.2188 20.3533 55.2188H72.6841C75.0929 55.2188 77.045 53.2672 77.045 50.8594V7.26562ZM74.1378 7.26562V50.8594C74.1378 51.6615 73.4874 52.3125 72.6841 52.3125C62.7585 52.3125 30.279 52.3125 20.3533 52.3125C19.5501 52.3125 18.8997 51.6615 18.8997 50.8594C18.8997 42.0999 18.8997 16.0251 18.8997 7.26562C18.8997 6.4635 19.5501 5.8125 20.3533 5.8125H72.6841C73.4874 5.8125 74.1378 6.4635 74.1378 7.26562Z" fill="#1F466B"/>
<path d="M46.5 69.75C48.1051 69.75 49.4062 68.4488 49.4062 66.8438C49.4062 65.2387 48.1051 63.9375 46.5 63.9375C44.8949 63.9375 43.5938 65.2387 43.5938 66.8438C43.5938 68.4488 44.8949 69.75 46.5 69.75Z" fill="#1F466B"/>
<path fill-rule="evenodd" clip-rule="evenodd" d="M17.4375 20.3438H75.5625C76.3646 20.3438 77.0156 19.6927 77.0156 18.8906C77.0156 18.0885 76.3646 17.4375 75.5625 17.4375H17.4375C16.6354 17.4375 15.9844 18.0885 15.9844 18.8906C15.9844 19.6927 16.6354 20.3438 17.4375 20.3438Z" fill="#1F466B"/>
<path d="M68.2969 14.5312C69.902 14.5312 71.2031 13.2301 71.2031 11.625C71.2031 10.0199 69.902 8.71875 68.2969 8.71875C66.6918 8.71875 65.3906 10.0199 65.3906 11.625C65.3906 13.2301 66.6918 14.5312 68.2969 14.5312Z" fill="#1F466B"/>
<path d="M59.5781 14.5312C61.1832 14.5312 62.4844 13.2301 62.4844 11.625C62.4844 10.0199 61.1832 8.71875 59.5781 8.71875C57.973 8.71875 56.6719 10.0199 56.6719 11.625C56.6719 13.2301 57.973 14.5312 59.5781 14.5312Z" fill="#1F466B"/>
<path d="M50.8594 14.5312C52.4645 14.5312 53.7656 13.2301 53.7656 11.625C53.7656 10.0199 52.4645 8.71875 50.8594 8.71875C49.2543 8.71875 47.9531 10.0199 47.9531 11.625C47.9531 13.2301 49.2543 14.5312 50.8594 14.5312Z" fill="#1F466B"/>
<path fill-rule="evenodd" clip-rule="evenodd" d="M40.6875 10.1719H23.25C22.4479 10.1719 21.7969 10.8229 21.7969 11.625C21.7969 12.4271 22.4479 13.0781 23.25 13.0781H40.6875C41.4896 13.0781 42.1406 12.4271 42.1406 11.625C42.1406 10.8229 41.4896 10.1719 40.6875 10.1719Z" fill="#1F466B"/>
<path fill-rule="evenodd" clip-rule="evenodd" d="M65.3363 24.7031C65.3363 23.901 64.6858 23.25 63.8837 23.25H29.0116C28.2096 23.25 27.5591 23.901 27.5591 24.7031V33.4219C27.5591 34.224 28.2096 34.875 29.0116 34.875H63.8837C64.6858 34.875 65.3363 34.224 65.3363 33.4219V24.7031ZM30.4642 26.1562V31.9688H62.4312V26.1562H30.4642Z" fill="#1F466B"/>
<path fill-rule="evenodd" clip-rule="evenodd" d="M65.16 43.5938C65.16 40.3838 62.5596 37.7812 59.3509 37.7812C51.9127 37.7812 37.5634 37.7812 37.5634 37.7812C36.7609 37.7812 36.1113 38.4323 36.1113 39.2344V47.9531C36.1113 48.7552 36.7609 49.4062 37.5634 49.4062H59.3509C62.5596 49.4062 65.16 46.8037 65.16 43.5938ZM39.0154 40.6875V46.5H59.3509C60.9547 46.5 62.256 45.1995 62.256 43.5938C62.256 41.988 60.9547 40.6875 59.3509 40.6875H39.0154Z" fill="#1F466B"/>
<path fill-rule="evenodd" clip-rule="evenodd" d="M36.3281 33.4219V30.5156C36.3281 29.7135 35.6771 29.0625 34.875 29.0625C34.0729 29.0625 33.4219 29.7135 33.4219 30.5156V33.4219C33.4219 34.224 34.0729 34.875 34.875 34.875C35.6771 34.875 36.3281 34.224 36.3281 33.4219Z" fill="#1F466B"/>
<path fill-rule="evenodd" clip-rule="evenodd" d="M42.1406 33.4219V30.5156C42.1406 29.7135 41.4896 29.0625 40.6875 29.0625C39.8854 29.0625 39.2344 29.7135 39.2344 30.5156V33.4219C39.2344 34.224 39.8854 34.875 40.6875 34.875C41.4896 34.875 42.1406 34.224 42.1406 33.4219Z" fill="#1F466B"/>
<path fill-rule="evenodd" clip-rule="evenodd" d="M47.9531 33.4219V30.5156C47.9531 29.7135 47.3021 29.0625 46.5 29.0625C45.6979 29.0625 45.0469 29.7135 45.0469 30.5156V33.4219C45.0469 34.224 45.6979 34.875 46.5 34.875C47.3021 34.875 47.9531 34.224 47.9531 33.4219Z" fill="#1F466B"/>
<path fill-rule="evenodd" clip-rule="evenodd" d="M53.7656 33.4219V30.5156C53.7656 29.7135 53.1146 29.0625 52.3125 29.0625C51.5104 29.0625 50.8594 29.7135 50.8594 30.5156V33.4219C50.8594 34.224 51.5104 34.875 52.3125 34.875C53.1146 34.875 53.7656 34.224 53.7656 33.4219Z" fill="#1F466B"/>
<path fill-rule="evenodd" clip-rule="evenodd" d="M59.5781 33.4219V30.5156C59.5781 29.7135 58.9271 29.0625 58.125 29.0625C57.3229 29.0625 56.6719 29.7135 56.6719 30.5156V33.4219C56.6719 34.224 57.3229 34.875 58.125 34.875C58.9271 34.875 59.5781 34.224 59.5781 33.4219Z" fill="#1F466B"/>
<path fill-rule="evenodd" clip-rule="evenodd" d="M29.7121 44.8929L38.4308 40.5335C39.1487 40.176 39.4393 39.3013 39.0804 38.5849C38.7229 37.867 37.8481 37.5764 37.1317 37.9353L28.413 42.2947C27.6952 42.6521 27.4045 43.5269 27.7634 44.2433C28.1209 44.9612 28.9957 45.2518 29.7121 44.8929Z" fill="#1F466B"/>
<path fill-rule="evenodd" clip-rule="evenodd" d="M28.413 44.8929L37.1317 49.2523C37.8481 49.6112 38.7229 49.3205 39.0804 48.6027C39.4393 47.8863 39.1487 47.0115 38.4308 46.654L29.7121 42.2947C28.9957 41.9357 28.1209 42.2264 27.7634 42.9442C27.4045 43.6606 27.6952 44.5354 28.413 44.8929Z" fill="#1F466B"/>
</g>
<defs>
<clipPath id="clip0_1_997">
<rect width="93" height="93" fill="white"/>
</clipPath>
</defs>
</svg>
