<svg xmlns="http://www.w3.org/2000/svg" version="1.1" xmlns:xlink="http://www.w3.org/1999/xlink" width="80" height="92"><svg width="80" height="92" viewBox="0 0 80 92" fill="none" xmlns="http://www.w3.org/2000/svg">
<g clip-path="url(#clip0_2_4)">
<path d="M69.9099 29.789V29.361C75.2498 22.5804 65.2908 15.1743 60.6389 22.5804C60.4095 22.8437 60.1475 22.8108 60.1802 22.4816C60.9009 20.1446 62.1786 17.8405 63.9804 16.1947C70.172 10.6319 77.4775 11.6194 77.6413 0.987521L77.8379 0.032959C78.3293 1.51418 78.8862 2.99539 79.2138 4.50952C80.6552 10.9281 80.2949 17.0176 76.8551 22.712C75.1843 25.4111 72.6618 28.1432 69.9099 29.789Z" fill="#518E41"></path>
<path d="M69.91 29.7889C68.4685 31.5664 62.7683 33.1792 60.5078 32.9817C59.9837 32.9488 59.3612 32.9488 59.2957 32.4222C58.9353 29.6243 59.394 25.1477 60.213 22.4816L60.3768 22.5803C65.127 14.6476 75.9706 22.3499 69.91 29.7889Z" fill="#71BB45"></path>
<path d="M56.5766 32.488C56.6094 30.151 56.6749 27.8469 56.7076 25.5099C56.7732 22.1524 56.8059 18.5975 55.2334 15.6351C54.1196 13.4956 52.2523 11.8498 50.2212 10.566C48.0918 9.2494 45.7003 8.26192 43.1778 8.229C43.014 8.229 42.8174 8.229 42.6864 8.36067C42.5226 8.49233 42.5226 8.75566 42.5226 8.95315C42.457 16.3263 42.3915 23.7324 42.326 31.1056C42.326 31.5335 42.326 31.9943 42.4898 32.3893C42.9157 33.4097 44.2588 33.3768 45.1106 33.0147C44.8813 31.8626 44.914 30.6447 45.1761 29.4598C45.7986 29.6244 46.3555 28.9989 46.4865 28.3735C46.6176 27.7481 46.4538 27.0898 46.5193 26.4644C46.6503 25.5099 47.24 24.7199 47.8624 23.9628C49.8608 21.4612 51.8592 18.9596 53.8575 16.458C53.923 18.2354 53.9886 20.0458 53.9886 21.8233C53.9886 22.6462 53.9558 23.502 53.6282 24.2591C53.0713 25.444 51.7936 26.1682 51.204 27.3202C50.9746 27.7811 50.9419 28.4065 51.3678 28.6698C51.8264 28.966 52.4488 28.5381 52.973 28.6369C53.792 28.7685 54.0213 29.8548 54.0213 30.7106C54.0213 31.336 54.0213 31.9285 54.0213 32.5539C54.0213 32.7184 54.0213 32.883 54.1524 32.9818C54.2506 33.0476 54.3489 33.0805 54.48 33.0805C55.0369 33.1464 55.5938 33.1464 56.1507 33.1134C56.2818 33.1134 56.4128 33.0805 56.5111 33.0147C56.6421 32.9159 56.6749 32.6855 56.6749 32.521C56.5766 32.488 56.5766 32.488 56.5766 32.488ZM43.276 32.9818C43.276 32.9818 43.2433 32.9818 43.2433 32.9489C43.3416 32.9818 43.4398 32.9818 43.5381 32.9818C43.4071 33.0147 43.3088 33.0147 43.276 32.9818Z" fill="#24466B"></path>
<path d="M77.1499 35.2859V35.2529C64.2752 35.3188 51.4005 35.4175 38.5258 35.1542C31.9738 35.0225 25.2252 34.858 19.0008 36.9317C11.0729 39.6308 4.5209 46.0823 1.63802 53.9821C-1.24486 61.8819 -0.327583 71.0655 3.99674 78.2741C10.4832 89.1034 23.6855 94.337 35.774 91.0125C38.4931 90.2555 41.0811 89.1363 43.4398 87.6222C49.0745 84.0014 53.3334 78.2741 55.2334 71.8555C57.0352 65.7002 56.6749 59.117 56.3145 52.6984C51.6298 52.7313 46.9779 52.7642 42.2932 52.7971C41.8346 57.6358 43.1122 62.639 41.9001 67.346C40.2949 73.6 33.9722 78.307 27.5512 78.0107C21.1302 77.7145 15.2662 72.415 14.2834 66.0293C13.3006 59.6437 17.2973 52.8301 23.3252 50.5589C26.5356 49.3739 30.0737 49.3739 33.5135 49.4397C42.2932 49.5385 51.0401 49.6372 59.8198 49.7689C62.7682 49.8018 65.8477 49.8347 68.5995 48.7485C73.7429 46.6089 76.8223 40.8816 77.1499 35.2859ZM55.9869 52.7971C55.7904 52.7642 55.561 52.7642 55.3645 52.7313C55.5938 52.7313 55.8231 52.7642 55.9869 52.7971ZM21.5889 50.9868C21.6216 50.9538 21.6544 50.9209 21.6872 50.888L21.7199 50.9209C21.6544 50.9868 21.6216 50.9868 21.5889 50.9868ZM65.1925 49.308C65.127 49.308 65.0942 49.308 65.0287 49.308H64.9959C65.0614 49.308 65.127 49.308 65.2252 49.308C65.2252 49.308 65.2252 49.308 65.1925 49.308ZM65.0942 49.1764H65.5856C65.389 49.1764 65.2252 49.1764 65.0942 49.1764Z" fill="#24466B"></path>
</g>
<defs>
<clipPath id="SvgjsClipPath1005">
<rect width="80" height="92" fill="white"></rect>
</clipPath>
</defs>
</svg><style>@media (prefers-color-scheme: light) { :root { filter: none; } }
@media (prefers-color-scheme: dark) { :root { filter: none; } }
</style></svg>